STARTFONT 2.1
COMMENT
COMMENT Converted from OpenType font "MFMiMeng_Noncommercial-Regular.ttf" by "otf2bdf 3.0".
COMMENT
FONT -FreeType-MF MiMeng(Noncommercial)-Medium-R-Normal--22-160-100-100-P-164-ISO10646-1
SIZE 16 100 100
FONTBOUNDINGBOX 20 27 0 -7
STARTPROPERTIES 19
FOUNDRY "FreeType"
FAMILY_NAME "MF MiMeng(Noncommercial)"
WEIGHT_NAME "Medium"
SLANT "R"
SETWIDTH_NAME "Normal"
ADD_STYLE_NAME ""
PIXEL_SIZE 22
POINT_SIZE 160
RESOLUTION_X 100
RESOLUTION_Y 100
SPACING "P"
AVERAGE_WIDTH 164
CHARSET_REGISTRY "ISO10646"
CHARSET_ENCODING "1"
FONT_ASCENT 19
FONT_DESCENT 2
COPYRIGHT "© 2018 SN. All rights reserved."
_OTF_FONTFILE "MFMiMeng_Noncommercial-Regular.ttf"
_OTF_PSNAME "MF MiMeng(Noncommercial)-Regular"
ENDPROPERTIES
CHARS 7226
STARTCHAR 0020
ENCODING 32
SWIDTH 225 0
DWIDTH 5 0
BBX 0 0 0 0
BITMAP
ENDCHAR
STARTCHAR 0021
ENCODING 33
SWIDTH 135 0
DWIDTH 3 0
BBX 1 19 1 -1
BITMAP
80
80
80
80
80
80
80
80
80
80
80
80
80
80
00
00
00
80
80
ENDCHAR
STARTCHAR 0022
ENCODING 34
SWIDTH 225 0
DWIDTH 5 0
BBX 4 2 1 16
BITMAP
F0
A0
ENDCHAR
STARTCHAR 0023
ENCODING 35
SWIDTH 675 0
DWIDTH 15 0
BBX 15 18 0 0
BITMAP
0210
0210
0230
0420
0420
7FE0
04FE
0C60
0840
0840
1840
FFFC
1080
1080
3080
3080
2180
0100
ENDCHAR
STARTCHAR 0024
ENCODING 36
SWIDTH 540 0
DWIDTH 12 0
BBX 10 19 1 -2
BITMAP
0400
0400
0400
3E00
6580
C480
8400
8400
C400
7F00
08C0
0840
0840
8840
C840
6880
3F00
0800
0800
ENDCHAR
STARTCHAR 0025
ENCODING 37
SWIDTH 765 0
DWIDTH 17 0
BBX 15 20 1 -2
BITMAP
0018
0010
0010
7820
CC20
8440
8440
CC80
7880
0100
0100
0300
0200
0638
0464
0C42
0842
1866
103C
1000
ENDCHAR
STARTCHAR 0026
ENCODING 38
SWIDTH 630 0
DWIDTH 14 0
BBX 13 17 1 0
BITMAP
1C00
2600
4100
4100
4100
4300
4600
3C00
6000
D040
9840
8C40
86C0
8380
81C0
6338
3E08
ENDCHAR
STARTCHAR 0027
ENCODING 39
SWIDTH 135 0
DWIDTH 3 0
BBX 2 3 1 16
BITMAP
C0
80
80
ENDCHAR
STARTCHAR 0028
ENCODING 40
SWIDTH 180 0
DWIDTH 4 0
BBX 2 19 1 -1
BITMAP
40
40
40
C0
80
80
80
80
80
80
80
80
80
80
80
C0
40
40
40
ENDCHAR
STARTCHAR 0029
ENCODING 41
SWIDTH 180 0
DWIDTH 4 0
BBX 3 19 0 -1
BITMAP
C0
40
40
40
60
60
20
20
20
20
20
20
20
20
60
40
40
40
40
ENDCHAR
STARTCHAR 002A
ENCODING 42
SWIDTH 315 0
DWIDTH 7 0
BBX 7 7 0 12
BITMAP
10
10
D6
38
28
6C
44
ENDCHAR
STARTCHAR 002B
ENCODING 43
SWIDTH 495 0
DWIDTH 11 0
BBX 11 13 0 2
BITMAP
0400
0400
0400
0400
0400
0400
FFE0
0400
0400
0400
0400
0400
0400
ENDCHAR
STARTCHAR 002C
ENCODING 44
SWIDTH 180 0
DWIDTH 4 0
BBX 2 3 1 -4
BITMAP
40
80
80
ENDCHAR
STARTCHAR 002D
ENCODING 45
SWIDTH 585 0
DWIDTH 13 0
BBX 11 1 1 7
BITMAP
FFE0
ENDCHAR
STARTCHAR 002E
ENCODING 46
SWIDTH 90 0
DWIDTH 2 0
BBX 1 2 1 -1
BITMAP
80
80
ENDCHAR
STARTCHAR 002F
ENCODING 47
SWIDTH 405 0
DWIDTH 9 0
BBX 7 19 1 -1
BITMAP
06
04
04
04
0C
08
08
18
10
10
10
30
20
20
60
40
40
40
C0
ENDCHAR
STARTCHAR 0030
ENCODING 48
SWIDTH 495 0
DWIDTH 11 0
BBX 10 15 1 -1
BITMAP
1C00
3000
6200
4100
C080
8080
8080
8040
8040
8040
80C0
8080
4080
6100
3E00
ENDCHAR
STARTCHAR 0031
ENCODING 49
SWIDTH 360 0
DWIDTH 8 0
BBX 8 15 0 0
BITMAP
78
08
08
08
08
08
08
08
08
08
08
08
08
00
FF
ENDCHAR
STARTCHAR 0032
ENCODING 50
SWIDTH 495 0
DWIDTH 11 0
BBX 10 15 1 0
BITMAP
1E00
6300
4180
C080
8080
0080
0180
0100
0300
0600
1800
3000
6000
C000
FFC0
ENDCHAR
STARTCHAR 0033
ENCODING 51
SWIDTH 540 0
DWIDTH 12 0
BBX 10 16 1 1
BITMAP
1F00
6080
40C0
C040
0040
00C0
0180
3F00
0180
00C0
0040
0040
8040
4080
6180
1E00
ENDCHAR
STARTCHAR 0034
ENCODING 52
SWIDTH 495 0
DWIDTH 11 0
BBX 11 15 0 0
BITMAP
0100
2100
2100
6100
4100
4100
4100
C100
FFE0
0100
0100
0100
0100
0100
0100
ENDCHAR
STARTCHAR 0035
ENCODING 53
SWIDTH 540 0
DWIDTH 12 0
BBX 9 16 2 0
BITMAP
8000
8000
BF80
8000
8000
8000
8000
BE00
C300
0180
0080
0080
0080
8100
C300
3C00
ENDCHAR
STARTCHAR 0036
ENCODING 54
SWIDTH 540 0
DWIDTH 12 0
BBX 10 15 1 0
BITMAP
1F00
7180
40C0
C000
8000
8F00
B180
A0C0
8040
8040
8040
80C0
4080
6180
1E00
ENDCHAR
STARTCHAR 0037
ENCODING 55
SWIDTH 405 0
DWIDTH 9 0
BBX 9 15 0 1
BITMAP
FF80
0080
0100
0100
0100
0200
0200
0200
0400
0400
0400
0800
0800
0800
1000
ENDCHAR
STARTCHAR 0038
ENCODING 56
SWIDTH 495 0
DWIDTH 11 0
BBX 9 16 1 1
BITMAP
3E00
6100
C080
8080
8000
8180
4700
7C00
6700
C180
8080
8080
8080
C180
6300
3E00
ENDCHAR
STARTCHAR 0039
ENCODING 57
SWIDTH 495 0
DWIDTH 11 0
BBX 9 15 1 0
BITMAP
3C00
6300
C100
8180
8080
8080
8280
4680
3C80
0080
0080
0100
8100
6200
3C00
ENDCHAR
STARTCHAR 003A
ENCODING 58
SWIDTH 90 0
DWIDTH 2 0
BBX 1 10 1 2
BITMAP
80
80
00
00
00
00
00
00
80
80
ENDCHAR
STARTCHAR 003B
ENCODING 59
SWIDTH 180 0
DWIDTH 4 0
BBX 1 11 1 1
BITMAP
80
80
00
00
00
00
00
00
00
80
80
ENDCHAR
STARTCHAR 003C
ENCODING 60
SWIDTH 270 0
DWIDTH 6 0
BBX 5 10 0 4
BITMAP
18
10
20
40
80
40
20
30
18
08
ENDCHAR
STARTCHAR 003D
ENCODING 61
SWIDTH 630 0
DWIDTH 14 0
BBX 12 6 1 4
BITMAP
FFF0
0000
0000
0000
0000
FFF0
ENDCHAR
STARTCHAR 003E
ENCODING 62
SWIDTH 270 0
DWIDTH 6 0
BBX 5 9 1 4
BITMAP
80
40
20
30
18
10
20
40
80
ENDCHAR
STARTCHAR 003F
ENCODING 63
SWIDTH 405 0
DWIDTH 9 0
BBX 9 18 0 -1
BITMAP
1E00
6300
4180
C080
8080
0180
0100
0600
0400
0800
0800
0800
0800
0800
0000
0000
0800
0800
ENDCHAR
STARTCHAR 0040
ENCODING 64
SWIDTH 855 0
DWIDTH 19 0
BBX 17 18 1 0
BITMAP
07F000
0C1C00
300600
600300
401100
C39180
845080
881080
881080
881080
881080
8C5100
C79300
401E00
600080
300300
0C0E00
03F800
ENDCHAR
STARTCHAR 0041
ENCODING 65
SWIDTH 585 0
DWIDTH 13 0
BBX 13 16 0 -1
BITMAP
0200
0200
0100
0500
0D80
0880
0880
10C0
1040
1040
2F20
2020
6030
4010
4010
C018
ENDCHAR
STARTCHAR 0042
ENCODING 66
SWIDTH 585 0
DWIDTH 13 0
BBX 11 15 1 0
BITMAP
BF00
8180
80C0
8040
8040
80C0
8180
9F00
80C0
8060
8020
8020
8060
80C0
BF00
ENDCHAR
STARTCHAR 0043
ENCODING 67
SWIDTH 630 0
DWIDTH 14 0
BBX 12 15 1 0
BITMAP
0F80
18E0
2030
4000
C000
8000
8000
8000
8000
8000
8000
4000
6030
3060
0F80
ENDCHAR
STARTCHAR 0044
ENCODING 68
SWIDTH 630 0
DWIDTH 14 0
BBX 12 15 1 -1
BITMAP
BE00
8180
8040
8020
8030
8010
8010
8010
8010
8030
8020
8020
8040
8180
BE00
ENDCHAR
STARTCHAR 0045
ENCODING 69
SWIDTH 495 0
DWIDTH 11 0
BBX 10 15 1 0
BITMAP
BFC0
8000
8000
8000
8000
8000
8000
9FC0
8000
8000
8000
8000
8000
8000
BFC0
ENDCHAR
STARTCHAR 0046
ENCODING 70
SWIDTH 495 0
DWIDTH 11 0
BBX 10 15 1 0
BITMAP
BFC0
8000
8000
8000
8000
8000
BC00
8F80
8000
8000
8000
8000
8000
8000
8000
ENDCHAR
STARTCHAR 0047
ENCODING 71
SWIDTH 630 0
DWIDTH 14 0
BBX 12 16 1 -1
BITMAP
0F80
30E0
6030
4000
8000
8000
8000
81C0
8230
8010
8050
40D0
4090
3190
1F10
0010
ENDCHAR
STARTCHAR 0048
ENCODING 72
SWIDTH 540 0
DWIDTH 12 0
BBX 10 15 1 0
BITMAP
8040
8040
8040
8040
8040
8040
B840
8F40
8040
8040
8040
8040
8040
8040
8040
ENDCHAR
STARTCHAR 0049
ENCODING 73
SWIDTH 450 0
DWIDTH 10 0
BBX 9 16 0 0
BITMAP
FF00
0100
0800
0800
0800
0800
0800
0800
0800
0800
0800
0800
0800
0800
0000
7F80
ENDCHAR
STARTCHAR 004A
ENCODING 74
SWIDTH 360 0
DWIDTH 8 0
BBX 7 15 0 0
BITMAP
02
02
02
02
02
02
02
02
02
02
02
82
82
C4
38
ENDCHAR
STARTCHAR 004B
ENCODING 75
SWIDTH 540 0
DWIDTH 12 0
BBX 10 15 1 0
BITMAP
8000
8000
8000
8000
81C0
8300
8C00
8000
8000
8400
8600
8300
8180
8040
8000
ENDCHAR
STARTCHAR 004C
ENCODING 76
SWIDTH 495 0
DWIDTH 11 0
BBX 9 15 1 0
BITMAP
8000
8000
8000
8000
8000
8000
8000
8000
8000
8000
8000
8000
8000
8000
FF80
ENDCHAR
STARTCHAR 004D
ENCODING 77
SWIDTH 675 0
DWIDTH 15 0
BBX 13 15 1 -1
BITMAP
3020
3060
3060
3860
28E0
68B0
4490
4590
4510
4310
4318
C208
8008
8008
8008
ENDCHAR
STARTCHAR 004E
ENCODING 78
SWIDTH 540 0
DWIDTH 12 0
BBX 10 15 1 0
BITMAP
8040
A040
9040
9040
8840
8840
8440
8440
8240
8240
8140
8140
80C0
80C0
8040
ENDCHAR
STARTCHAR 004F
ENCODING 79
SWIDTH 630 0
DWIDTH 14 0
BBX 12 15 1 0
BITMAP
0F80
38C0
6060
4020
C020
8010
8010
8010
8010
8010
C030
4020
6060
38C0
0F80
ENDCHAR
STARTCHAR 0050
ENCODING 80
SWIDTH 495 0
DWIDTH 11 0
BBX 10 15 1 0
BITMAP
BE00
8180
80C0
8040
8040
8040
80C0
8180
BF00
8000
8000
8000
8000
8000
8000
ENDCHAR
STARTCHAR 0051
ENCODING 81
SWIDTH 630 0
DWIDTH 14 0
BBX 12 15 1 0
BITMAP
0F80
38C0
6060
4020
C030
8010
8010
8010
8010
8010
8030
4120
60E0
30F0
0F80
ENDCHAR
STARTCHAR 0052
ENCODING 82
SWIDTH 585 0
DWIDTH 13 0
BBX 11 15 1 0
BITMAP
BE00
8180
80C0
8040
8040
80C0
8180
BF00
8000
8000
8600
8300
80C0
8060
8000
ENDCHAR
STARTCHAR 0053
ENCODING 83
SWIDTH 540 0
DWIDTH 12 0
BBX 11 15 1 0
BITMAP
3F00
61C0
C060
8020
8000
8000
4000
3F00
01C0
0060
0020
0020
8060
61C0
3F00
ENDCHAR
STARTCHAR 0054
ENCODING 84
SWIDTH 540 0
DWIDTH 12 0
BBX 12 16 0 0
BITMAP
E000
3FF0
0000
0200
0200
0200
0200
0200
0200
0200
0200
0200
0200
0200
0200
0200
ENDCHAR
STARTCHAR 0055
ENCODING 85
SWIDTH 585 0
DWIDTH 13 0
BBX 11 15 1 0
BITMAP
8020
8020
8020
8020
8020
8020
8020
8020
8020
8020
8020
8060
4040
7180
1F00
ENDCHAR
STARTCHAR 0056
ENCODING 86
SWIDTH 540 0
DWIDTH 12 0
BBX 11 15 0 1
BITMAP
C020
4020
4060
6040
2040
20C0
1080
1080
1180
0900
0900
0F00
0600
0600
0400
ENDCHAR
STARTCHAR 0057
ENCODING 87
SWIDTH 675 0
DWIDTH 15 0
BBX 13 15 1 1
BITMAP
8008
8008
8008
8208
4218
4710
4510
4510
4C90
28B0
28A0
38E0
3060
3060
1060
ENDCHAR
STARTCHAR 0058
ENCODING 88
SWIDTH 630 0
DWIDTH 14 0
BBX 12 15 1 1
BITMAP
4030
2020
1060
1840
0880
0580
0700
0300
0700
0C80
08C0
1040
2020
4010
8010
ENDCHAR
STARTCHAR 0059
ENCODING 89
SWIDTH 585 0
DWIDTH 13 0
BBX 11 16 1 0
BITMAP
0020
8060
C0C0
6080
3100
0000
0400
0400
0400
0400
0400
0400
0400
0400
0400
0400
ENDCHAR
STARTCHAR 005A
ENCODING 90
SWIDTH 540 0
DWIDTH 12 0
BBX 12 15 0 0
BITMAP
FFE0
0060
0040
0080
0180
0300
0200
0400
0C00
0800
1000
3000
6000
4000
FFF0
ENDCHAR
STARTCHAR 005B
ENCODING 91
SWIDTH 225 0
DWIDTH 5 0
BBX 4 19 1 -2
BITMAP
F0
80
80
80
80
80
80
80
80
80
80
80
80
80
80
80
80
80
F0
ENDCHAR
STARTCHAR 005C
ENCODING 92
SWIDTH 315 0
DWIDTH 7 0
BBX 6 19 0 -1
BITMAP
80
C0
40
40
40
20
20
20
30
10
10
10
08
08
08
0C
04
04
04
ENDCHAR
STARTCHAR 005D
ENCODING 93
SWIDTH 270 0
DWIDTH 6 0
BBX 4 19 1 -2
BITMAP
F0
10
10
10
10
10
10
10
10
10
10
10
10
10
10
10
10
10
F0
ENDCHAR
STARTCHAR 005E
ENCODING 94
SWIDTH 405 0
DWIDTH 9 0
BBX 7 5 1 14
BITMAP
10
38
6C
C4
82
ENDCHAR
STARTCHAR 005F
ENCODING 95
SWIDTH 810 0
DWIDTH 18 0
BBX 16 1 1 1
BITMAP
FFFF
ENDCHAR
STARTCHAR 0060
ENCODING 96
SWIDTH 180 0
DWIDTH 4 0
BBX 2 3 0 16
BITMAP
C0
40
40
ENDCHAR
STARTCHAR 0061
ENCODING 97
SWIDTH 495 0
DWIDTH 11 0
BBX 10 9 1 0
BITMAP
3900
4D00
8100
8100
8100
8100
8100
4500
38C0
ENDCHAR
STARTCHAR 0062
ENCODING 98
SWIDTH 405 0
DWIDTH 9 0
BBX 8 15 1 0
BITMAP
80
80
80
80
80
80
BC
82
83
81
81
81
83
82
BC
ENDCHAR
STARTCHAR 0063
ENCODING 99
SWIDTH 450 0
DWIDTH 10 0
BBX 8 9 1 0
BITMAP
3C
63
C0
80
80
80
C0
63
3C
ENDCHAR
STARTCHAR 0064
ENCODING 100
SWIDTH 405 0
DWIDTH 9 0
BBX 8 15 0 0
BITMAP
01
01
01
01
01
01
3D
45
81
81
81
81
81
41
3D
ENDCHAR
STARTCHAR 0065
ENCODING 101
SWIDTH 450 0
DWIDTH 10 0
BBX 8 9 1 -1
BITMAP
3C
62
C1
81
BE
80
80
41
3E
ENDCHAR
STARTCHAR 0066
ENCODING 102
SWIDTH 450 0
DWIDTH 10 0
BBX 9 15 0 0
BITMAP
0380
0600
0400
0400
0400
0400
0780
FC00
0400
0400
0400
0400
0400
0400
0400
ENDCHAR
STARTCHAR 0067
ENCODING 103
SWIDTH 450 0
DWIDTH 10 0
BBX 8 15 1 -7
BITMAP
01
3D
45
81
81
81
81
C1
3D
01
01
01
83
C2
7E
ENDCHAR
STARTCHAR 0068
ENCODING 104
SWIDTH 360 0
DWIDTH 8 0
BBX 7 15 1 0
BITMAP
80
80
80
80
80
80
BC
86
82
82
82
82
82
82
82
ENDCHAR
STARTCHAR 0069
ENCODING 105
SWIDTH 135 0
DWIDTH 3 0
BBX 1 14 1 0
BITMAP
80
80
00
00
00
80
80
80
80
80
80
80
80
80
ENDCHAR
STARTCHAR 006A
ENCODING 106
SWIDTH 180 0
DWIDTH 4 0
BBX 3 20 0 -6
BITMAP
20
20
00
00
00
20
20
20
20
20
20
20
20
20
20
20
20
60
40
C0
ENDCHAR
STARTCHAR 006B
ENCODING 107
SWIDTH 405 0
DWIDTH 9 0
BBX 7 15 1 0
BITMAP
80
80
80
80
80
80
80
86
88
80
80
98
8C
82
80
ENDCHAR
STARTCHAR 006C
ENCODING 108
SWIDTH 135 0
DWIDTH 3 0
BBX 1 15 1 0
BITMAP
80
80
80
80
80
80
80
80
80
80
80
80
80
80
80
ENDCHAR
STARTCHAR 006D
ENCODING 109
SWIDTH 540 0
DWIDTH 12 0
BBX 10 9 1 1
BITMAP
BB80
8C40
8440
8440
8440
8440
8440
8440
8440
ENDCHAR
STARTCHAR 006E
ENCODING 110
SWIDTH 405 0
DWIDTH 9 0
BBX 7 9 1 0
BITMAP
BC
86
82
82
82
82
82
82
82
ENDCHAR
STARTCHAR 006F
ENCODING 111
SWIDTH 450 0
DWIDTH 10 0
BBX 8 9 1 0
BITMAP
3C
66
C2
81
81
81
83
66
3C
ENDCHAR
STARTCHAR 0070
ENCODING 112
SWIDTH 405 0
DWIDTH 9 0
BBX 8 15 1 -6
BITMAP
BC
A6
83
81
81
81
83
A6
9C
80
80
80
80
80
80
ENDCHAR
STARTCHAR 0071
ENCODING 113
SWIDTH 405 0
DWIDTH 9 0
BBX 8 15 0 -6
BITMAP
3D
45
81
81
81
81
81
45
3D
01
01
01
01
01
01
ENDCHAR
STARTCHAR 0072
ENCODING 114
SWIDTH 360 0
DWIDTH 8 0
BBX 6 9 1 0
BITMAP
80
80
9C
B0
80
80
80
80
80
ENDCHAR
STARTCHAR 0073
ENCODING 115
SWIDTH 450 0
DWIDTH 10 0
BBX 7 10 1 -2
BITMAP
7C
C6
82
80
7C
06
02
82
C6
3C
ENDCHAR
STARTCHAR 0074
ENCODING 116
SWIDTH 405 0
DWIDTH 9 0
BBX 8 15 0 0
BITMAP
08
08
08
08
08
0B
FF
88
08
08
08
08
08
0C
06
ENDCHAR
STARTCHAR 0075
ENCODING 117
SWIDTH 450 0
DWIDTH 10 0
BBX 8 9 1 0
BITMAP
81
81
81
81
81
81
81
C5
7D
ENDCHAR
STARTCHAR 0076
ENCODING 118
SWIDTH 405 0
DWIDTH 9 0
BBX 8 9 0 1
BITMAP
C1
41
43
62
22
34
14
1C
08
ENDCHAR
STARTCHAR 0077
ENCODING 119
SWIDTH 540 0
DWIDTH 12 0
BBX 10 10 1 0
BITMAP
8040
8C40
8C40
8C40
CC40
5A80
5280
5280
3100
2100
ENDCHAR
STARTCHAR 0078
ENCODING 120
SWIDTH 450 0
DWIDTH 10 0
BBX 7 9 1 0
BITMAP
02
04
44
2C
18
18
34
62
80
ENDCHAR
STARTCHAR 0079
ENCODING 121
SWIDTH 450 0
DWIDTH 10 0
BBX 8 15 1 -5
BITMAP
01
83
82
42
66
24
04
08
08
10
30
20
60
40
80
ENDCHAR
STARTCHAR 007A
ENCODING 122
SWIDTH 450 0
DWIDTH 10 0
BBX 8 9 1 0
BITMAP
FE
06
04
08
18
30
60
40
FF
ENDCHAR
STARTCHAR 007B
ENCODING 123
SWIDTH 315 0
DWIDTH 7 0
BBX 7 19 0 -2
BITMAP
1E
10
10
10
10
10
10
10
10
E0
30
10
10
10
10
10
10
10
1E
ENDCHAR
STARTCHAR 007C
ENCODING 124
SWIDTH 135 0
DWIDTH 3 0
BBX 1 20 1 -2
BITMAP
80
80
80
80
80
80
80
80
80
80
80
80
80
80
80
80
80
80
80
80
ENDCHAR
STARTCHAR 007D
ENCODING 125
SWIDTH 315 0
DWIDTH 7 0
BBX 7 19 0 -2
BITMAP
F0
10
10
10
10
10
10
10
10
0E
10
10
10
10
10
10
10
10
F0
ENDCHAR
STARTCHAR 007E
ENCODING 126
SWIDTH 495 0
DWIDTH 11 0
BBX 11 2 0 9
BITMAP
3C20
C3C0
ENDCHAR
STARTCHAR 00A5
ENCODING 165
SWIDTH 540 0
DWIDTH 12 0
BBX 12 17 0 0
BITMAP
20C0
3080
0000
0000
FFF0
0000
0400
0400
0400
FFF0
0400
0400
0400
0400
0400
0400
0400
ENDCHAR
STARTCHAR 00A9
ENCODING 169
SWIDTH 900 0
DWIDTH 20 0
BBX 18 18 1 -2
BITMAP
03F000
0E1C00
100600
200100
400180
41E080
8330C0
840040
840040
840040
840040
8210C0
C1E080
400080
200100
300200
0C0C00
07F000
ENDCHAR
STARTCHAR 00B0
ENCODING 176
SWIDTH 315 0
DWIDTH 7 0
BBX 5 5 1 13
BITMAP
70
D8
88
98
70
ENDCHAR
STARTCHAR 00B7
ENCODING 183
SWIDTH 855 0
DWIDTH 19 0
BBX 1 2 9 9
BITMAP
80
80
ENDCHAR
STARTCHAR 2014
ENCODING 8212
SWIDTH 855 0
DWIDTH 19 0
BBX 19 1 0 8
BITMAP
FFFFE0
ENDCHAR
STARTCHAR 2018
ENCODING 8216
SWIDTH 900 0
DWIDTH 20 0
BBX 2 3 17 15
BITMAP
40
40
80
ENDCHAR
STARTCHAR 2019
ENCODING 8217
SWIDTH 900 0
DWIDTH 20 0
BBX 1 2 1 16
BITMAP
80
80
ENDCHAR
STARTCHAR 201C
ENCODING 8220
SWIDTH 855 0
DWIDTH 19 0
BBX 4 3 14 15
BITMAP
50
50
90
ENDCHAR
STARTCHAR 201D
ENCODING 8221
SWIDTH 855 0
DWIDTH 19 0
BBX 4 3 1 15
BITMAP
50
A0
A0
ENDCHAR
STARTCHAR 2022
ENCODING 8226
SWIDTH 855 0
DWIDTH 19 0
BBX 1 2 9 9
BITMAP
80
80
ENDCHAR
STARTCHAR 2026
ENCODING 8230
SWIDTH 855 0
DWIDTH 19 0
BBX 17 2 1 9
BITMAP
808080
808080
ENDCHAR
STARTCHAR 205D
ENCODING 8285
SWIDTH 900 0
DWIDTH 20 0
BBX 2 17 9 0
BITMAP
C0
00
00
00
00
00
00
00
C0
00
00
00
00
00
00
00
C0
ENDCHAR
STARTCHAR 20AC
ENCODING 8364
SWIDTH 810 0
DWIDTH 18 0
BBX 18 18 0 0
BITMAP
00F000
010C00
020600
040200
040000
080000
7C0000
0BFE00
080180
080000
FFFFC0
080000
0C0000
040000
040000
020200
030C00
00F000
ENDCHAR
STARTCHAR 2122
ENCODING 8482
SWIDTH 900 0
DWIDTH 20 0
BBX 18 8 1 11
BITMAP
FEBB80
008EC0
108440
108440
108440
108440
108440
108440
ENDCHAR
STARTCHAR 22EF
ENCODING 8943
SWIDTH 855 0
DWIDTH 19 0
BBX 17 2 1 9
BITMAP
808080
808080
ENDCHAR
STARTCHAR 2F00
ENCODING 12032
SWIDTH 900 0
DWIDTH 20 0
BBX 15 1 2 7
BITMAP
FFFE
ENDCHAR
STARTCHAR 2F01
ENCODING 12033
SWIDTH 855 0
DWIDTH 19 0
BBX 1 15 9 0
BITMAP
80
80
80
80
80
80
80
80
80
80
80
80
80
80
80
ENDCHAR
STARTCHAR 2F02
ENCODING 12034
SWIDTH 900 0
DWIDTH 20 0
BBX 5 3 7 7
BITMAP
C0
30
18
ENDCHAR
STARTCHAR 2F03
ENCODING 12035
SWIDTH 900 0
DWIDTH 20 0
BBX 4 18 8 -2
BITMAP
10
10
10
10
10
10
30
30
20
20
20
20
60
40
40
40
80
80
ENDCHAR
STARTCHAR 2F04
ENCODING 12036
SWIDTH 900 0
DWIDTH 20 0
BBX 15 15 3 0
BITMAP
FFE0
0030
0060
00C0
0180
0100
0200
0400
0C00
1800
3000
6000
4004
8006
FFFE
ENDCHAR
STARTCHAR 2F06
ENCODING 12038
SWIDTH 900 0
DWIDTH 20 0
BBX 14 15 3 0
BITMAP
7FF0
0000
0000
0000
0000
0000
0000
0000
0000
0000
0000
0000
0000
0000
FFFC
ENDCHAR
STARTCHAR 2F07
ENCODING 12039
SWIDTH 900 0
DWIDTH 20 0
BBX 16 4 2 13
BITMAP
0100
0100
0000
FFFF
ENDCHAR
STARTCHAR 2F08
ENCODING 12040
SWIDTH 900 0
DWIDTH 20 0
BBX 12 16 4 0
BITMAP
0200
0200
0600
0400
0400
0400
0800
0800
1800
1000
1000
30C0
2070
4000
4000
8000
ENDCHAR
STARTCHAR 2F09
ENCODING 12041
SWIDTH 855 0
DWIDTH 19 0
BBX 13 18 3 -2
BITMAP
1000
1000
1080
1080
1080
1080
3080
3080
2080
2080
2080
2080
6080
4080
4088
C0F8
8000
8000
ENDCHAR
STARTCHAR 2F0A
ENCODING 12042
SWIDTH 900 0
DWIDTH 20 0
BBX 14 17 3 1
BITMAP
0200
0200
0200
0100
0100
0D00
0980
0880
08C0
1040
1040
3020
2020
6010
4018
C008
8004
ENDCHAR
STARTCHAR 2F0B
ENCODING 12043
SWIDTH 900 0
DWIDTH 20 0
BBX 15 18 2 -2
BITMAP
0040
0040
0640
0460
0420
0420
0420
0C20
0810
0810
0810
1818
1008
3008
200C
2004
4006
C002
ENDCHAR
STARTCHAR 2F0C
ENCODING 12044
SWIDTH 855 0
DWIDTH 19 0
BBX 13 18 3 -3
BITMAP
BFF8
8008
8008
8008
8008
8008
8008
8008
8008
8008
8008
8008
8008
8008
8008
8008
8008
8018
ENDCHAR
STARTCHAR 2F0D
ENCODING 12045
SWIDTH 900 0
DWIDTH 20 0
BBX 14 5 3 13
BITMAP
8000
BFFC
8004
8004
8004
ENDCHAR
STARTCHAR 2F0E
ENCODING 12046
SWIDTH 900 0
DWIDTH 20 0
BBX 3 14 4 1
BITMAP
C0
40
00
00
00
00
00
00
00
00
00
20
C0
80
ENDCHAR
STARTCHAR 2F0F
ENCODING 12047
SWIDTH 900 0
DWIDTH 20 0
BBX 15 17 2 -2
BITMAP
17C0
1040
1040
1040
1040
3040
3040
2040
2040
2040
2040
6040
4040
4042
407E
8000
8000
ENDCHAR
STARTCHAR 2F10
ENCODING 12048
SWIDTH 900 0
DWIDTH 20 0
BBX 14 14 3 -1
BITMAP
8004
8004
8004
8004
8004
8004
8004
8004
8004
8004
8004
8004
8004
FFFC
ENDCHAR
STARTCHAR 2F11
ENCODING 12049
SWIDTH 900 0
DWIDTH 20 0
BBX 12 17 4 -2
BITMAP
FFF0
0010
0010
0010
0810
1810
1810
1010
1010
3010
2010
2010
6010
4070
C000
8000
8000
ENDCHAR
STARTCHAR 2F12
ENCODING 12050
SWIDTH 900 0
DWIDTH 20 0
BBX 12 19 4 -1
BITMAP
0400
0400
0400
0400
0C00
FFF0
0810
0810
0810
1810
1010
1010
1010
2010
2010
6070
4000
C000
8000
ENDCHAR
STARTCHAR 2F13
ENCODING 12051
SWIDTH 855 0
DWIDTH 19 0
BBX 13 18 3 -1
BITMAP
1000
3000
2000
47F8
C008
8008
0008
0008
0008
0008
0008
0008
0008
0008
0008
0008
0008
0038
ENDCHAR
STARTCHAR 2F14
ENCODING 12052
SWIDTH 900 0
DWIDTH 20 0
BBX 12 15 4 0
BITMAP
8000
8000
8000
8020
80E0
8700
8000
8000
8000
8000
8000
8000
8000
8010
FFF0
ENDCHAR
STARTCHAR 2F15
ENCODING 12053
SWIDTH 855 0
DWIDTH 19 0
BBX 13 18 3 -2
BITMAP
FFF8
8000
8000
8000
8000
8000
8000
8000
8000
8000
8000
8000
8000
8000
8000
8000
8000
FFF8
ENDCHAR
STARTCHAR 2F17
ENCODING 12055
SWIDTH 900 0
DWIDTH 20 0
BBX 14 19 3 -1
BITMAP
0100
0100
0100
0100
0100
0100
0100
0100
FFFC
0100
0100
0100
0100
0100
0100
0100
0100
0100
0100
ENDCHAR
STARTCHAR 2F18
ENCODING 12056
SWIDTH 855 0
DWIDTH 19 0
BBX 7 18 6 -1
BITMAP
80
80
80
80
80
80
90
8C
82
80
80
80
80
80
80
80
80
80
ENDCHAR
STARTCHAR 2F19
ENCODING 12057
SWIDTH 855 0
DWIDTH 19 0
BBX 6 15 12 0
BITMAP
FC
04
04
84
84
84
84
84
84
8C
80
80
80
80
80
ENDCHAR
STARTCHAR 2F1A
ENCODING 12058
SWIDTH 855 0
DWIDTH 19 0
BBX 14 18 2 -2
BITMAP
3FFC
0000
2000
2000
2000
2000
2000
2000
2000
2000
2000
6000
6000
4000
4000
4000
4000
8000
ENDCHAR
STARTCHAR 2F1B
ENCODING 12059
SWIDTH 900 0
DWIDTH 20 0
BBX 14 14 3 2
BITMAP
0C00
0800
0800
1800
1000
3000
2000
2040
6060
4030
C010
C018
9F0C
F804
ENDCHAR
STARTCHAR 2F1C
ENCODING 12060
SWIDTH 855 0
DWIDTH 19 0
BBX 14 15 2 -1
BITMAP
3FF8
0018
0018
0010
0030
0860
0640
03C0
0180
0360
0630
0C18
1804
2000
C000
ENDCHAR
STARTCHAR 2F1D
ENCODING 12061
SWIDTH 900 0
DWIDTH 20 0
BBX 12 14 4 0
BITMAP
FFF0
8010
8010
8010
8010
8010
8010
8010
8010
8010
8010
8010
8010
FFF0
ENDCHAR
STARTCHAR 2F1E
ENCODING 12062
SWIDTH 900 0
DWIDTH 20 0
BBX 14 19 3 -2
BITMAP
FFFC
8004
8004
8004
8004
8004
8004
8004
8004
8004
8004
8004
8004
8004
8004
8004
8004
8004
FFFC
ENDCHAR
STARTCHAR 2F1F
ENCODING 12063
SWIDTH 855 0
DWIDTH 19 0
BBX 15 17 2 0
BITMAP
0100
0100
0100
0100
0100
0100
1FF8
0100
0100
0100
0100
0100
0100
0100
0000
0000
FFFE
ENDCHAR
STARTCHAR 2F20
ENCODING 12064
SWIDTH 900 0
DWIDTH 20 0
BBX 14 17 3 0
BITMAP
0100
0100
0100
0100
0100
0100
0100
FFFC
0100
0100
0100
0100
0100
0100
0000
0000
1FF0
ENDCHAR
STARTCHAR 2F21
ENCODING 12065
SWIDTH 900 0
DWIDTH 20 0
BBX 13 18 3 -1
BITMAP
3000
2000
6000
C7E0
8030
0020
0060
0040
18C0
0E80
0380
03E0
0618
0C00
1800
3000
6000
8000
ENDCHAR
STARTCHAR 2F23
ENCODING 12067
SWIDTH 900 0
DWIDTH 20 0
BBX 12 18 4 -1
BITMAP
3000
2000
6000
C7E0
8030
0020
0020
2040
38C0
0880
0180
0300
0600
0C00
1800
3000
6000
8000
ENDCHAR
STARTCHAR 2F24
ENCODING 12068
SWIDTH 900 0
DWIDTH 20 0
BBX 14 17 3 -1
BITMAP
0200
0200
0200
0600
0400
0400
FFFC
0400
0C00
0800
0800
18C0
1038
3000
2000
4000
4000
ENDCHAR
STARTCHAR 2F25
ENCODING 12069
SWIDTH 855 0
DWIDTH 19 0
BBX 13 18 3 -1
BITMAP
0400
0400
0400
0800
FFF8
0800
1880
1080
1180
3100
1D00
0300
06E0
0C38
0800
1000
6000
C000
ENDCHAR
STARTCHAR 2F26
ENCODING 12070
SWIDTH 900 0
DWIDTH 20 0
BBX 14 17 3 -3
BITMAP
1FF0
0020
0060
0040
00C0
0180
0100
0100
FFFC
0100
0100
0100
0100
0100
0100
0100
0700
ENDCHAR
STARTCHAR 2F27
ENCODING 12071
SWIDTH 900 0
DWIDTH 20 0
BBX 14 6 3 12
BITMAP
0100
0100
BFFC
8004
8004
8004
ENDCHAR
STARTCHAR 2F28
ENCODING 12072
SWIDTH 855 0
DWIDTH 19 0
BBX 13 18 3 -1
BITMAP
0040
0040
0040
0040
0040
FFF8
0040
0040
0040
0040
1040
0840
0040
0040
0040
0040
01C0
0040
ENDCHAR
STARTCHAR 2F29
ENCODING 12073
SWIDTH 855 0
DWIDTH 19 0
BBX 15 15 2 -1
BITMAP
0100
0100
0100
0100
0100
0100
0108
210C
4102
8100
0100
0100
0100
0100
0700
ENDCHAR
STARTCHAR 2F2A
ENCODING 12074
SWIDTH 855 0
DWIDTH 19 0
BBX 14 18 3 -1
BITMAP
0400
0400
0400
0400
0400
FFF8
0800
0800
0800
0880
1880
1080
1080
3080
2088
20FC
4000
4000
ENDCHAR
STARTCHAR 2F2B
ENCODING 12075
SWIDTH 900 0
DWIDTH 20 0
BBX 14 16 3 -1
BITMAP
27FC
2004
2004
2004
2004
27FC
2000
2000
2000
6000
4000
4000
4000
C000
8000
8000
ENDCHAR
STARTCHAR 2F2C
ENCODING 12076
SWIDTH 900 0
DWIDTH 20 0
BBX 12 19 4 -1
BITMAP
0400
0400
0400
0400
0400
8410
8410
8410
8410
8410
8410
FFF0
0400
0400
0400
0400
0400
0400
0400
ENDCHAR
STARTCHAR 2F2D
ENCODING 12077
SWIDTH 855 0
DWIDTH 19 0
BBX 13 16 3 0
BITMAP
0200
0200
0200
0200
0200
8208
8208
8208
8208
8208
8208
8208
8208
8008
8008
FFF8
ENDCHAR
STARTCHAR 2F2E
ENCODING 12078
SWIDTH 900 0
DWIDTH 20 0
BBX 14 15 3 0
BITMAP
210C
2108
2108
4318
4210
4210
8430
8420
8430
4210
4210
4218
2108
2108
200C
ENDCHAR
STARTCHAR 2F2F
ENCODING 12079
SWIDTH 900 0
DWIDTH 20 0
BBX 15 15 2 0
BITMAP
3FFC
0000
0000
0000
0100
0100
0100
0100
0100
0100
0100
0100
0000
0000
FFFE
ENDCHAR
STARTCHAR 2F30
ENCODING 12080
SWIDTH 900 0
DWIDTH 20 0
BBX 13 16 3 -2
BITMAP
FFE0
0020
0020
0020
0020
0020
7FE0
4000
4000
4000
4000
4000
4000
4000
4008
7FF8
ENDCHAR
STARTCHAR 2F31
ENCODING 12081
SWIDTH 855 0
DWIDTH 19 0
BBX 13 19 3 -2
BITMAP
0200
0200
0200
0200
FFF8
8208
8208
8208
8208
8208
8208
8208
8238
8200
0200
0200
0200
0200
0200
ENDCHAR
STARTCHAR 2F32
ENCODING 12082
SWIDTH 855 0
DWIDTH 19 0
BBX 15 18 2 -2
BITMAP
3FF8
0000
0000
0100
0100
0100
0100
FFFE
0100
0100
0100
0100
0100
0100
0100
0100
0100
0100
ENDCHAR
STARTCHAR 2F33
ENCODING 12083
SWIDTH 900 0
DWIDTH 20 0
BBX 14 18 3 1
BITMAP
1000
3000
2000
2000
4000
4040
80C0
FD80
F100
0300
0600
0400
0800
1810
1018
2008
6FC4
7C00
ENDCHAR
STARTCHAR 2F34
ENCODING 12084
SWIDTH 900 0
DWIDTH 20 0
BBX 15 18 3 -1
BITMAP
0080
0080
0000
3FFE
0000
2000
2000
2000
2000
2000
2000
6000
4000
4000
4000
4000
8000
8000
ENDCHAR
STARTCHAR 2F35
ENCODING 12085
SWIDTH 900 0
DWIDTH 20 0
BBX 16 16 2 -1
BITMAP
F800
1000
1000
3000
2000
6000
7800
0800
1800
9800
D000
7000
6000
7800
4FFF
8000
ENDCHAR
STARTCHAR 2F36
ENCODING 12086
SWIDTH 900 0
DWIDTH 20 0
BBX 14 16 3 -2
BITMAP
0840
0840
0840
0840
0840
1840
FFFC
1040
1040
1040
1040
2040
2040
2040
2000
4000
ENDCHAR
STARTCHAR 2F37
ENCODING 12087
SWIDTH 900 0
DWIDTH 20 0
BBX 14 19 3 -2
BITMAP
0400
0420
0430
0400
0400
067C
3FE0
E200
0200
0300
0100
0180
0180
0080
00C0
0060
0070
003C
0018
ENDCHAR
STARTCHAR 2F38
ENCODING 12088
SWIDTH 900 0
DWIDTH 20 0
BBX 12 17 4 -1
BITMAP
FFE0
0020
0020
0020
0020
7FE0
4000
4000
4000
4000
7FF0
0010
0010
0010
0010
0010
0070
ENDCHAR
STARTCHAR 2F39
ENCODING 12089
SWIDTH 900 0
DWIDTH 20 0
BBX 12 15 4 0
BITMAP
FFF0
0010
0010
0010
0010
0010
0010
7F10
0010
0010
0010
0010
0010
0010
FFF0
ENDCHAR
STARTCHAR 2F3A
ENCODING 12090
SWIDTH 855 0
DWIDTH 19 0
BBX 11 16 4 1
BITMAP
0080
0380
0600
1C00
3000
4000
0000
01E0
1F80
3000
0000
0000
0040
03C0
1E00
E000
ENDCHAR
STARTCHAR 2F3B
ENCODING 12091
SWIDTH 900 0
DWIDTH 20 0
BBX 5 16 3 0
BITMAP
30
20
60
80
00
18
30
E0
00
20
20
20
20
20
20
20
ENDCHAR
STARTCHAR 2F3C
ENCODING 12092
SWIDTH 855 0
DWIDTH 19 0
BBX 15 15 2 1
BITMAP
0080
0040
0000
0400
0400
0400
0404
4406
C400
8400
0400
0400
0400
0410
07F0
ENDCHAR
STARTCHAR 2F3D
ENCODING 12093
SWIDTH 900 0
DWIDTH 20 0
BBX 15 17 2 1
BITMAP
0200
0220
0210
0200
0300
033E
1FC0
E100
0186
008C
00F0
00E0
03E0
0E20
7030
001C
000C
ENDCHAR
STARTCHAR 2F3F
ENCODING 12095
SWIDTH 900 0
DWIDTH 20 0
BBX 14 17 3 -1
BITMAP
0070
3FF0
0000
0100
0100
0100
1FC0
0100
0100
0100
FFFC
0100
0100
0100
0100
0100
0700
ENDCHAR
STARTCHAR 2F40
ENCODING 12096
SWIDTH 855 0
DWIDTH 19 0
BBX 13 19 3 -2
BITMAP
0200
0200
0200
FFF8
0200
0200
0200
0000
3FC0
0040
00C0
0080
1D80
0700
07C0
0C20
1800
3000
4000
ENDCHAR
STARTCHAR 2F41
ENCODING 12097
SWIDTH 900 0
DWIDTH 20 0
BBX 12 19 4 -2
BITMAP
0400
0400
0400
05F0
0400
0400
0400
0000
7FC0
0040
0080
0080
1D00
0700
07C0
0C00
1800
6000
C000
ENDCHAR
STARTCHAR 2F42
ENCODING 12098
SWIDTH 855 0
DWIDTH 19 0
BBX 13 18 3 -2
BITMAP
0200
0200
0200
0000
FFF8
0000
0000
0080
0180
1100
0E00
0600
0780
0CC0
1830
1010
2000
4000
ENDCHAR
STARTCHAR 2F43
ENCODING 12099
SWIDTH 900 0
DWIDTH 20 0
BBX 15 17 3 0
BITMAP
0040
0040
0040
0C40
0440
0040
2040
0040
0040
07FE
FC40
0040
0040
0040
0040
0040
0040
ENDCHAR
STARTCHAR 2F44
ENCODING 12100
SWIDTH 900 0
DWIDTH 20 0
BBX 14 17 3 0
BITMAP
03E0
0C00
2000
2000
2000
2000
2000
67FC
4000
4040
4040
4040
8040
8040
8040
0040
0040
ENDCHAR
STARTCHAR 2F45
ENCODING 12101
SWIDTH 900 0
DWIDTH 20 0
BBX 14 19 3 -3
BITMAP
0100
0100
0000
0000
FFFC
0000
0800
0800
0800
19F0
1810
1010
1010
1010
3010
2010
2070
4000
4000
ENDCHAR
STARTCHAR 2F46
ENCODING 12102
SWIDTH 855 0
DWIDTH 19 0
BBX 15 17 2 -2
BITMAP
3FF0
0000
0100
0100
0300
0200
0200
FFFC
0400
0440
0C40
0840
1840
1040
3042
207E
4000
ENDCHAR
STARTCHAR 2F47
ENCODING 12103
SWIDTH 855 0
DWIDTH 19 0
BBX 11 15 4 0
BITMAP
FFE0
8020
8020
8020
8020
8020
9F20
8020
8020
8020
8020
8020
8020
8020
FFE0
ENDCHAR
STARTCHAR 2F48
ENCODING 12104
SWIDTH 855 0
DWIDTH 19 0
BBX 11 15 4 0
BITMAP
FFE0
8020
8020
8020
8020
8020
8020
FE20
8020
8020
8020
8020
8020
8020
FFE0
ENDCHAR
STARTCHAR 2F49
ENCODING 12105
SWIDTH 855 0
DWIDTH 19 0
BBX 13 17 3 -3
BITMAP
13F8
1008
1008
1008
13C8
1008
1008
1008
1008
33C8
2008
2008
2008
2038
4000
4000
C000
ENDCHAR
STARTCHAR 2F4A
ENCODING 12106
SWIDTH 855 0
DWIDTH 19 0
BBX 13 18 3 -1
BITMAP
0200
0200
0200
0200
0200
FFF8
0200
0200
0200
0200
0200
6230
C208
8200
0200
0200
0200
0200
ENDCHAR
STARTCHAR 2F4B
ENCODING 12107
SWIDTH 855 0
DWIDTH 19 0
BBX 11 17 4 -1
BITMAP
2000
6000
4000
C3E0
8020
0020
0040
0400
0400
0400
0800
0800
1000
10C0
2060
4000
4000
ENDCHAR
STARTCHAR 2F4C
ENCODING 12108
SWIDTH 855 0
DWIDTH 19 0
BBX 15 17 2 0
BITMAP
0080
0080
0080
0080
0080
1080
1080
10BC
1080
1080
1080
1080
1080
1080
1080
0000
FFFE
ENDCHAR
STARTCHAR 2F4D
ENCODING 12109
SWIDTH 900 0
DWIDTH 20 0
BBX 14 18 3 -2
BITMAP
FFFC
0000
0000
0800
1800
1000
23F0
0030
0020
0860
0C40
0080
0100
0300
0600
0800
3000
4000
ENDCHAR
STARTCHAR 2F4E
ENCODING 12110
SWIDTH 855 0
DWIDTH 19 0
BBX 12 19 4 -2
BITMAP
1F80
0080
2080
2080
2080
4080
40F0
4000
0000
3FC0
00C0
0080
2180
1F00
0780
0C70
1800
3000
C000
ENDCHAR
STARTCHAR 2F4F
ENCODING 12111
SWIDTH 855 0
DWIDTH 19 0
BBX 15 18 2 -3
BITMAP
1FF8
1008
1008
1088
1088
1088
FFFE
1188
1188
1108
1108
1308
1FFE
0608
0408
0838
1018
2000
ENDCHAR
STARTCHAR 2F50
ENCODING 12112
SWIDTH 900 0
DWIDTH 20 0
BBX 14 16 3 -1
BITMAP
8100
8100
8100
8100
8100
8118
B930
8100
8100
8100
8100
8100
8100
8104
F1FC
4000
ENDCHAR
STARTCHAR 2F51
ENCODING 12113
SWIDTH 855 0
DWIDTH 19 0
BBX 15 17 2 1
BITMAP
07F0
7E00
0000
0200
0200
0200
3FF0
0200
0200
0200
03FC
FF00
0200
0200
0200
0202
03FE
ENDCHAR
STARTCHAR 2F52
ENCODING 12114
SWIDTH 900 0
DWIDTH 20 0
BBX 12 19 4 -3
BITMAP
01E0
7F80
0000
0000
8100
8100
8100
8100
BFF0
8180
8080
8080
8080
80C0
8040
8040
E060
8030
0030
ENDCHAR
STARTCHAR 2F53
ENCODING 12115
SWIDTH 900 0
DWIDTH 20 0
BBX 15 19 2 -2
BITMAP
1000
3000
27FC
4000
C000
0FF0
0000
0000
3FF8
0008
0008
0008
0008
0008
0008
0008
000C
0006
0006
ENDCHAR
STARTCHAR 2F54
ENCODING 12116
SWIDTH 900 0
DWIDTH 20 0
BBX 16 17 2 0
BITMAP
0080
0080
0080
0080
0080
0084
7C88
0480
0C80
0890
108C
3087
6080
C080
0080
0380
0080
ENDCHAR
STARTCHAR 2F55
ENCODING 12117
SWIDTH 900 0
DWIDTH 20 0
BBX 12 16 4 -1
BITMAP
0400
0400
0400
0400
8460
CC40
0800
0800
0800
1800
1000
10C0
30F0
2000
6000
4000
ENDCHAR
STARTCHAR 2F56
ENCODING 12118
SWIDTH 855 0
DWIDTH 19 0
BBX 15 17 2 -1
BITMAP
0078
07C0
1000
1000
1030
1110
1110
1118
3108
2108
210C
2104
2104
6106
4102
4002
8000
ENDCHAR
STARTCHAR 2F57
ENCODING 12119
SWIDTH 900 0
DWIDTH 20 0
BBX 13 17 3 0
BITMAP
0060
6030
4018
C000
0000
0080
0080
0180
1D00
0700
03C0
0460
0C18
1800
3000
6000
8000
ENDCHAR
STARTCHAR 2F58
ENCODING 12120
SWIDTH 900 0
DWIDTH 20 0
BBX 14 20 2 -1
BITMAP
0020
0060
0C40
0780
01C0
0370
0618
1800
1010
0030
1020
0C60
03C0
01C0
0330
060C
0C00
1800
6000
8000
ENDCHAR
STARTCHAR 2F59
ENCODING 12121
SWIDTH 900 0
DWIDTH 20 0
BBX 12 18 4 -3
BITMAP
0010
1010
1010
1010
1010
1F90
0010
0010
0010
FF90
0010
0810
0810
1810
1010
1010
3010
2010
ENDCHAR
STARTCHAR 2F5A
ENCODING 12122
SWIDTH 900 0
DWIDTH 20 0
BBX 14 19 3 -1
BITMAP
0080
2080
2080
2080
2080
2000
2000
27FC
2000
2000
2000
67F0
6010
4010
4010
4010
C010
8010
8000
ENDCHAR
STARTCHAR 2F5B
ENCODING 12123
SWIDTH 900 0
DWIDTH 20 0
BBX 14 17 3 -2
BITMAP
FFFC
0000
0040
2040
2040
2040
2040
3FFC
0040
0040
0040
1040
3040
6040
4040
8040
01C0
ENDCHAR
STARTCHAR 2F5C
ENCODING 12124
SWIDTH 855 0
DWIDTH 19 0
BBX 15 19 2 -1
BITMAP
0080
0080
0080
1080
1080
37F8
2080
4080
0080
0080
0080
FFFE
0080
0080
0080
0080
0080
0080
0080
ENDCHAR
STARTCHAR 2F5D
ENCODING 12125
SWIDTH 900 0
DWIDTH 20 0
BBX 14 17 3 -1
BITMAP
0100
0100
0110
0310
0310
0200
0200
FFFC
0600
0400
0400
0C00
0878
180C
1000
3000
2000
ENDCHAR
STARTCHAR 2F5E
ENCODING 12126
SWIDTH 855 0
DWIDTH 19 0
BBX 15 18 2 -1
BITMAP
0100
0100
0000
FFFE
0000
0400
0C00
0800
1820
3040
3EC0
0180
0300
0600
0410
0808
1064
3FC0
ENDCHAR
STARTCHAR 2F5F
ENCODING 12127
SWIDTH 900 0
DWIDTH 20 0
BBX 14 15 3 0
BITMAP
7FFC
0000
0100
0100
0100
0100
3FF0
0100
0100
0100
0130
0100
0000
0000
FFFC
ENDCHAR
STARTCHAR 2F60
ENCODING 12128
SWIDTH 900 0
DWIDTH 20 0
BBX 14 17 3 -1
BITMAP
00F8
1FC0
0000
2000
2000
2210
2210
2210
2210
2610
2618
6408
4408
4468
4528
C624
8000
ENDCHAR
STARTCHAR 2F61
ENCODING 12129
SWIDTH 900 0
DWIDTH 20 0
BBX 14 15 3 0
BITMAP
FFFC
1000
1000
17E0
1020
1020
1020
1020
1620
1220
1020
1020
1024
1C24
103C
ENDCHAR
STARTCHAR 2F62
ENCODING 12130
SWIDTH 855 0
DWIDTH 19 0
BBX 15 18 2 0
BITMAP
0810
0810
0810
0810
FFFE
0810
0810
0810
0810
0810
0BD0
0810
0810
0810
0810
0810
0810
0FF0
ENDCHAR
STARTCHAR 2F63
ENCODING 12131
SWIDTH 900 0
DWIDTH 20 0
BBX 14 18 3 0
BITMAP
0100
0100
0100
6100
4100
CFF0
8100
0100
0100
0100
3FE0
0100
0100
0100
0100
0000
0000
FFFC
ENDCHAR
STARTCHAR 2F64
ENCODING 12132
SWIDTH 900 0
DWIDTH 20 0
BBX 14 17 3 -3
BITMAP
27FC
2004
2104
2104
2104
27E4
2104
2104
2104
47E4
4104
4104
4104
4104
811C
800C
8000
ENDCHAR
STARTCHAR 2F65
ENCODING 12133
SWIDTH 900 0
DWIDTH 20 0
BBX 12 15 4 0
BITMAP
FFF0
8010
8010
8410
8410
8410
8410
BF90
8410
8410
8410
8010
8010
8010
FFF0
ENDCHAR
STARTCHAR 2F66
ENCODING 12134
SWIDTH 900 0
DWIDTH 20 0
BBX 15 17 3 -1
BITMAP
FFFC
0004
0004
0104
0100
0100
0100
0100
0178
2100
6100
4100
4100
D100
8800
8600
83FE
ENDCHAR
STARTCHAR 2F67
ENCODING 12135
SWIDTH 900 0
DWIDTH 20 0
BBX 17 19 1 -2
BITMAP
002000
002000
000000
0FFF80
000000
040000
440000
240000
040000
040000
0C0000
080000
680000
880000
080000
100000
100000
100000
200000
ENDCHAR
STARTCHAR 2F69
ENCODING 12137
SWIDTH 900 0
DWIDTH 20 0
BBX 11 18 5 0
BITMAP
0800
1000
0000
0000
FFE0
8020
8020
8020
8020
8020
9E20
8020
8020
8020
8020
8020
8020
FFE0
ENDCHAR
STARTCHAR 2F6A
ENCODING 12138
SWIDTH 900 0
DWIDTH 20 0
BBX 15 19 2 -3
BITMAP
0080
0080
0080
3FFC
0084
2084
2084
2084
2000
2FF0
2010
6030
4020
43E0
40F0
C19C
8302
0E00
1800
ENDCHAR
STARTCHAR 2F6B
ENCODING 12139
SWIDTH 900 0
DWIDTH 20 0
BBX 16 12 2 1
BITMAP
3FF8
2008
2248
2248
2248
2248
2248
2248
2248
2008
0000
FFFF
ENDCHAR
STARTCHAR 2F6C
ENCODING 12140
SWIDTH 900 0
DWIDTH 20 0
BBX 10 15 5 0
BITMAP
FFC0
8040
8040
8040
9E40
8040
8040
8040
8040
9E40
8040
8040
8040
8040
FFC0
ENDCHAR
STARTCHAR 2F6D
ENCODING 12141
SWIDTH 855 0
DWIDTH 19 0
BBX 13 18 3 -1
BITMAP
1FE0
0040
0040
0080
0600
0300
0000
FFF8
0008
0108
0108
1100
2100
6100
8100
0100
0700
0100
ENDCHAR
STARTCHAR 2F6E
ENCODING 12142
SWIDTH 900 0
DWIDTH 20 0
BBX 14 18 3 -1
BITMAP
1800
1000
33F8
2000
0000
0180
0100
0100
FFFC
0200
0200
0600
0470
0C08
1800
1000
3000
2000
ENDCHAR
STARTCHAR 2F6F
ENCODING 12143
SWIDTH 855 0
DWIDTH 19 0
BBX 14 15 2 0
BITMAP
7FFC
0000
0600
0400
0C00
1800
3000
67F8
C408
0408
0408
0408
0408
0408
07F8
ENDCHAR
STARTCHAR 2F70
ENCODING 12144
SWIDTH 855 0
DWIDTH 19 0
BBX 15 17 2 -2
BITMAP
3FF0
0000
0000
0000
0000
FFFC
0000
0000
0100
0100
0100
2108
4106
4100
0100
0700
0100
ENDCHAR
STARTCHAR 2F72
ENCODING 12146
SWIDTH 900 0
DWIDTH 20 0
BBX 14 16 3 0
BITMAP
00F0
3F00
0000
0100
0100
0100
0100
FFFC
0100
0100
0130
3118
C100
0100
0100
0100
ENDCHAR
STARTCHAR 2F73
ENCODING 12147
SWIDTH 900 0
DWIDTH 20 0
BBX 14 17 3 0
BITMAP
0200
0200
8000
BFFC
8004
8004
0000
0800
0800
0840
1060
1020
3030
2018
6008
4004
8000
ENDCHAR
STARTCHAR 2F74
ENCODING 12148
SWIDTH 900 0
DWIDTH 20 0
BBX 14 15 3 1
BITMAP
0100
0100
0000
3FF8
0000
0000
0000
0020
1860
0840
0400
0000
0000
0000
FFFC
ENDCHAR
STARTCHAR 2F75
ENCODING 12149
SWIDTH 855 0
DWIDTH 19 0
BBX 16 18 1 -1
BITMAP
3020
2020
6060
4F5F
8080
0000
0800
0804
0804
0804
0804
0804
0804
0804
0804
0804
0804
001C
ENDCHAR
STARTCHAR 2F76
ENCODING 12150
SWIDTH 900 0
DWIDTH 20 0
BBX 14 18 3 -1
BITMAP
0100
0100
0100
0100
2110
3100
0100
0100
FFFC
0100
0100
0100
1110
211C
4100
0100
0100
0100
ENDCHAR
STARTCHAR 2F77
ENCODING 12151
SWIDTH 900 0
DWIDTH 20 0
BBX 13 17 3 0
BITMAP
1800
3000
2180
6300
7E00
0C00
1820
1030
3050
7F88
0000
0200
0220
6238
C200
0200
0E00
ENDCHAR
STARTCHAR 2F78
ENCODING 12152
SWIDTH 855 0
DWIDTH 19 0
BBX 15 17 2 1
BITMAP
1000
3000
27F8
4000
0000
0100
0100
0100
FFFE
0100
0100
0100
2108
2108
2008
2008
3FF8
ENDCHAR
STARTCHAR 2F79
ENCODING 12153
SWIDTH 855 0
DWIDTH 19 0
BBX 13 18 3 -2
BITMAP
BFF8
8008
8008
8008
8048
8448
8848
8BC8
B988
9CC8
91A8
A108
A308
8208
8008
8008
8008
8038
ENDCHAR
STARTCHAR 2F7A
ENCODING 12154
SWIDTH 855 0
DWIDTH 19 0
BBX 15 19 2 -2
BITMAP
0820
0C40
0000
7FFC
0000
0100
0100
1FF0
0100
0100
0100
0100
FFFE
0100
0100
0100
0100
0100
0100
ENDCHAR
STARTCHAR 2F7B
ENCODING 12155
SWIDTH 855 0
DWIDTH 19 0
BBX 13 15 3 -1
BITMAP
01F8
FC08
0408
0408
0408
44C8
2408
0408
0408
2448
C4C8
8408
0408
0408
1C18
ENDCHAR
STARTCHAR 2F7C
ENCODING 12156
SWIDTH 855 0
DWIDTH 19 0
BBX 15 19 2 -2
BITMAP
0200
0200
0200
1FEC
0218
0230
0260
FFFE
0300
0600
1800
3000
C420
04C0
0500
0400
0408
0408
07F8
ENDCHAR
STARTCHAR 2F7D
ENCODING 12157
SWIDTH 900 0
DWIDTH 20 0
BBX 14 15 3 -1
BITMAP
FFFC
0000
0200
0200
7FF8
4008
4488
4488
4488
4488
4488
4488
4008
4008
4018
ENDCHAR
STARTCHAR 2F7E
ENCODING 12158
SWIDTH 855 0
DWIDTH 19 0
BBX 15 19 2 -1
BITMAP
0100
0100
0100
7FF8
0100
0100
1FE0
0100
0100
FFFE
0100
0100
0100
2130
2118
4104
0100
0100
0100
ENDCHAR
STARTCHAR 2F7F
ENCODING 12159
SWIDTH 900 0
DWIDTH 20 0
BBX 14 17 3 -1
BITMAP
FFFC
0000
1020
1020
1720
1020
1020
1020
1720
1020
1020
1020
003C
FFE0
0020
0020
0020
ENDCHAR
STARTCHAR 2F80
ENCODING 12160
SWIDTH 900 0
DWIDTH 20 0
BBX 15 20 2 -2
BITMAP
0100
0100
0100
3FF0
0110
0110
FFFE
0110
0110
3FF0
0100
0100
3FF0
0100
0100
FFFE
0100
0100
0100
0100
ENDCHAR
STARTCHAR 2F81
ENCODING 12161
SWIDTH 900 0
DWIDTH 20 0
BBX 12 18 4 0
BITMAP
0200
0400
0400
FFF0
8C10
8810
9910
9090
A410
8410
8C10
8810
9B10
90D0
A010
8010
8010
8070
ENDCHAR
STARTCHAR 2F82
ENCODING 12162
SWIDTH 900 0
DWIDTH 20 0
BBX 12 17 4 -3
BITMAP
FFF0
8200
8200
8200
8200
FFE0
8020
8020
8020
8020
FFE0
8200
8200
8200
8200
8200
FFF0
ENDCHAR
STARTCHAR 2F83
ENCODING 12163
SWIDTH 855 0
DWIDTH 19 0
BBX 11 19 4 -2
BITMAP
0800
1800
0000
0000
FFE0
8020
8020
8020
8020
9E20
8020
8020
8020
9E20
8020
8020
8020
8020
FFE0
ENDCHAR
STARTCHAR 2F84
ENCODING 12164
SWIDTH 855 0
DWIDTH 19 0
BBX 15 15 2 0
BITMAP
7FFE
0000
0820
1830
1190
1F98
1E08
0100
0100
1FF8
0100
0100
0100
0000
FFFE
ENDCHAR
STARTCHAR 2F85
ENCODING 12165
SWIDTH 900 0
DWIDTH 20 0
BBX 13 14 4 1
BITMAP
1800
31F8
8008
8008
8008
8008
8008
BDE8
8008
8008
8008
8008
8008
FFF8
ENDCHAR
STARTCHAR 2F86
ENCODING 12166
SWIDTH 900 0
DWIDTH 20 0
BBX 14 18 3 -2
BITMAP
00E0
3F80
0000
0100
0100
0100
FFFC
0100
0100
0100
0000
1FE0
1020
1020
1020
1020
1020
1FE0
ENDCHAR
STARTCHAR 2F87
ENCODING 12167
SWIDTH 855 0
DWIDTH 19 0
BBX 15 15 2 0
BITMAP
0010
4010
C010
81FE
3C10
0C10
0910
C910
1110
11FE
2010
6010
4010
0010
0010
ENDCHAR
STARTCHAR 2F88
ENCODING 12168
SWIDTH 855 0
DWIDTH 19 0
BBX 15 18 2 -1
BITMAP
0300
0000
0000
0BF0
0810
0810
0910
0910
0810
FFFE
1810
1810
1910
1010
1010
1070
3000
2000
ENDCHAR
STARTCHAR 2F89
ENCODING 12169
SWIDTH 900 0
DWIDTH 20 0
BBX 12 17 4 -2
BITMAP
9FC0
8040
8040
9E40
8040
8040
8040
9FC0
8000
8000
8020
8620
8300
8180
E0C0
8060
0030
ENDCHAR
STARTCHAR 2F8A
ENCODING 12170
SWIDTH 900 0
DWIDTH 20 0
BBX 13 17 4 1
BITMAP
2000
6000
C7C0
8080
0100
9FE0
8020
8020
8420
8420
9FE0
8000
8000
8000
8000
8008
FFF8
ENDCHAR
STARTCHAR 2F8C
ENCODING 12172
SWIDTH 900 0
DWIDTH 20 0
BBX 16 19 2 -2
BITMAP
0100
0100
013C
0100
0100
0000
3FFE
2002
2002
2002
2080
2080
60BC
47E0
4C80
4080
C082
8083
00FF
ENDCHAR
STARTCHAR 2F8D
ENCODING 12173
SWIDTH 855 0
DWIDTH 19 0
BBX 15 17 2 0
BITMAP
0100
0100
0100
0100
3FF8
2108
2108
2108
2108
3FF8
0100
0100
0100
010C
0004
07E2
FC00
ENDCHAR
STARTCHAR 2F8E
ENCODING 12174
SWIDTH 855 0
DWIDTH 19 0
BBX 15 18 2 1
BITMAP
0300
0600
0400
0000
3FFC
2004
2004
2004
2244
2244
2244
2244
2244
2244
2004
0000
0000
FFFE
ENDCHAR
STARTCHAR 2F8F
ENCODING 12175
SWIDTH 900 0
DWIDTH 20 0
BBX 16 16 2 -1
BITMAP
1000
31FC
6000
8000
0000
1BFF
7000
C000
0010
2010
2010
2010
2010
2010
2010
2070
ENDCHAR
STARTCHAR 2F90
ENCODING 12176
SWIDTH 900 0
DWIDTH 20 0
BBX 15 17 2 0
BITMAP
0100
0100
0000
FFFE
0000
0800
0800
1008
3010
6020
4800
8840
0870
0818
0806
0E00
0800
ENDCHAR
STARTCHAR 2F93
ENCODING 12179
SWIDTH 900 0
DWIDTH 20 0
BBX 14 18 3 -1
BITMAP
1800
1000
23F0
0020
0040
0000
27FC
2004
2104
2104
27E4
2104
2104
4FE4
4104
4104
4104
C01C
ENDCHAR
STARTCHAR 2F94
ENCODING 12180
SWIDTH 900 0
DWIDTH 20 0
BBX 16 18 2 0
BITMAP
0100
0100
0000
FFFF
0000
0000
1FF0
0000
0000
1FF0
0000
0000
0FF0
0810
0810
0810
0810
0FF0
ENDCHAR
STARTCHAR 2F95
ENCODING 12181
SWIDTH 900 0
DWIDTH 20 0
BBX 13 17 4 0
BITMAP
00C0
2060
6010
4200
0400
0C00
0800
10E0
3038
6000
8000
0FC0
0840
0840
0840
0840
0FC0
ENDCHAR
STARTCHAR 2F96
ENCODING 12182
SWIDTH 855 0
DWIDTH 19 0
BBX 13 15 3 0
BITMAP
FFF0
0000
0000
3FC0
2040
2040
2040
3FC0
0000
0040
00C0
1800
0800
0000
FFF8
ENDCHAR
STARTCHAR 2F97
ENCODING 12183
SWIDTH 855 0
DWIDTH 19 0
BBX 13 17 3 -2
BITMAP
FFF8
0000
0600
0208
F218
0230
0360
0300
7100
C100
0130
0118
3908
E100
0100
0100
0700
ENDCHAR
STARTCHAR 2F98
ENCODING 12184
SWIDTH 855 0
DWIDTH 19 0
BBX 10 17 5 -1
BITMAP
0200
1E00
7000
0200
2200
21C0
1F80
F800
0200
0300
3900
E100
0100
1900
6100
0100
0700
ENDCHAR
STARTCHAR 2F9A
ENCODING 12186
SWIDTH 900 0
DWIDTH 20 0
BBX 15 17 2 -1
BITMAP
0100
0100
1FF8
0100
0100
0100
7FFE
0000
0200
0240
0240
2246
4640
8440
0440
0CC0
0800
ENDCHAR
STARTCHAR 2F9B
ENCODING 12187
SWIDTH 855 0
DWIDTH 19 0
BBX 15 19 2 -1
BITMAP
0100
0100
0100
1FE0
0100
0100
0100
FFFE
0000
0080
0080
1080
10BC
3080
2080
2080
2600
41FE
4000
ENDCHAR
STARTCHAR 2F9C
ENCODING 12188
SWIDTH 900 0
DWIDTH 20 0
BBX 13 17 4 0
BITMAP
3FE0
2020
2020
2020
2020
2020
3FE0
0000
0200
0200
42F0
4200
4200
C200
9000
9800
07F8
ENDCHAR
STARTCHAR 2F9D
ENCODING 12189
SWIDTH 900 0
DWIDTH 20 0
BBX 14 18 3 0
BITMAP
0200
0400
0000
1FE0
0020
1020
1720
1020
1724
1028
1038
FFF0
00E0
03A0
0620
1820
6020
80E0
ENDCHAR
STARTCHAR 2F9E
ENCODING 12190
SWIDTH 900 0
DWIDTH 20 0
BBX 16 20 2 -2
BITMAP
0100
0100
0100
7FFE
0100
0100
1FF8
1108
1108
17E8
1108
1108
1FF8
0100
0100
FFFF
0100
0100
0100
0100
ENDCHAR
STARTCHAR 2F9F
ENCODING 12191
SWIDTH 900 0
DWIDTH 20 0
BBX 16 20 2 -2
BITMAP
0080
0080
0000
3FFC
0000
0000
0C60
0000
0000
FFFF
0000
0080
0080
0080
1FF8
0080
0080
0080
0080
0080
ENDCHAR
STARTCHAR 2FA0
ENCODING 12192
SWIDTH 900 0
DWIDTH 20 0
BBX 15 17 2 -1
BITMAP
3FFC
0000
0000
2000
23F0
2000
2000
2000
2FFE
2000
6000
4204
420C
4220
821C
0206
0380
ENDCHAR
STARTCHAR 2FA2
ENCODING 12194
SWIDTH 900 0
DWIDTH 20 0
BBX 14 19 3 -2
BITMAP
3FC0
2040
2040
2040
3FC0
0000
0000
BFF0
8010
8210
8210
8210
BFF0
8000
8000
8000
8008
8008
FFFC
ENDCHAR
STARTCHAR 2FA3
ENCODING 12195
SWIDTH 855 0
DWIDTH 19 0
BBX 15 17 2 -2
BITMAP
FFFE
0000
0000
0240
0240
3FF8
2248
2248
2648
2448
2C78
3808
2008
27E8
2008
2008
3FF8
ENDCHAR
STARTCHAR 2FA5
ENCODING 12197
SWIDTH 900 0
DWIDTH 20 0
BBX 16 17 2 0
BITMAP
1FF8
1008
1088
13C8
1088
1088
1088
1088
1FF8
0080
0080
1FF8
0080
0080
0080
0000
FFFF
ENDCHAR
STARTCHAR 2FA6
ENCODING 12198
SWIDTH 855 0
DWIDTH 19 0
BBX 15 18 2 0
BITMAP
0100
0300
0600
0C00
1820
301E
4000
07E0
0000
0100
0100
3FF8
0100
0108
1938
0900
0000
FFFE
ENDCHAR
STARTCHAR 2FA9
ENCODING 12201
SWIDTH 855 0
DWIDTH 19 0
BBX 15 20 2 -2
BITMAP
0200
0400
0000
3FF0
2010
2010
3FF0
2000
2FF8
2008
2008
2008
2FF8
0100
0100
FFFE
0100
0100
0100
0100
ENDCHAR
STARTCHAR 2FAA
ENCODING 12202
SWIDTH 900 0
DWIDTH 20 0
BBX 16 19 2 -2
BITMAP
0080
0080
0080
1FF8
0088
0088
FFFF
0088
0088
1FF8
0080
0080
1898
0080
0080
189C
7084
0080
0380
ENDCHAR
STARTCHAR 2FAB
ENCODING 12203
SWIDTH 855 0
DWIDTH 19 0
BBX 14 17 3 1
BITMAP
0040
1840
7000
C000
07FC
2000
2040
2040
23F8
2040
2040
23F8
2040
2040
2000
2000
27FC
ENDCHAR
STARTCHAR 2FAC
ENCODING 12204
SWIDTH 855 0
DWIDTH 19 0
BBX 13 15 3 0
BITMAP
FFF0
0200
0200
9FF8
8208
8208
92C8
8A08
8208
8208
9248
8A28
8208
8238
8200
ENDCHAR
STARTCHAR 2FAE
ENCODING 12206
SWIDTH 855 0
DWIDTH 19 0
BBX 15 18 2 -1
BITMAP
0240
0240
0240
0240
7A5E
0240
0240
0240
0240
3A5C
0240
0240
0240
FA5E
0240
0240
0240
0240
ENDCHAR
STARTCHAR 2FAF
ENCODING 12207
SWIDTH 945 0
DWIDTH 21 0
BBX 15 15 3 0
BITMAP
FFFE
0300
0000
7FFC
4004
4004
4844
4BC4
4844
4844
4BC4
4844
4844
4004
7FFC
ENDCHAR
STARTCHAR 2FB0
ENCODING 12208
SWIDTH 900 0
DWIDTH 20 0
BBX 14 18 3 0
BITMAP
0440
0440
7FFC
0440
0440
07C0
0100
0100
1FF0
1110
1110
1FF0
0100
0100
FFFC
0100
0100
0100
ENDCHAR
STARTCHAR 2FB2
ENCODING 12210
SWIDTH 900 0
DWIDTH 20 0
BBX 16 18 2 0
BITMAP
0240
0240
0240
7A5E
0240
0240
0240
0240
3A5C
0240
0240
0240
FA5E
0240
0240
0240
0000
7FFF
ENDCHAR
STARTCHAR 2FB3
ENCODING 12211
SWIDTH 900 0
DWIDTH 20 0
BBX 14 18 3 -1
BITMAP
0100
0100
3FF0
0000
0020
0C40
0000
0000
FFFC
0000
0000
0FE0
0820
0820
0BA0
0820
0820
0FE0
ENDCHAR
STARTCHAR 2FB5
ENCODING 12213
SWIDTH 855 0
DWIDTH 19 0
BBX 17 19 1 -3
BITMAP
3FFC00
000400
202400
21E400
270400
200400
208400
208400
27E400
24A400
24A400
27E400
608400
408400
40B400
43DE00
4F0A00
800380
800100
ENDCHAR
STARTCHAR 2FB6
ENCODING 12214
SWIDTH 900 0
DWIDTH 20 0
BBX 18 18 1 -3
BITMAP
7FE000
002600
002000
012800
392700
413000
111880
110F80
7FE000
312200
212400
212000
212600
212300
413000
411000
810C40
0107C0
ENDCHAR
STARTCHAR 2FB7
ENCODING 12215
SWIDTH 900 0
DWIDTH 20 0
BBX 16 20 2 -2
BITMAP
0100
0200
0600
1830
311C
C103
0000
0BF0
0810
0810
0BD0
0810
0BF0
0800
080C
0808
08C0
0830
080C
0C00
ENDCHAR
STARTCHAR 2FB8
ENCODING 12216
SWIDTH 855 0
DWIDTH 19 0
BBX 15 19 2 -1
BITMAP
0820
0C60
0000
FFFE
0100
0300
0000
0FF0
0810
0810
0810
0BD0
0810
0810
0BD0
0810
0810
0810
0FF0
ENDCHAR
STARTCHAR 2FB9
ENCODING 12217
SWIDTH 855 0
DWIDTH 19 0
BBX 15 17 2 0
BITMAP
1FC0
0000
0100
0100
FFFE
0100
0100
393C
6100
0000
0FE0
0820
0820
0BA0
0820
0820
0FE0
ENDCHAR
STARTCHAR 2FBB
ENCODING 12219
SWIDTH 900 0
DWIDTH 20 0
BBX 14 18 3 -2
BITMAP
1FE0
1020
1F20
1120
1120
8000
BFFC
8004
97E4
1020
1020
17A0
1020
1020
17A0
1020
1020
1060
ENDCHAR
STARTCHAR 2FBC
ENCODING 12220
SWIDTH 900 0
DWIDTH 20 0
BBX 14 19 3 -2
BITMAP
0200
0200
FFFC
0000
0000
0F80
0880
0880
0F80
0000
BFF8
8008
8008
8F88
8888
8888
8F88
8038
8000
ENDCHAR
STARTCHAR 2FBD
ENCODING 12221
SWIDTH 855 0
DWIDTH 19 0
BBX 16 15 1 0
BITMAP
3F82
2004
2008
2F10
2000
2000
2780
200F
2000
FFC0
0000
3080
20C3
7E4C
7800
ENDCHAR
STARTCHAR 2FBE
ENCODING 12222
SWIDTH 855 0
DWIDTH 19 0
BBX 15 18 2 -2
BITMAP
BEFA
8002
8822
BEFA
8822
8822
BEFA
8002
8002
8002
8002
8002
8002
8002
8002
8002
8002
800E
ENDCHAR
STARTCHAR 2FBF
ENCODING 12223
SWIDTH 900 0
DWIDTH 20 0
BBX 13 18 3 -1
BITMAP
0240
00C0
8888
8508
B328
8588
9848
8308
8008
FFF8
0000
2000
20E0
2380
2600
2000
2008
3FF8
ENDCHAR
STARTCHAR 2FC0
ENCODING 12224
SWIDTH 855 0
DWIDTH 19 0
BBX 15 19 2 -3
BITMAP
FFFE
0000
0FE0
0820
0820
0820
0FE0
0000
5FFE
4002
4062
46C2
4002
5FF2
4002
4102
4102
4102
410E
ENDCHAR
STARTCHAR 2FC1
ENCODING 12225
SWIDTH 855 0
DWIDTH 19 0
BBX 13 19 3 -2
BITMAP
0800
1800
0000
0000
FFC0
8040
8840
BE40
8840
9840
FFC0
1000
1000
34C0
2490
2490
4400
C408
87F8
ENDCHAR
STARTCHAR 2FC5
ENCODING 12229
SWIDTH 855 0
DWIDTH 19 0
BBX 15 19 2 -1
BITMAP
0080
0080
0000
0000
7FFE
4120
4120
4FFE
4122
4122
4FFE
4000
4020
4822
8BA4
8820
8820
8822
0F3E
ENDCHAR
STARTCHAR 2FC6
ENCODING 12230
SWIDTH 900 0
DWIDTH 20 0
BBX 16 20 2 -2
BITMAP
0100
0100
3FFC
0100
1108
3D10
2536
4162
C500
091C
3007
C400
0FF0
1830
1060
07C0
01F0
011C
0600
0C00
ENDCHAR
STARTCHAR 2FC7
ENCODING 12231
SWIDTH 900 0
DWIDTH 20 0
BBX 17 19 1 -1
BITMAP
004000
004000
000000
3FFF80
000000
200000
220400
220400
220400
220400
2FDF80
220400
620400
42F580
4A1400
420400
820400
820400
020400
ENDCHAR
STARTCHAR 2FC9
ENCODING 12233
SWIDTH 900 0
DWIDTH 20 0
BBX 14 18 3 -1
BITMAP
1FF0
0000
0100
0100
FFFC
0100
0120
3130
6100
0200
0CE0
183C
6004
8100
3120
0100
3930
0300
ENDCHAR
STARTCHAR 2FCA
ENCODING 12234
SWIDTH 855 0
DWIDTH 19 0
BBX 15 18 2 -1
BITMAP
3FF8
2008
2108
2968
2948
2108
3FF8
0100
0100
3FF8
0100
0100
0000
FFFE
0000
488C
4446
8000
ENDCHAR
STARTCHAR 2FCB
ENCODING 12235
SWIDTH 855 0
DWIDTH 19 0
BBX 15 20 2 -3
BITMAP
0440
0440
8446
4444
0440
0000
FFFE
0000
0100
3108
0110
0100
5FFC
4104
4104
4924
4934
4104
4104
410C
ENDCHAR
STARTCHAR 2FCD
ENCODING 12237
SWIDTH 855 0
DWIDTH 19 0
BBX 15 19 2 -1
BITMAP
0FF0
0810
0810
2B92
2B92
2812
2812
2FF2
2002
3E3E
0220
0220
FA2E
0222
2222
6222
6222
4222
0220
ENDCHAR
STARTCHAR 2FCE
ENCODING 12238
SWIDTH 900 0
DWIDTH 20 0
BBX 18 18 1 -1
BITMAP
080000
080000
080000
FF8800
007F80
7F0800
000800
000800
000800
3E7F00
220300
3E0300
001600
021C00
260E00
001380
0F2040
70C000
ENDCHAR
STARTCHAR 2FCF
ENCODING 12239
SWIDTH 900 0
DWIDTH 20 0
BBX 14 20 3 -1
BITMAP
1800
A1F0
8010
8010
B9D0
8010
8010
FFF0
0000
8420
8420
B5A0
84A0
8420
95A0
84A0
8430
E714
001C
0008
ENDCHAR
STARTCHAR 2FD0
ENCODING 12240
SWIDTH 855 0
DWIDTH 19 0
BBX 15 21 2 -2
BITMAP
0200
0400
1FE0
1020
13A0
1020
13A0
1FE0
0000
3FF0
2110
27D0
2110
2010
3FF0
0000
FFFE
0000
0820
1820
0020
ENDCHAR
STARTCHAR 2FD3
ENCODING 12243
SWIDTH 855 0
DWIDTH 19 0
BBX 17 20 1 -3
BITMAP
084000
084000
005F00
FE4000
004000
047F00
240100
000100
FF7F00
004000
5E5E00
424000
424000
5A5E00
424000
5A4000
425F00
424100
464100
027F80
ENDCHAR
STARTCHAR 2FD5
ENCODING 12245
SWIDTH 900 0
DWIDTH 20 0
BBX 15 20 3 -2
BITMAP
0080
0180
0300
0E00
383E
E3C2
8000
7BDE
4A52
4A52
7BDE
0000
2FFC
2004
2144
2144
27F4
2144
2144
200C
ENDCHAR
STARTCHAR 3000
ENCODING 12288
SWIDTH 990 0
DWIDTH 22 0
BBX 0 0 0 0
BITMAP
ENDCHAR
STARTCHAR 3001
ENCODING 12289
SWIDTH 900 0
DWIDTH 20 0
BBX 1 2 1 -2
BITMAP
80
80
ENDCHAR
STARTCHAR 3002
ENCODING 12290
SWIDTH 900 0
DWIDTH 20 0
BBX 3 3 1 -2
BITMAP
E0
A0
E0
ENDCHAR
STARTCHAR 3005
ENCODING 12293
SWIDTH 855 0
DWIDTH 19 0
BBX 13 18 3 -2
BITMAP
0C00
0800
1800
3000
23F8
6008
C008
8010
0010
0030
0020
0040
00C0
1180
1C00
0600
0180
0040
ENDCHAR
STARTCHAR 3007
ENCODING 12295
SWIDTH 855 0
DWIDTH 19 0
BBX 17 18 1 -2
BITMAP
03E000
0C3800
100400
200200
400300
400100
800180
800080
800080
800080
800080
800180
C00100
400100
200200
300600
1C1800
07F000
ENDCHAR
STARTCHAR 3008
ENCODING 12296
SWIDTH 900 0
DWIDTH 20 0
BBX 5 19 14 -1
BITMAP
08
18
10
10
20
20
60
40
40
80
C0
40
40
20
20
10
10
18
08
ENDCHAR
STARTCHAR 3009
ENCODING 12297
SWIDTH 900 0
DWIDTH 20 0
BBX 4 19 1 -1
BITMAP
80
80
C0
40
40
20
20
30
10
10
10
30
20
20
60
40
C0
80
80
ENDCHAR
STARTCHAR 300A
ENCODING 12298
SWIDTH 900 0
DWIDTH 20 0
BBX 9 19 10 -1
BITMAP
0880
1180
1100
3100
2200
2200
4600
4400
C400
8800
CC00
4400
4400
2200
2200
3300
1100
1100
0880
ENDCHAR
STARTCHAR 300B
ENCODING 12299
SWIDTH 900 0
DWIDTH 20 0
BBX 9 19 1 -1
BITMAP
8800
8800
C400
4400
4600
2200
2200
3100
1100
1180
1100
1100
2300
2200
6600
4400
C400
8800
8800
ENDCHAR
STARTCHAR 300C
ENCODING 12300
SWIDTH 900 0
DWIDTH 20 0
BBX 4 16 15 1
BITMAP
F0
80
80
80
80
80
80
80
80
80
80
80
80
80
80
80
ENDCHAR
STARTCHAR 300D
ENCODING 12301
SWIDTH 900 0
DWIDTH 20 0
BBX 4 16 1 -2
BITMAP
10
10
10
10
10
10
10
10
10
10
10
10
10
10
10
F0
ENDCHAR
STARTCHAR 300E
ENCODING 12302
SWIDTH 900 0
DWIDTH 20 0
BBX 6 16 13 0
BITMAP
FC
84
BC
A0
A0
A0
A0
A0
A0
A0
A0
A0
A0
A0
A0
E0
ENDCHAR
STARTCHAR 300F
ENCODING 12303
SWIDTH 900 0
DWIDTH 20 0
BBX 6 17 1 -3
BITMAP
3C
24
24
24
24
24
24
24
24
24
24
24
24
E4
84
84
FC
ENDCHAR
STARTCHAR 3010
ENCODING 12304
SWIDTH 855 0
DWIDTH 19 0
BBX 3 20 16 -2
BITMAP
C0
C0
C0
80
80
80
80
80
80
80
80
80
80
80
80
80
80
C0
C0
E0
ENDCHAR
STARTCHAR 3011
ENCODING 12305
SWIDTH 900 0
DWIDTH 20 0
BBX 3 20 1 -2
BITMAP
E0
60
60
60
20
20
20
20
20
20
20
20
20
20
20
20
60
60
60
E0
ENDCHAR
STARTCHAR 3016
ENCODING 12310
SWIDTH 855 0
DWIDTH 19 0
BBX 5 20 13 -2
BITMAP
F8
98
90
90
B0
A0
A0
A0
A0
A0
A0
A0
A0
A0
A0
B0
90
90
90
F8
ENDCHAR
STARTCHAR 3017
ENCODING 12311
SWIDTH 855 0
DWIDTH 19 0
BBX 5 20 1 -2
BITMAP
F8
C8
48
48
48
68
28
28
28
28
28
28
28
28
68
48
48
48
C8
F8
ENDCHAR
STARTCHAR 306E
ENCODING 12398
SWIDTH 855 0
DWIDTH 19 0
BBX 15 16 2 0
BITMAP
07E0
1830
2008
4004
4106
8102
8082
8082
8082
8082
8082
8086
C104
410C
3618
1C30
ENDCHAR
STARTCHAR 30FB
ENCODING 12539
SWIDTH 855 0
DWIDTH 19 0
BBX 1 2 9 9
BITMAP
80
80
ENDCHAR
STARTCHAR 4E00
ENCODING 19968
SWIDTH 900 0
DWIDTH 20 0
BBX 15 1 2 7
BITMAP
FFFE
ENDCHAR
STARTCHAR 4E01
ENCODING 19969
SWIDTH 900 0
DWIDTH 20 0
BBX 14 16 3 -2
BITMAP
FFFC
0000
0000
0100
0100
0100
0100
0100
0100
0100
0100
0100
0100
0100
0100
0700
ENDCHAR
STARTCHAR 4E03
ENCODING 19971
SWIDTH 900 0
DWIDTH 20 0
BBX 16 17 2 0
BITMAP
0200
0200
0200
0200
0200
0200
02FE
7FC0
C200
0200
0200
0200
0200
0200
0200
0202
03FF
ENDCHAR
STARTCHAR 4E07
ENCODING 19975
SWIDTH 900 0
DWIDTH 20 0
BBX 14 17 3 -2
BITMAP
FFFC
0000
0000
0800
0800
1800
11F0
1010
1010
3010
2010
2010
6010
4070
4000
8000
8000
ENDCHAR
STARTCHAR 4E08
ENCODING 19976
SWIDTH 900 0
DWIDTH 20 0
BBX 14 17 3 -1
BITMAP
0040
0040
00C0
00C0
FFFC
0080
0080
0180
3100
1F00
0700
07C0
0430
0808
1800
3000
6000
ENDCHAR
STARTCHAR 4E09
ENCODING 19977
SWIDTH 855 0
DWIDTH 19 0
BBX 15 15 2 0
BITMAP
3FFC
0000
0000
0000
0000
0000
0000
0FF0
0000
0000
0000
0000
0000
0000
FFFE
ENDCHAR
STARTCHAR 4E0A
ENCODING 19978
SWIDTH 855 0
DWIDTH 19 0
BBX 15 17 2 0
BITMAP
0200
0200
0200
0200
0200
0200
0200
0278
0200
0200
0200
0200
0200
0200
0000
0000
FFFE
ENDCHAR
STARTCHAR 4E0B
ENCODING 19979
SWIDTH 900 0
DWIDTH 20 0
BBX 14 17 3 -2
BITMAP
FFFC
0000
0000
0200
0200
0200
0220
0230
0218
0208
0200
0200
0200
0200
0200
0200
0200
ENDCHAR
STARTCHAR 4E0C
ENCODING 19980
SWIDTH 900 0
DWIDTH 20 0
BBX 14 16 3 -2
BITMAP
FFFC
0000
0000
1020
1020
1020
1020
1020
3020
3020
2020
2020
2020
2020
4020
4000
ENDCHAR
STARTCHAR 4E0D
ENCODING 19981
SWIDTH 900 0
DWIDTH 20 0
BBX 14 15 3 0
BITMAP
FFFC
0000
0000
0100
0120
0130
310C
6100
8100
0100
0100
0100
0100
0100
0100
ENDCHAR
STARTCHAR 4E0E
ENCODING 19982
SWIDTH 945 0
DWIDTH 21 0
BBX 15 18 3 -1
BITMAP
1000
1000
13FE
1000
1000
1000
1000
1FF8
0008
0008
0008
0008
FFC8
0008
0008
0008
0008
0018
ENDCHAR
STARTCHAR 4E10
ENCODING 19984
SWIDTH 900 0
DWIDTH 20 0
BBX 14 18 3 -2
BITMAP
FFFC
0000
0100
0100
2100
213C
2100
2100
2100
2000
3FFC
0004
0004
0004
0004
0004
0004
001C
ENDCHAR
STARTCHAR 4E11
ENCODING 19985
SWIDTH 855 0
DWIDTH 19 0
BBX 15 15 2 0
BITMAP
3FF0
0010
0010
0610
0410
0410
3FD0
0410
0410
0410
0C10
0C10
0010
0010
FFFE
ENDCHAR
STARTCHAR 4E13
ENCODING 19987
SWIDTH 855 0
DWIDTH 19 0
BBX 15 19 2 -2
BITMAP
0100
0100
0100
3FFC
0200
0200
0600
FFFE
0400
0400
0C00
0FF0
0030
0030
0020
0060
0040
0600
01C0
ENDCHAR
STARTCHAR 4E14
ENCODING 19988
SWIDTH 855 0
DWIDTH 19 0
BBX 15 17 2 0
BITMAP
1FF0
1010
1010
1010
1010
1790
1010
1010
1010
1790
1010
1010
1010
1010
1010
0000
FFFE
ENDCHAR
STARTCHAR 4E15
ENCODING 19989
SWIDTH 900 0
DWIDTH 20 0
BBX 16 17 2 0
BITMAP
7FFE
0000
0000
0000
0100
0110
1118
310C
6104
0100
0100
0100
0100
0100
0100
0000
FFFF
ENDCHAR
STARTCHAR 4E16
ENCODING 19990
SWIDTH 855 0
DWIDTH 19 0
BBX 15 17 2 1
BITMAP
0110
0110
2110
2110
2110
FFFE
2110
2110
2110
2110
2110
21F0
2000
2000
2000
2000
3FF8
ENDCHAR
STARTCHAR 4E18
ENCODING 19992
SWIDTH 900 0
DWIDTH 20 0
BBX 16 18 2 0
BITMAP
0030
07E0
0000
0000
1000
1000
1000
13FC
1000
1000
1020
1020
1020
1020
1020
1020
0000
FFFF
ENDCHAR
STARTCHAR 4E19
ENCODING 19993
SWIDTH 900 0
DWIDTH 20 0
BBX 14 19 3 -3
BITMAP
FFFC
0000
0100
0100
0300
0300
7FF8
4208
4608
4408
45C8
4C38
4808
5008
5008
4008
4008
4008
4018
ENDCHAR
STARTCHAR 4E1A
ENCODING 19994
SWIDTH 900 0
DWIDTH 20 0
BBX 15 16 2 0
BITMAP
0440
0440
0440
0440
0440
0444
844C
4448
0440
0440
0440
0440
0440
0000
0000
FFFE
ENDCHAR
STARTCHAR 4E1B
ENCODING 19995
SWIDTH 855 0
DWIDTH 19 0
BBX 15 18 2 1
BITMAP
0810
0810
0810
0810
1810
1830
1830
1420
1720
3020
3068
204C
2044
4080
4080
0000
0000
FFFE
ENDCHAR
STARTCHAR 4E1C
ENCODING 19996
SWIDTH 855 0
DWIDTH 19 0
BBX 14 17 2 0
BITMAP
0200
0200
0600
7FFC
0400
0880
0880
1880
1080
1FF8
0080
0080
0090
308C
C084
0080
0380
ENDCHAR
STARTCHAR 4E1D
ENCODING 19997
SWIDTH 900 0
DWIDTH 20 0
BBX 16 17 2 0
BITMAP
0810
0810
1020
3020
2040
62C4
76EC
0408
0818
0810
1020
3066
3C78
0000
0000
0000
FFFF
ENDCHAR
STARTCHAR 4E1E
ENCODING 19998
SWIDTH 900 0
DWIDTH 20 0
BBX 16 18 2 0
BITMAP
1FF8
0018
0030
0060
00C0
0086
7C8C
0C80
0880
1880
108C
3083
6080
0380
0180
0000
0000
FFFF
ENDCHAR
STARTCHAR 4E22
ENCODING 20002
SWIDTH 900 0
DWIDTH 20 0
BBX 15 18 3 0
BITMAP
0030
7FE0
0000
0100
0100
1100
3FE0
0100
0100
0000
FFFE
0000
0000
0C00
0820
1010
3F88
3F00
ENDCHAR
STARTCHAR 4E24
ENCODING 20004
SWIDTH 855 0
DWIDTH 19 0
BBX 15 17 2 -2
BITMAP
FFFE
0000
0440
0440
5FFC
44C4
4884
4884
4B84
4884
48B4
5104
5104
4004
4004
4004
401C
ENDCHAR
STARTCHAR 4E25
ENCODING 20005
SWIDTH 855 0
DWIDTH 19 0
BBX 15 18 2 -3
BITMAP
7FFE
0220
0220
3224
1228
0220
0000
2FFE
2000
2000
2000
6000
6000
4000
4000
4000
8000
8000
ENDCHAR
STARTCHAR 4E27
ENCODING 20007
SWIDTH 900 0
DWIDTH 20 0
BBX 16 20 2 -2
BITMAP
0080
0080
0080
3FFC
0080
0080
1098
18B0
0080
0000
FFFF
0000
1008
1018
1000
1000
1030
100C
1E02
1800
ENDCHAR
STARTCHAR 4E28
ENCODING 20008
SWIDTH 855 0
DWIDTH 19 0
BBX 1 15 9 0
BITMAP
80
80
80
80
80
80
80
80
80
80
80
80
80
80
80
ENDCHAR
STARTCHAR 4E2A
ENCODING 20010
SWIDTH 945 0
DWIDTH 21 0
BBX 15 18 3 -1
BITMAP
0100
0300
0600
0400
0C78
180E
2000
C000
0100
0100
0100
0100
0100
0100
0100
0100
0100
0100
ENDCHAR
STARTCHAR 4E2B
ENCODING 20011
SWIDTH 855 0
DWIDTH 19 0
BBX 13 18 3 -1
BITMAP
0018
0030
C060
3040
1080
0000
0000
0200
0200
0200
0200
0200
0200
0200
0200
0200
0200
0200
ENDCHAR
STARTCHAR 4E2C
ENCODING 20012
SWIDTH 900 0
DWIDTH 20 0
BBX 6 20 7 -2
BITMAP
04
04
04
04
04
84
E4
04
04
04
04
04
04
E4
84
04
04
04
04
04
ENDCHAR
STARTCHAR 4E2D
ENCODING 20013
SWIDTH 855 0
DWIDTH 19 0
BBX 13 19 3 -1
BITMAP
0200
0200
0200
0200
0200
FFF8
8208
8208
8208
8208
8208
FFF8
0200
0200
0200
0200
0200
0200
0200
ENDCHAR
STARTCHAR 4E30
ENCODING 20016
SWIDTH 900 0
DWIDTH 20 0
BBX 14 18 3 -1
BITMAP
0100
0100
0100
7FF8
0100
0100
0100
0100
1FE0
0100
0100
0100
0100
FFFC
0100
0100
0100
0100
ENDCHAR
STARTCHAR 4E32
ENCODING 20018
SWIDTH 900 0
DWIDTH 20 0
BBX 14 20 3 -2
BITMAP
0200
0200
0200
3FE0
2220
2220
2220
3FE0
0200
0200
FFFC
8204
8204
8204
FFFC
0200
0200
0200
0200
0200
ENDCHAR
STARTCHAR 4E34
ENCODING 20020
SWIDTH 900 0
DWIDTH 20 0
BBX 16 18 2 0
BITMAP
0840
08C0
0880
099F
0980
8900
8A00
8818
8804
8800
89FE
8902
8912
0912
0912
0912
0902
09FE
ENDCHAR
STARTCHAR 4E36
ENCODING 20022
SWIDTH 900 0
DWIDTH 20 0
BBX 5 3 7 7
BITMAP
C0
30
18
ENDCHAR
STARTCHAR 4E38
ENCODING 20024
SWIDTH 900 0
DWIDTH 20 0
BBX 14 20 3 -3
BITMAP
0400
0400
0400
0400
0400
7FC0
0C60
0C60
0860
0860
1860
F860
3860
1460
3060
2064
607C
4000
C000
8000
ENDCHAR
STARTCHAR 4E39
ENCODING 20025
SWIDTH 900 0
DWIDTH 20 0
BBX 16 18 2 -2
BITMAP
0BF0
0810
0810
0910
0910
0890
0810
0810
FFFF
1010
1010
1010
1010
3010
2070
2000
2000
4000
ENDCHAR
STARTCHAR 4E3A
ENCODING 20026
SWIDTH 855 0
DWIDTH 19 0
BBX 13 18 3 -1
BITMAP
0200
0200
6200
3200
0600
0400
FFF8
0408
0408
0C08
0908
0888
0808
1808
1008
3038
2000
6000
ENDCHAR
STARTCHAR 4E3B
ENCODING 20027
SWIDTH 855 0
DWIDTH 19 0
BBX 13 18 3 0
BITMAP
0200
0200
0200
7FF8
0000
0000
0000
0200
0200
0200
3FC0
0200
0200
0200
0200
0200
0000
FFF8
ENDCHAR
STARTCHAR 4E3D
ENCODING 20029
SWIDTH 855 0
DWIDTH 19 0
BBX 15 18 2 -3
BITMAP
FFFE
0000
0000
007C
4E44
4244
4244
4244
5A64
4A74
4254
4244
4244
4244
4244
4E44
405C
0004
ENDCHAR
STARTCHAR 4E3E
ENCODING 20030
SWIDTH 855 0
DWIDTH 19 0
BBX 15 19 2 -2
BITMAP
0208
3318
1000
0000
FFFC
0000
0800
1918
310C
6100
87F0
0100
0100
FFFE
0100
0100
0100
0100
0100
ENDCHAR
STARTCHAR 4E3F
ENCODING 20031
SWIDTH 900 0
DWIDTH 20 0
BBX 4 18 8 -2
BITMAP
10
10
10
10
10
10
30
30
20
20
20
20
60
40
40
40
80
80
ENDCHAR
STARTCHAR 4E43
ENCODING 20035
SWIDTH 900 0
DWIDTH 20 0
BBX 15 18 2 -3
BITMAP
7FF0
0010
0020
0820
0860
0840
087E
0802
1802
1002
1002
1002
1002
2002
200E
4000
4000
8000
ENDCHAR
STARTCHAR 4E45
ENCODING 20037
SWIDTH 900 0
DWIDTH 20 0
BBX 15 19 2 -2
BITMAP
0800
0800
1000
1000
2000
27E0
4020
0060
0040
00C0
0080
0180
0300
0600
0438
080E
3000
6000
8000
ENDCHAR
STARTCHAR 4E47
ENCODING 20039
SWIDTH 900 0
DWIDTH 20 0
BBX 15 18 2 -2
BITMAP
00F0
7F80
0000
0200
0200
0200
0200
0200
FFFE
0200
0200
0200
0200
0200
0200
0208
0208
03FC
ENDCHAR
STARTCHAR 4E48
ENCODING 20040
SWIDTH 900 0
DWIDTH 20 0
BBX 14 16 3 0
BITMAP
0400
0C00
1800
1000
2000
6000
4200
8200
0400
0400
0C00
0800
1810
1008
3FCC
3C00
ENDCHAR
STARTCHAR 4E49
ENCODING 20041
SWIDTH 900 0
DWIDTH 20 0
BBX 14 16 3 -1
BITMAP
0430
0220
0060
0040
20C0
1880
0D80
0700
0380
06C0
0460
0818
180C
3000
6000
C000
ENDCHAR
STARTCHAR 4E4B
ENCODING 20043
SWIDTH 855 0
DWIDTH 19 0
BBX 15 18 2 0
BITMAP
0100
0100
0100
0000
3FF8
0018
0030
0060
0040
0080
0100
0200
0600
0C00
1800
3C00
4600
83FE
ENDCHAR
STARTCHAR 4E4C
ENCODING 20044
SWIDTH 900 0
DWIDTH 20 0
BBX 14 19 3 -1
BITMAP
0100
0200
0000
0FE0
0820
0820
0820
0860
0800
0800
0FFC
0004
0004
0004
FFC4
0004
0004
0004
001C
ENDCHAR
STARTCHAR 4E4D
ENCODING 20045
SWIDTH 900 0
DWIDTH 20 0
BBX 14 19 3 -1
BITMAP
1000
3000
2000
67FC
C000
8000
0400
0400
04F8
0400
0400
0400
04F8
0400
0400
0400
0400
0400
0400
ENDCHAR
STARTCHAR 4E4E
ENCODING 20046
SWIDTH 855 0
DWIDTH 19 0
BBX 15 19 2 -2
BITMAP
00F0
7FF0
0000
0100
0100
0108
3110
0100
0100
FFFE
0100
0100
0100
0100
0100
0100
0100
0700
0100
ENDCHAR
STARTCHAR 4E4F
ENCODING 20047
SWIDTH 945 0
DWIDTH 21 0
BBX 15 18 3 0
BITMAP
0008
07F8
7F00
0100
0100
0100
0000
3FF0
0010
0060
00C0
0180
0200
0C00
1800
3C00
4600
C1FE
ENDCHAR
STARTCHAR 4E50
ENCODING 20048
SWIDTH 855 0
DWIDTH 19 0
BBX 15 20 2 -3
BITMAP
00F0
1FC0
0000
0000
2100
2100
2100
2100
2100
3FFC
0100
0100
0100
0100
610C
C106
0100
0100
0700
0100
ENDCHAR
STARTCHAR 4E52
ENCODING 20050
SWIDTH 855 0
DWIDTH 19 0
BBX 15 19 2 -2
BITMAP
00E0
0780
1000
1000
1000
1000
17F8
1000
1040
1040
1040
1040
0000
FFFE
0000
0000
1800
3000
4000
ENDCHAR
STARTCHAR 4E53
ENCODING 20051
SWIDTH 855 0
DWIDTH 19 0
BBX 15 18 2 -2
BITMAP
00E0
0780
1000
1000
1000
1000
17F8
1000
1040
1040
1040
1040
0000
FFFE
0000
0000
0030
001C
ENDCHAR
STARTCHAR 4E54
ENCODING 20052
SWIDTH 855 0
DWIDTH 19 0
BBX 15 18 2 -1
BITMAP
3FE0
0100
0100
0300
0200
FFFE
0400
0C20
1818
3004
C020
0820
0820
0820
1820
1020
1020
2020
ENDCHAR
STARTCHAR 4E56
ENCODING 20054
SWIDTH 855 0
DWIDTH 19 0
BBX 15 19 2 -1
BITMAP
00F8
3F80
0000
0100
0100
FFFE
0100
0900
0900
0922
E92C
0920
0920
E93E
0900
0900
0100
0100
0100
ENDCHAR
STARTCHAR 4E58
ENCODING 20056
SWIDTH 855 0
DWIDTH 19 0
BBX 15 19 2 -1
BITMAP
00F0
3F80
0000
0100
0100
FFFE
0100
0520
0526
7526
0520
3522
E53E
0500
0100
0110
191C
6106
0100
ENDCHAR
STARTCHAR 4E59
ENCODING 20057
SWIDTH 900 0
DWIDTH 20 0
BBX 15 15 3 0
BITMAP
FFE0
0030
0060
00C0
0180
0100
0200
0400
0C00
1800
3000
6000
4004
8006
FFFE
ENDCHAR
STARTCHAR 4E5C
ENCODING 20060
SWIDTH 855 0
DWIDTH 19 0
BBX 15 18 2 0
BITMAP
1000
1000
1000
1000
1078
1FC8
F808
1008
1008
1008
1008
1008
1038
1000
1000
1000
1002
1FFE
ENDCHAR
STARTCHAR 4E5D
ENCODING 20061
SWIDTH 900 0
DWIDTH 20 0
BBX 15 19 2 -2
BITMAP
0400
0400
0400
0400
7FE0
0C20
0820
0820
0820
0820
1820
1020
1020
3020
2022
203E
4000
4000
8000
ENDCHAR
STARTCHAR 4E5E
ENCODING 20062
SWIDTH 900 0
DWIDTH 20 0
BBX 14 18 3 0
BITMAP
2000
6000
4000
CFF8
8000
0000
0000
3FE0
0060
00C0
0180
0300
0600
0C00
1800
3008
600C
3FFC
ENDCHAR
STARTCHAR 4E5F
ENCODING 20063
SWIDTH 855 0
DWIDTH 19 0
BBX 14 18 3 0
BITMAP
0200
0200
0200
2200
2200
2200
27F0
FA10
2210
2210
2210
2270
2210
2200
2200
2008
2008
3FFC
ENDCHAR
STARTCHAR 4E60
ENCODING 20064
SWIDTH 900 0
DWIDTH 20 0
BBX 12 16 4 -2
BITMAP
FFF0
0010
0010
0010
0010
3010
0C10
0010
0010
0E10
3810
E010
0010
0010
0010
0070
ENDCHAR
STARTCHAR 4E61
ENCODING 20065
SWIDTH 900 0
DWIDTH 20 0
BBX 12 17 4 -1
BITMAP
1000
3000
2000
4080
F900
0200
0400
0C00
1810
3730
3C60
00C0
0180
0700
0C00
3800
E000
ENDCHAR
STARTCHAR 4E66
ENCODING 20070
SWIDTH 900 0
DWIDTH 20 0
BBX 15 19 2 -2
BITMAP
0100
0100
0104
0100
1FF0
0110
0110
0110
0110
0100
FFFE
0102
0102
0102
0102
0106
0100
0100
0100
ENDCHAR
STARTCHAR 4E69
ENCODING 20073
SWIDTH 900 0
DWIDTH 20 0
BBX 18 18 1 0
BITMAP
100000
100000
101000
101000
179000
101000
101000
101000
101000
001000
001000
FF1000
811000
811000
811000
811080
811FC0
FF0000
ENDCHAR
STARTCHAR 4E70
ENCODING 20080
SWIDTH 855 0
DWIDTH 19 0
BBX 15 18 2 -2
BITMAP
7FFC
0004
0004
0880
0C80
0080
2080
1180
0100
0100
FFFE
0300
0200
0600
0438
0800
1800
3000
ENDCHAR
STARTCHAR 4E71
ENCODING 20081
SWIDTH 900 0
DWIDTH 20 0
BBX 18 17 1 0
BITMAP
071000
3F1000
781000
001000
081000
081000
FF9000
081000
081000
081000
001000
7F1000
411000
411080
411080
411FC0
7F0000
ENDCHAR
STARTCHAR 4E73
ENCODING 20083
SWIDTH 900 0
DWIDTH 20 0
BBX 18 17 1 -1
BITMAP
071000
7E1000
001000
011000
491000
001000
001000
3E1000
061000
041000
081000
0F1000
F81000
081080
081080
381FC0
080000
ENDCHAR
STARTCHAR 4E7E
ENCODING 20094
SWIDTH 855 0
DWIDTH 19 0
BBX 17 18 1 0
BITMAP
001000
081000
083000
FF2000
086F80
084000
7F0000
410000
410000
5D3F00
410300
7F0600
080400
FF8800
081800
081080
082080
083F80
ENDCHAR
STARTCHAR 4E86
ENCODING 20102
SWIDTH 855 0
DWIDTH 19 0
BBX 11 18 4 -2
BITMAP
FFE0
0060
00C0
0180
0300
0200
0400
0400
0400
0400
0400
0400
0400
0400
0400
0400
1C00
0400
ENDCHAR
STARTCHAR 4E88
ENCODING 20104
SWIDTH 900 0
DWIDTH 20 0
BBX 14 18 3 -1
BITMAP
3FE0
0020
0040
0040
0E00
0300
0000
FFFC
0004
0104
0104
0100
0100
0100
0100
0100
0700
0100
ENDCHAR
STARTCHAR 4E89
ENCODING 20105
SWIDTH 900 0
DWIDTH 20 0
BBX 16 19 2 -2
BITMAP
0800
1000
23E0
4020
0040
0000
1FF0
0010
0110
FFFF
0110
0110
0110
1FF0
0100
0100
0100
0100
0700
ENDCHAR
STARTCHAR 4E8B
ENCODING 20107
SWIDTH 900 0
DWIDTH 20 0
BBX 16 19 2 -2
BITMAP
0100
0100
7FFC
0100
0FF0
0910
0910
0FF0
0100
1FF8
0108
0108
FFFF
0108
1FF8
0100
0100
0100
0300
ENDCHAR
STARTCHAR 4E8C
ENCODING 20108
SWIDTH 900 0
DWIDTH 20 0
BBX 14 15 3 0
BITMAP
7FF0
0000
0000
0000
0000
0000
0000
0000
0000
0000
0000
0000
0000
0000
FFFC
ENDCHAR
STARTCHAR 4E8D
ENCODING 20109
SWIDTH 900 0
DWIDTH 20 0
BBX 16 19 2 -2
BITMAP
3FF8
0000
0000
0000
0000
0000
FFFF
0000
0000
0100
0100
0100
0100
0100
0100
0100
0100
0700
0100
ENDCHAR
STARTCHAR 4E8E
ENCODING 20110
SWIDTH 900 0
DWIDTH 20 0
BBX 14 16 3 -2
BITMAP
3FF0
0000
0100
0100
0100
0100
FFFC
0100
0100
0100
0100
0100
0100
0100
0100
0700
ENDCHAR
STARTCHAR 4E8F
ENCODING 20111
SWIDTH 855 0
DWIDTH 19 0
BBX 15 17 2 -2
BITMAP
3FF0
0000
0000
0000
0000
FFFE
0000
0800
0800
0800
0FF0
0010
0010
0010
0010
0010
0030
ENDCHAR
STARTCHAR 4E91
ENCODING 20113
SWIDTH 855 0
DWIDTH 19 0
BBX 15 15 2 -1
BITMAP
3FF0
0000
0000
0000
0000
0000
FFFE
0000
0000
0800
0800
1020
3030
2398
3C00
ENDCHAR
STARTCHAR 4E92
ENCODING 20114
SWIDTH 900 0
DWIDTH 20 0
BBX 14 15 3 0
BITMAP
7FFC
0000
0800
0800
0BF0
1030
1020
1020
1060
3F40
0040
00C0
00C0
0000
FFFC
ENDCHAR
STARTCHAR 4E93
ENCODING 20115
SWIDTH 900 0
DWIDTH 20 0
BBX 14 18 3 -1
BITMAP
3FF0
0000
0000
0000
0000
0000
FFFC
0000
0040
1040
1040
1040
1040
2040
2040
2040
2040
0040
ENDCHAR
STARTCHAR 4E94
ENCODING 20116
SWIDTH 855 0
DWIDTH 19 0
BBX 15 15 2 0
BITMAP
7FFC
0000
0000
0400
0400
3FE0
0C20
0820
0820
0820
0820
1820
1020
0000
FFFE
ENDCHAR
STARTCHAR 4E95
ENCODING 20117
SWIDTH 900 0
DWIDTH 20 0
BBX 16 18 2 -1
BITMAP
0020
0420
0420
0420
0420
3FFC
0420
0420
0C20
0C20
FFFF
0820
0820
0820
0820
1020
1020
1020
ENDCHAR
STARTCHAR 4E98
ENCODING 20120
SWIDTH 900 0
DWIDTH 20 0
BBX 16 16 2 0
BITMAP
7FFE
0000
0000
0000
0FF0
0810
0810
0BD0
0810
0810
0810
0FF0
0000
0000
0000
FFFF
ENDCHAR
STARTCHAR 4E9A
ENCODING 20122
SWIDTH 855 0
DWIDTH 19 0
BBX 15 16 2 0
BITMAP
7FFE
0000
0440
0440
0440
0442
444C
6458
3440
0440
0440
0440
0440
0000
0000
FFFE
ENDCHAR
STARTCHAR 4E9B
ENCODING 20123
SWIDTH 900 0
DWIDTH 20 0
BBX 16 18 2 -2
BITMAP
0820
0820
0820
4826
4B28
4820
4820
4822
4822
003F
FF00
0000
0000
1FF8
0000
0000
0000
FFFE
ENDCHAR
STARTCHAR 4E9F
ENCODING 20127
SWIDTH 855 0
DWIDTH 19 0
BBX 15 18 2 -2
BITMAP
3FF8
0030
0060
0180
0100
013E
F902
8906
8904
893C
F90E
0110
0120
0100
0100
0300
0000
FFFE
ENDCHAR
STARTCHAR 4EA0
ENCODING 20128
SWIDTH 900 0
DWIDTH 20 0
BBX 16 4 2 13
BITMAP
0100
0100
0000
FFFF
ENDCHAR
STARTCHAR 4EA1
ENCODING 20129
SWIDTH 855 0
DWIDTH 19 0
BBX 15 18 2 0
BITMAP
0100
0100
0000
0000
FFFE
0000
0000
1000
1000
1000
1000
1000
1000
1000
1000
1000
1000
1FF8
ENDCHAR
STARTCHAR 4EA2
ENCODING 20130
SWIDTH 855 0
DWIDTH 19 0
BBX 15 18 2 -2
BITMAP
0100
0100
0000
FFFE
0000
0000
0800
09E0
0820
0820
1820
1020
1020
1024
3024
203E
2000
4000
ENDCHAR
STARTCHAR 4EA4
ENCODING 20132
SWIDTH 900 0
DWIDTH 20 0
BBX 14 19 3 -1
BITMAP
0100
0100
0000
FFFC
0000
0000
0030
3018
2040
4040
0080
0780
0300
02C0
0660
0C18
3000
6000
8000
ENDCHAR
STARTCHAR 4EA5
ENCODING 20133
SWIDTH 855 0
DWIDTH 19 0
BBX 15 19 2 -2
BITMAP
0100
0100
0000
FFFE
0000
0800
1840
10C0
3E80
0100
0320
0660
0840
3080
4100
0230
041C
1800
2000
ENDCHAR
STARTCHAR 4EA6
ENCODING 20134
SWIDTH 900 0
DWIDTH 20 0
BBX 14 18 3 0
BITMAP
0100
0100
0000
FFFC
0000
0000
0080
0080
0480
4480
8498
8C8C
0880
0880
1880
1080
2180
4000
ENDCHAR
STARTCHAR 4EA7
ENCODING 20135
SWIDTH 855 0
DWIDTH 19 0
BBX 15 20 2 -2
BITMAP
0080
0080
0000
7FFE
0000
0410
0620
0000
2FFC
2000
2000
2000
2000
6000
4000
4000
4000
4000
8000
8000
ENDCHAR
STARTCHAR 4EA8
ENCODING 20136
SWIDTH 945 0
DWIDTH 21 0
BBX 15 19 3 -2
BITMAP
0100
0100
FFFE
0000
0FE0
0820
0820
0820
0FE0
0000
0000
3FF0
0030
00C0
0180
0100
0100
0100
0300
ENDCHAR
STARTCHAR 4EA9
ENCODING 20137
SWIDTH 900 0
DWIDTH 20 0
BBX 16 19 2 -2
BITMAP
0080
0080
0000
0000
FFFF
0000
0000
0000
3FF8
2008
2088
2088
2088
27E8
2088
2088
2008
2008
3FF8
ENDCHAR
STARTCHAR 4EAB
ENCODING 20139
SWIDTH 855 0
DWIDTH 19 0
BBX 15 18 2 -1
BITMAP
0100
0100
7FFE
0000
07C0
0440
0440
0440
07C0
0000
1FE0
0040
0080
FFFE
0100
0100
0100
0300
ENDCHAR
STARTCHAR 4EAC
ENCODING 20140
SWIDTH 855 0
DWIDTH 19 0
BBX 15 20 2 -2
BITMAP
0100
0100
0000
FFFE
0000
0000
0FE0
0820
0820
0820
0820
0FE0
0000
0100
1108
7106
C100
0100
0300
0100
ENDCHAR
STARTCHAR 4EAD
ENCODING 20141
SWIDTH 900 0
DWIDTH 20 0
BBX 14 20 3 -3
BITMAP
0200
0200
0000
FFF8
0000
0000
1FC0
1040
1FC0
0000
0000
BFFC
8004
8004
9FC4
0000
0100
0100
0100
0700
ENDCHAR
STARTCHAR 4EAE
ENCODING 20142
SWIDTH 855 0
DWIDTH 19 0
BBX 13 20 3 -2
BITMAP
0200
0200
0000
0000
FFF8
0FC0
0840
0840
0FC0
0000
BFF8
8008
8008
8B88
0880
0880
0880
1090
10F0
2000
ENDCHAR
STARTCHAR 4EB2
ENCODING 20146
SWIDTH 855 0
DWIDTH 19 0
BBX 15 20 2 -2
BITMAP
0100
0100
0000
3FFC
0000
0820
0460
0000
FFFE
0000
0100
0100
0100
3FFC
0100
0100
310C
4106
0700
0100
ENDCHAR
STARTCHAR 4EB3
ENCODING 20147
SWIDTH 945 0
DWIDTH 21 0
BBX 15 19 3 -1
BITMAP
0100
0100
0000
7FFC
0FC0
0840
0840
0FC0
0000
9FFE
8002
8002
1FC0
0200
0200
7FFC
0200
0210
03F8
ENDCHAR
STARTCHAR 4EB5
ENCODING 20149
SWIDTH 900 0
DWIDTH 20 0
BBX 14 20 3 -2
BITMAP
0100
0100
0000
0000
FFFC
1040
FDF0
10D0
1890
F190
D1F0
119C
7108
0920
3060
6000
9000
1020
1018
1C00
ENDCHAR
STARTCHAR 4EBA
ENCODING 20154
SWIDTH 900 0
DWIDTH 20 0
BBX 12 16 4 0
BITMAP
0200
0200
0600
0400
0400
0400
0800
0800
1800
1000
1000
30C0
2070
4000
4000
8000
ENDCHAR
STARTCHAR 4EBB
ENCODING 20155
SWIDTH 900 0
DWIDTH 20 0
BBX 4 14 3 1
BITMAP
10
30
60
C0
00
20
20
20
20
20
20
20
20
20
ENDCHAR
STARTCHAR 4EBF
ENCODING 20159
SWIDTH 855 0
DWIDTH 19 0
BBX 16 14 2 0
BITMAP
13FC
3004
600C
C018
0010
2030
2020
2060
20C0
2080
2180
2100
2302
23FF
ENDCHAR
STARTCHAR 4EC0
ENCODING 20160
SWIDTH 855 0
DWIDTH 19 0
BBX 15 15 2 0
BITMAP
1020
3020
6020
C020
0020
2020
23FE
2020
2020
2020
2020
2020
2020
2020
2020
ENDCHAR
STARTCHAR 4EC1
ENCODING 20161
SWIDTH 855 0
DWIDTH 19 0
BBX 15 15 2 0
BITMAP
1000
3000
41FE
8000
0000
2000
2000
2000
2000
2000
2000
2000
27FE
2000
2000
ENDCHAR
STARTCHAR 4EC2
ENCODING 20162
SWIDTH 900 0
DWIDTH 20 0
BBX 15 19 3 -2
BITMAP
0040
0040
0040
1040
3040
6040
C3FE
0042
2042
20C2
2082
2082
2082
2082
2082
210E
2100
0100
0200
ENDCHAR
STARTCHAR 4EC3
ENCODING 20163
SWIDTH 900 0
DWIDTH 20 0
BBX 15 16 3 -2
BITMAP
01FE
1000
3010
6010
8010
0010
2010
2010
2010
2010
2010
2010
2010
2010
2070
0030
ENDCHAR
STARTCHAR 4EC4
ENCODING 20164
SWIDTH 855 0
DWIDTH 19 0
BBX 15 18 2 -2
BITMAP
7FFE
0000
0000
2000
2000
2020
2020
2060
6040
6040
6040
4080
4080
8198
810C
8300
0200
0400
ENDCHAR
STARTCHAR 4EC5
ENCODING 20165
SWIDTH 855 0
DWIDTH 19 0
BBX 16 14 2 0
BITMAP
1000
33FC
600C
C008
0008
2118
2190
20F0
2030
204C
20C3
2180
2300
2600
ENDCHAR
STARTCHAR 4EC6
ENCODING 20166
SWIDTH 900 0
DWIDTH 20 0
BBX 16 18 2 -1
BITMAP
0020
0020
1020
3020
6020
C020
0020
2020
2027
2020
2020
2020
2020
2020
2020
2020
0020
0020
ENDCHAR
STARTCHAR 4EC7
ENCODING 20167
SWIDTH 900 0
DWIDTH 20 0
BBX 16 17 2 -1
BITMAP
0040
0040
1040
3040
6040
C3FC
80C4
20C4
2084
2084
2084
2184
2104
2305
2207
2600
0400
ENDCHAR
STARTCHAR 4EC9
ENCODING 20169
SWIDTH 900 0
DWIDTH 20 0
BBX 16 16 2 -2
BITMAP
017C
1104
2104
C104
8104
2104
2104
2104
2104
2204
2204
2204
2205
2607
0400
0400
ENDCHAR
STARTCHAR 4ECA
ENCODING 20170
SWIDTH 900 0
DWIDTH 20 0
BBX 14 17 3 1
BITMAP
0100
0200
0400
0860
101C
6100
8100
0000
0000
1FF0
0030
0030
0060
0040
00C0
0180
0100
ENDCHAR
STARTCHAR 4ECB
ENCODING 20171
SWIDTH 855 0
DWIDTH 19 0
BBX 14 19 3 -1
BITMAP
0200
0600
0400
0840
1078
201C
C000
0040
0840
0840
1840
1040
1040
1040
3040
2040
2040
0040
0040
ENDCHAR
STARTCHAR 4ECD
ENCODING 20173
SWIDTH 900 0
DWIDTH 20 0
BBX 16 17 2 -3
BITMAP
03FC
100C
3008
6008
4008
8018
008F
2181
2101
2101
2101
2101
2201
2201
2207
0400
0400
ENDCHAR
STARTCHAR 4ECE
ENCODING 20174
SWIDTH 900 0
DWIDTH 20 0
BBX 15 16 2 -2
BITMAP
0810
0810
0810
0810
0810
1830
1020
1220
1320
1020
2040
204C
20C4
4082
4080
8100
ENDCHAR
STARTCHAR 4ED1
ENCODING 20177
SWIDTH 900 0
DWIDTH 20 0
BBX 15 18 3 1
BITMAP
0100
0300
0600
0400
083C
300E
6000
8000
0800
0810
0870
0980
0800
0800
0800
0800
0808
0FF8
ENDCHAR
STARTCHAR 4ED3
ENCODING 20179
SWIDTH 855 0
DWIDTH 19 0
BBX 15 18 2 -2
BITMAP
0100
0100
0200
0600
0C38
180E
6000
C000
09F0
0810
0810
0810
0870
0800
0800
0804
0804
0FFE
ENDCHAR
STARTCHAR 4ED4
ENCODING 20180
SWIDTH 900 0
DWIDTH 20 0
BBX 16 15 2 0
BITMAP
01FC
1004
6008
C010
0020
2020
27FF
2020
2020
2020
2020
2020
2020
20E0
0060
ENDCHAR
STARTCHAR 4ED5
ENCODING 20181
SWIDTH 855 0
DWIDTH 19 0
BBX 15 14 2 0
BITMAP
1010
3010
6010
C010
0010
23FE
2010
2010
2010
2010
2010
2010
2000
21FC
ENDCHAR
STARTCHAR 4ED6
ENCODING 20182
SWIDTH 900 0
DWIDTH 20 0
BBX 16 16 2 0
BITMAP
0020
0020
1120
2120
6126
81FE
07A2
2122
2122
2122
212E
2120
2100
2100
2101
21FF
ENDCHAR
STARTCHAR 4ED7
ENCODING 20183
SWIDTH 855 0
DWIDTH 19 0
BBX 15 17 2 0
BITMAP
0008
0008
3018
6010
C7FE
8010
2010
2010
20A0
20E0
2070
2078
2044
2040
2080
0180
0100
ENDCHAR
STARTCHAR 4ED8
ENCODING 20184
SWIDTH 900 0
DWIDTH 20 0
BBX 17 15 2 0
BITMAP
100800
300800
600800
83FF80
000800
200800
200800
200800
20C800
200800
200800
200800
200800
203800
000800
ENDCHAR
STARTCHAR 4ED9
ENCODING 20185
SWIDTH 900 0
DWIDTH 20 0
BBX 16 15 2 1
BITMAP
0010
0010
3010
7010
4010
8010
0010
2111
2111
2111
2111
2101
2101
2101
21FF
ENDCHAR
STARTCHAR 4EDD
ENCODING 20189
SWIDTH 855 0
DWIDTH 19 0
BBX 14 18 2 0
BITMAP
0100
0300
0200
0400
0870
301C
6000
C000
1FE0
0000
0100
0100
0100
0100
0100
0000
0000
7FFC
ENDCHAR
STARTCHAR 4EDE
ENCODING 20190
SWIDTH 855 0
DWIDTH 19 0
BBX 15 16 2 -2
BITMAP
03FE
1002
2002
4002
8042
0042
2042
26C2
2C82
2082
2082
2102
2102
2102
220E
0200
ENDCHAR
STARTCHAR 4EDF
ENCODING 20191
SWIDTH 900 0
DWIDTH 20 0
BBX 15 15 3 0
BITMAP
18F8
3100
6000
C020
0020
2020
23FE
2020
2020
2020
2020
2020
2020
2020
0020
ENDCHAR
STARTCHAR 4EE1
ENCODING 20193
SWIDTH 900 0
DWIDTH 20 0
BBX 16 18 2 0
BITMAP
0080
0080
0180
1100
333F
6200
C000
0000
2000
21FC
200C
2008
2010
2020
2060
20C2
2083
01FF
ENDCHAR
STARTCHAR 4EE3
ENCODING 20195
SWIDTH 855 0
DWIDTH 19 0
BBX 15 16 2 1
BITMAP
0080
1088
3088
60C0
C040
0046
007E
27E0
2420
2030
2010
2018
2008
200C
2006
2002
ENDCHAR
STARTCHAR 4EE4
ENCODING 20196
SWIDTH 900 0
DWIDTH 20 0
BBX 15 19 3 -1
BITMAP
0300
0200
0400
0C00
1878
300E
4100
8100
0000
0000
1FF0
0010
0020
0060
00C0
0080
0600
0300
0080
ENDCHAR
STARTCHAR 4EE5
ENCODING 20197
SWIDTH 855 0
DWIDTH 19 0
BBX 15 17 2 -2
BITMAP
0040
0040
8040
8040
80C0
88C0
8CC0
8080
8080
8180
8180
8100
8130
E31C
0206
0200
0400
ENDCHAR
STARTCHAR 4EE8
ENCODING 20200
SWIDTH 855 0
DWIDTH 19 0
BBX 14 14 3 1
BITMAP
13FC
3000
6000
C000
0000
2000
23F8
2000
2000
2000
2000
2000
27FC
2000
ENDCHAR
STARTCHAR 4EEA
ENCODING 20202
SWIDTH 900 0
DWIDTH 20 0
BBX 14 15 3 0
BITMAP
1080
30CC
6048
C008
0008
2010
2190
20F0
2070
2078
2044
2080
2080
2100
0200
ENDCHAR
STARTCHAR 4EEB
ENCODING 20203
SWIDTH 900 0
DWIDTH 20 0
BBX 16 14 2 2
BITMAP
1080
3180
6118
C210
0630
2420
2060
2040
20C4
2082
2183
2179
21C0
2000
ENDCHAR
STARTCHAR 4EEC
ENCODING 20204
SWIDTH 900 0
DWIDTH 20 0
BBX 16 16 2 0
BITMAP
0200
027F
1001
3001
6201
8201
0201
2201
2201
2201
2201
2201
2201
2201
2201
0207
ENDCHAR
STARTCHAR 4EEE
ENCODING 20206
SWIDTH 900 0
DWIDTH 20 0
BBX 16 17 2 -1
BITMAP
001E
1120
3100
6100
C100
8100
217E
2302
2306
2204
2234
2218
261E
2411
2C20
0040
0080
ENDCHAR
STARTCHAR 4EF0
ENCODING 20208
SWIDTH 855 0
DWIDTH 19 0
BBX 17 16 1 1
BITMAP
00C000
110F80
320080
620080
C20880
020880
220880
220880
220880
220880
238980
220800
200800
200800
200800
000800
ENDCHAR
STARTCHAR 4EF2
ENCODING 20210
SWIDTH 855 0
DWIDTH 19 0
BBX 14 18 3 -1
BITMAP
0020
0020
1020
3020
6020
C3FC
0224
2224
2224
2224
23FC
2020
2020
2020
2020
2020
0020
0020
ENDCHAR
STARTCHAR 4EF3
ENCODING 20211
SWIDTH 900 0
DWIDTH 20 0
BBX 17 17 2 0
BITMAP
020800
020800
120800
320800
620800
C20800
020980
22EB00
220800
220800
220800
220800
220800
220800
220800
23E880
038F80
ENDCHAR
STARTCHAR 4EF5
ENCODING 20213
SWIDTH 900 0
DWIDTH 20 0
BBX 16 17 2 1
BITMAP
0100
0300
127E
2600
4400
8010
0010
2010
2010
27FF
2010
2010
2010
2010
2010
2010
0010
ENDCHAR
STARTCHAR 4EF6
ENCODING 20214
SWIDTH 855 0
DWIDTH 19 0
BBX 15 18 2 0
BITMAP
0020
0020
0020
1120
3320
62FC
C220
8420
0020
2020
27FE
2020
2020
2020
2020
2020
2020
2020
ENDCHAR
STARTCHAR 4EF7
ENCODING 20215
SWIDTH 900 0
DWIDTH 20 0
BBX 16 18 2 0
BITMAP
0030
0020
1060
3040
6080
C104
0203
2000
2000
2004
2084
2084
2084
2084
2184
2104
0104
0004
ENDCHAR
STARTCHAR 4EFB
ENCODING 20219
SWIDTH 900 0
DWIDTH 20 0
BBX 16 17 2 1
BITMAP
001C
00FC
01E0
1000
7020
C020
0020
2020
23FF
2020
2020
2020
2020
2020
2020
2000
03FE
ENDCHAR
STARTCHAR 4EFD
ENCODING 20221
SWIDTH 900 0
DWIDTH 20 0
BBX 16 18 2 0
BITMAP
0020
0030
0018
100C
3104
6302
8601
0400
2000
23FC
2004
2004
2084
2084
2184
2104
231C
0200
ENDCHAR
STARTCHAR 4EFF
ENCODING 20223
SWIDTH 900 0
DWIDTH 20 0
BBX 16 18 2 0
BITMAP
0020
0020
1000
33FF
6000
8080
0080
2080
20BE
2082
2182
2102
2102
2102
220E
2200
0200
0400
ENDCHAR
STARTCHAR 4F01
ENCODING 20225
SWIDTH 900 0
DWIDTH 20 0
BBX 14 18 3 1
BITMAP
0300
0200
0600
0C00
1870
3018
6000
C080
0080
1080
1080
10B8
1080
1080
1080
1080
0000
FFFC
ENDCHAR
STARTCHAR 4F09
ENCODING 20233
SWIDTH 900 0
DWIDTH 20 0
BBX 16 16 2 0
BITMAP
0040
0040
1000
37FC
6000
C000
8100
2178
2108
2108
2108
2208
2208
2209
260F
2400
ENDCHAR
STARTCHAR 4F0A
ENCODING 20234
SWIDTH 900 0
DWIDTH 20 0
BBX 17 17 2 -2
BITMAP
03FE00
104200
304200
67FF80
C04200
004200
20C200
23FE00
208000
208000
208000
210000
210000
210000
230000
020000
020000
ENDCHAR
STARTCHAR 4F0D
ENCODING 20237
SWIDTH 900 0
DWIDTH 20 0
BBX 16 15 2 -1
BITMAP
01FF
1000
2060
4040
8040
0040
21FE
2042
2042
2042
2042
20C2
2000
2000
27FF
ENDCHAR
STARTCHAR 4F0E
ENCODING 20238
SWIDTH 855 0
DWIDTH 19 0
BBX 15 17 2 -1
BITMAP
0020
0020
1020
33FE
6020
C020
0020
2000
21FC
2004
200C
20C8
2070
2038
2066
2080
0300
ENDCHAR
STARTCHAR 4F0F
ENCODING 20239
SWIDTH 900 0
DWIDTH 20 0
BBX 16 16 2 -1
BITMAP
0020
1024
3024
6064
8060
0040
27FF
2040
2040
20C0
2080
208E
2083
2180
2100
0100
ENDCHAR
STARTCHAR 4F10
ENCODING 20240
SWIDTH 855 0
DWIDTH 19 0
BBX 16 17 2 -1
BITMAP
0080
0080
00C4
1044
2040
4040
8060
07FE
2020
2030
2030
2012
201C
2018
206C
2385
2603
ENDCHAR
STARTCHAR 4F11
ENCODING 20241
SWIDTH 900 0
DWIDTH 20 0
BBX 17 17 2 0
BITMAP
002000
002000
102000
302000
C02000
83FF00
002000
202000
202000
202200
212300
232180
222000
202000
202000
202000
002000
ENDCHAR
STARTCHAR 4F17
ENCODING 20247
SWIDTH 900 0
DWIDTH 20 0
BBX 15 19 3 -1
BITMAP
0300
0200
0600
0C00
18F0
301C
6000
8000
1020
1020
1060
3040
2040
2E40
20D0
409C
4086
8100
0100
ENDCHAR
STARTCHAR 4F18
ENCODING 20248
SWIDTH 900 0
DWIDTH 20 0
BBX 17 18 2 -2
BITMAP
004000
004000
104400
304400
604000
804000
07FF00
20C000
20C000
208800
208800
208800
218800
218800
210900
210F80
030000
020000
ENDCHAR
STARTCHAR 4F19
ENCODING 20249
SWIDTH 855 0
DWIDTH 19 0
BBX 15 17 2 -1
BITMAP
0020
0020
1020
3020
6020
C020
0264
2040
2040
2040
2040
2080
208C
2086
2102
2100
0200
ENDCHAR
STARTCHAR 4F1A
ENCODING 20250
SWIDTH 855 0
DWIDTH 19 0
BBX 13 18 3 0
BITMAP
0600
0400
0C00
1800
30E0
6038
C000
1F80
0000
0000
0000
FFF8
0000
1800
1040
3020
3F30
3C10
ENDCHAR
STARTCHAR 4F1B
ENCODING 20251
SWIDTH 855 0
DWIDTH 19 0
BBX 15 15 2 -1
BITMAP
03FE
1000
3000
6200
C200
020C
2238
2218
2216
2220
2240
2200
2200
2200
23FE
ENDCHAR
STARTCHAR 4F1E
ENCODING 20254
SWIDTH 900 0
DWIDTH 20 0
BBX 14 19 3 -1
BITMAP
0300
0600
0400
0860
101C
6000
C100
0100
0110
1930
0100
0100
FFFC
0100
0100
0100
0100
0100
0100
ENDCHAR
STARTCHAR 4F1F
ENCODING 20255
SWIDTH 855 0
DWIDTH 19 0
BBX 15 19 2 -1
BITMAP
0040
0040
0040
13FC
3040
6040
C040
03F8
2040
2040
27FE
2042
2042
2042
2042
204E
2040
0040
0040
ENDCHAR
STARTCHAR 4F20
ENCODING 20256
SWIDTH 900 0
DWIDTH 20 0
BBX 16 17 2 0
BITMAP
0040
0040
11FE
7040
C040
07FF
2080
2080
2080
20FE
2006
2004
200C
2018
2040
0070
0018
ENDCHAR
STARTCHAR 4F22
ENCODING 20258
SWIDTH 900 0
DWIDTH 20 0
BBX 16 17 2 -1
BITMAP
03FE
0000
1000
3004
6004
4104
8104
0104
21FF
2004
2004
2084
2084
2104
211C
221C
220C
ENDCHAR
STARTCHAR 4F24
ENCODING 20260
SWIDTH 900 0
DWIDTH 20 0
BBX 16 19 2 -2
BITMAP
0100
0100
0200
127F
3200
6000
C040
0040
2040
23FE
2082
2082
2082
2082
2082
2102
010E
0100
0200
ENDCHAR
STARTCHAR 4F25
ENCODING 20261
SWIDTH 900 0
DWIDTH 20 0
BBX 16 16 2 -1
BITMAP
1086
308C
6098
C0B0
8080
0080
23FF
2080
2080
2098
208C
2083
2080
20E0
20C0
0080
ENDCHAR
STARTCHAR 4F26
ENCODING 20262
SWIDTH 900 0
DWIDTH 20 0
BBX 17 17 2 1
BITMAP
002000
006000
104000
30C000
618C00
C30300
000000
200000
200000
208000
208600
209C00
208000
208000
208100
208100
00FF80
ENDCHAR
STARTCHAR 4F27
ENCODING 20263
SWIDTH 900 0
DWIDTH 20 0
BBX 17 18 2 0
BITMAP
002000
002000
004000
10C000
318C00
620700
C40180
000000
200000
21FC00
200400
210400
210400
210C00
210000
210100
210100
01FF80
ENDCHAR
STARTCHAR 4F2A
ENCODING 20266
SWIDTH 855 0
DWIDTH 19 0
BBX 15 19 2 -2
BITMAP
0040
0040
0040
1240
3040
6040
C0C0
07FE
2082
2082
2082
2122
2112
2102
2202
2202
240E
0400
0800
ENDCHAR
STARTCHAR 4F2B
ENCODING 20267
SWIDTH 900 0
DWIDTH 20 0
BBX 17 16 2 1
BITMAP
001000
001000
32FF00
620100
C20100
800000
000000
200000
200000
200000
200000
200000
200000
200000
200000
23FF80
ENDCHAR
STARTCHAR 4F2F
ENCODING 20271
SWIDTH 900 0
DWIDTH 20 0
BBX 15 16 3 1
BITMAP
0030
0020
1000
3000
61FE
C102
0102
2102
2102
217A
2102
2102
2102
2102
2102
21FE
ENDCHAR
STARTCHAR 4F30
ENCODING 20272
SWIDTH 855 0
DWIDTH 19 0
BBX 15 17 2 0
BITMAP
0020
0020
1020
3020
73FE
E020
8020
0020
2000
2000
21FC
2104
2104
2104
2104
2104
01FC
ENDCHAR
STARTCHAR 4F32
ENCODING 20274
SWIDTH 900 0
DWIDTH 20 0
BBX 16 18 2 -1
BITMAP
0200
02FE
1202
3202
6202
C2FE
0200
2200
2220
2220
2226
242C
2420
2420
2420
2821
083F
0800
ENDCHAR
STARTCHAR 4F34
ENCODING 20276
SWIDTH 900 0
DWIDTH 20 0
BBX 16 19 2 -1
BITMAP
0020
0020
0020
1A26
3024
6020
C020
83FC
2020
2020
2020
23FF
2020
2020
2020
2020
2020
0020
0020
ENDCHAR
STARTCHAR 4F36
ENCODING 20278
SWIDTH 855 0
DWIDTH 19 0
BBX 16 17 2 0
BITMAP
0020
0040
30C0
6088
C106
8203
2420
2020
2000
21FC
2004
200C
2008
2010
20C0
0030
0008
ENDCHAR
STARTCHAR 4F38
ENCODING 20280
SWIDTH 900 0
DWIDTH 20 0
BBX 15 18 3 -1
BITMAP
0020
0020
1020
3020
63FE
8222
0222
2222
22FA
2222
2222
2222
23FE
2020
2020
2020
0020
0020
ENDCHAR
STARTCHAR 4F3A
ENCODING 20282
SWIDTH 855 0
DWIDTH 19 0
BBX 15 16 2 -2
BITMAP
07FE
1002
3002
6002
C3FA
0002
2002
23F2
2212
2212
2212
2212
23F2
2002
0002
0006
ENDCHAR
STARTCHAR 4F3C
ENCODING 20284
SWIDTH 900 0
DWIDTH 20 0
BBX 17 18 2 -2
BITMAP
000400
000400
000400
120400
324C00
426C00
820C00
220800
220800
220800
220800
221800
221300
239080
201000
201000
002000
002000
ENDCHAR
STARTCHAR 4F3D
ENCODING 20285
SWIDTH 900 0
DWIDTH 20 0
BBX 17 18 2 -3
BITMAP
020000
120000
320000
620000
C20000
8FC000
024000
224F80
224880
224880
264880
264880
244880
244F80
25C000
240000
080000
080000
ENDCHAR
STARTCHAR 4F43
ENCODING 20291
SWIDTH 855 0
DWIDTH 19 0
BBX 15 14 2 0
BITMAP
13FE
3202
6212
C212
0212
2212
22FE
2212
2212
2212
2212
2202
2202
23FE
ENDCHAR
STARTCHAR 4F46
ENCODING 20294
SWIDTH 900 0
DWIDTH 20 0
BBX 16 15 2 0
BITMAP
11FE
3102
6102
6102
C102
017A
2102
2102
2102
21FE
2000
2000
2000
2000
23FF
ENDCHAR
STARTCHAR 4F4D
ENCODING 20301
SWIDTH 900 0
DWIDTH 20 0
BBX 16 17 2 0
BITMAP
0010
0010
0000
1000
33FE
6000
C000
0000
2000
2004
2084
2040
2000
2000
2000
2000
23FF
ENDCHAR
STARTCHAR 4F4E
ENCODING 20302
SWIDTH 900 0
DWIDTH 20 0
BBX 17 18 2 -1
BITMAP
000200
003E00
10F000
300000
621800
C20800
020800
220800
227F00
220C00
220C00
220400
220600
238600
200200
200380
004180
003000
ENDCHAR
STARTCHAR 4F4F
ENCODING 20303
SWIDTH 900 0
DWIDTH 20 0
BBX 16 17 2 0
BITMAP
0020
0020
0000
1000
33FF
6000
C020
0020
2020
21FE
2020
2020
2020
2020
2020
2000
23FF
ENDCHAR
STARTCHAR 4F50
ENCODING 20304
SWIDTH 900 0
DWIDTH 20 0
BBX 16 17 2 0
BITMAP
0040
0040
1040
30C0
73FF
C0C0
0080
2180
213E
2200
2200
2410
2010
2010
2010
2000
03FF
ENDCHAR
STARTCHAR 4F51
ENCODING 20305
SWIDTH 900 0
DWIDTH 20 0
BBX 16 17 2 1
BITMAP
0040
0040
1040
30C0
63FF
C080
0080
2100
2100
2100
227E
2242
2042
2042
2042
2042
007E
ENDCHAR
STARTCHAR 4F53
ENCODING 20307
SWIDTH 900 0
DWIDTH 20 0
BBX 16 17 2 0
BITMAP
0020
0020
1020
3020
6020
C7FE
0020
0020
2024
2022
2221
2620
24F8
2020
2020
2020
2020
ENDCHAR
STARTCHAR 4F55
ENCODING 20309
SWIDTH 900 0
DWIDTH 20 0
BBX 16 15 2 -1
BITMAP
13FF
3000
6004
C004
8004
23E4
2224
2224
2224
2224
23E4
2004
2004
2004
000C
ENDCHAR
STARTCHAR 4F57
ENCODING 20311
SWIDTH 900 0
DWIDTH 20 0
BBX 16 18 2 0
BITMAP
0010
0010
0000
32FF
6201
4201
8201
0000
2000
2080
2084
208C
2080
2080
2080
2082
2083
00FF
ENDCHAR
STARTCHAR 4F58
ENCODING 20312
SWIDTH 900 0
DWIDTH 20 0
BBX 16 19 2 -2
BITMAP
0100
0300
0200
0600
0C30
101E
6000
8FC0
0000
0000
0000
7FFE
0000
0080
0080
308C
6083
C080
0380
ENDCHAR
STARTCHAR 4F59
ENCODING 20313
SWIDTH 900 0
DWIDTH 20 0
BBX 16 19 1 -1
BITMAP
0180
0100
0300
0620
0C1E
1800
6000
07E0
0000
0080
0080
3FFF
0080
0080
1084
7086
8081
0380
0080
ENDCHAR
STARTCHAR 4F5A
ENCODING 20314
SWIDTH 900 0
DWIDTH 20 0
BBX 17 18 2 -1
BITMAP
001000
001000
119000
217E00
411000
823000
002000
202000
202000
23FF80
206000
204000
204000
208F00
208180
218000
010000
020000
ENDCHAR
STARTCHAR 4F5B
ENCODING 20315
SWIDTH 900 0
DWIDTH 20 0
BBX 17 19 2 -1
BITMAP
000800
002800
002800
13FF00
302900
602900
802900
03FF00
226800
226800
224800
23FF80
20C880
20C880
208880
218B80
210800
020800
040800
ENDCHAR
STARTCHAR 4F5C
ENCODING 20316
SWIDTH 855 0
DWIDTH 19 0
BBX 16 18 2 -1
BITMAP
0100
0100
1300
327F
6600
C400
0040
2040
205E
2040
2040
2040
205E
2040
2040
2040
0040
0040
ENDCHAR
STARTCHAR 4F5D
ENCODING 20317
SWIDTH 855 0
DWIDTH 19 0
BBX 15 17 2 0
BITMAP
0100
0300
1200
32FE
6402
C002
0002
2002
23E2
2222
2222
2222
23E2
2002
2002
2002
0006
ENDCHAR
STARTCHAR 4F5E
ENCODING 20318
SWIDTH 900 0
DWIDTH 20 0
BBX 16 18 2 -2
BITMAP
00FC
0000
1000
3000
6000
C3FE
8000
2040
2040
23FF
20C0
208C
20C8
2078
203C
2062
0180
0200
ENDCHAR
STARTCHAR 4F5F
ENCODING 20319
SWIDTH 900 0
DWIDTH 20 0
BBX 16 18 2 -1
BITMAP
0040
0080
11BE
3104
600C
8048
0070
203C
20C3
2300
2000
2030
2018
2000
2000
2000
0070
0018
ENDCHAR
STARTCHAR 4F60
ENCODING 20320
SWIDTH 900 0
DWIDTH 20 0
BBX 16 16 2 0
BITMAP
0080
1100
3300
663F
8002
0004
2000
2020
2020
2020
2623
2420
2020
2020
2020
20E0
ENDCHAR
STARTCHAR 4F63
ENCODING 20323
SWIDTH 900 0
DWIDTH 20 0
BBX 16 16 2 -1
BITMAP
12FF
3201
6201
C221
8221
22FD
2221
2221
22F9
2221
2221
2221
2621
2407
0400
0400
ENDCHAR
STARTCHAR 4F64
ENCODING 20324
SWIDTH 855 0
DWIDTH 19 0
BBX 16 15 2 -1
BITMAP
13FE
3000
6000
C100
0100
213C
2104
2104
2104
2124
2114
2104
2104
2106
01C7
ENDCHAR
STARTCHAR 4F65
ENCODING 20325
SWIDTH 900 0
DWIDTH 20 0
BBX 14 18 3 1
BITMAP
0100
0300
0200
0400
0838
100C
6000
8000
0FF0
0000
0000
0300
0108
2018
1010
0000
0000
7FFC
ENDCHAR
STARTCHAR 4F67
ENCODING 20327
SWIDTH 900 0
DWIDTH 20 0
BBX 16 19 2 -1
BITMAP
0020
0020
0020
103E
3020
6020
C020
0000
23FF
2000
2020
2020
202C
2027
2020
2020
2020
0020
0020
ENDCHAR
STARTCHAR 4F69
ENCODING 20329
SWIDTH 855 0
DWIDTH 19 0
BBX 17 17 1 -1
BITMAP
03FF00
000100
100100
340100
64FD00
C40100
042100
242100
24FD00
24A500
24A500
24A500
2CA500
28AD00
28AD00
282080
082080
ENDCHAR
STARTCHAR 4F6C
ENCODING 20332
SWIDTH 855 0
DWIDTH 19 0
BBX 16 18 2 0
BITMAP
0020
0020
0020
11FC
3022
6024
C00C
07FF
2030
2060
2180
2604
2898
2080
2080
2082
2082
00FF
ENDCHAR
STARTCHAR 4F6F
ENCODING 20335
SWIDTH 855 0
DWIDTH 19 0
BBX 15 17 2 1
BITMAP
0188
0090
1000
23FE
4000
8020
0020
2020
21F8
2020
2020
27FE
2020
2020
2020
2020
0020
ENDCHAR
STARTCHAR 4F70
ENCODING 20336
SWIDTH 900 0
DWIDTH 20 0
BBX 16 15 2 0
BITMAP
01FF
1000
3010
C020
0000
2000
20FE
2082
2082
20BA
2082
2082
2082
2082
00FE
ENDCHAR
STARTCHAR 4F73
ENCODING 20339
SWIDTH 855 0
DWIDTH 19 0
BBX 15 17 2 0
BITMAP
0020
0020
0020
31FC
6020
C020
0000
03FE
2000
2020
2020
21FC
2020
2020
2020
2000
07FE
ENDCHAR
STARTCHAR 4F74
ENCODING 20340
SWIDTH 900 0
DWIDTH 20 0
BBX 16 18 2 -1
BITMAP
07FF
0000
1104
6104
4174
8104
0104
2104
2174
2104
2104
2004
20FF
27F4
2004
2004
0004
0004
ENDCHAR
STARTCHAR 4F76
ENCODING 20342
SWIDTH 900 0
DWIDTH 20 0
BBX 16 17 2 0
BITMAP
0020
0020
17FF
3020
6020
C020
8000
21FC
2000
2000
2000
21FC
2104
2104
2104
2104
01FC
ENDCHAR
STARTCHAR 4F7B
ENCODING 20347
SWIDTH 900 0
DWIDTH 20 0
BBX 17 18 2 -1
BITMAP
004000
004000
104800
304800
604B00
C64F00
004800
20C800
20CF80
268800
2C8800
208800
208900
208F80
218000
210000
010000
010000
ENDCHAR
STARTCHAR 4F7C
ENCODING 20348
SWIDTH 855 0
DWIDTH 19 0
BBX 15 18 2 -1
BITMAP
0020
0020
0000
33FE
6000
C080
018C
2306
2000
2008
2088
20D0
2030
2038
204C
20C2
0180
0200
ENDCHAR
STARTCHAR 4F7E
ENCODING 20350
SWIDTH 855 0
DWIDTH 19 0
BBX 16 19 2 -2
BITMAP
0030
0018
1988
3104
6302
C202
8601
0400
217E
2102
2102
2172
2102
2102
2172
2102
2102
0102
010E
ENDCHAR
STARTCHAR 4F7F
ENCODING 20351
SWIDTH 855 0
DWIDTH 19 0
BBX 15 18 2 0
BITMAP
0020
0020
17FE
3020
6020
81FE
0122
2122
2142
21FE
2040
2040
23C0
20E0
209E
2080
0100
0300
ENDCHAR
STARTCHAR 4F83
ENCODING 20355
SWIDTH 900 0
DWIDTH 20 0
BBX 16 18 2 -2
BITMAP
03FC
0204
1204
3204
6204
C204
83FC
2000
2000
2204
2244
2244
2244
2244
2444
2445
0447
0C00
ENDCHAR
STARTCHAR 4F84
ENCODING 20356
SWIDTH 855 0
DWIDTH 19 0
BBX 15 16 2 0
BITMAP
03FE
1000
3080
6180
C10C
0106
23C0
2000
2020
2020
21F8
2020
2020
2020
2000
03FE
ENDCHAR
STARTCHAR 4F88
ENCODING 20360
SWIDTH 900 0
DWIDTH 20 0
BBX 15 18 3 -2
BITMAP
0080
0100
137C
320C
6018
C1B0
8060
20C0
2100
2000
2080
213E
2306
228C
2018
2030
0060
0180
ENDCHAR
STARTCHAR 4F89
ENCODING 20361
SWIDTH 855 0
DWIDTH 19 0
BBX 16 19 2 -2
BITMAP
0020
0060
0040
13FE
30C0
6188
C10E
8303
24F8
2000
23FE
2000
2080
2080
20FC
2004
2004
0004
001C
ENDCHAR
STARTCHAR 4F8B
ENCODING 20363
SWIDTH 900 0
DWIDTH 20 0
BBX 17 18 2 -1
BITMAP
000080
07E080
100080
300080
630080
C20880
860880
25C880
204880
204880
224880
234880
20C080
208080
208080
210080
010080
020380
ENDCHAR
STARTCHAR 4F8D
ENCODING 20365
SWIDTH 900 0
DWIDTH 20 0
BBX 16 18 2 -2
BITMAP
0010
0010
11FE
3010
6010
C010
03FF
2000
2004
2004
2004
23FF
2004
2004
20C4
2004
0004
000C
ENDCHAR
STARTCHAR 4F8F
ENCODING 20367
SWIDTH 900 0
DWIDTH 20 0
BBX 16 19 2 -1
BITMAP
0010
0010
0190
1190
317E
6110
C010
0010
2010
23FF
2010
2010
2090
2190
2113
2010
2010
0010
0010
ENDCHAR
STARTCHAR 4F91
ENCODING 20369
SWIDTH 900 0
DWIDTH 20 0
BBX 16 18 2 -1
BITMAP
0010
0020
0020
13FF
30C0
6080
C180
8300
0200
20BE
2082
20BA
2082
20BA
2082
2082
2082
0086
ENDCHAR
STARTCHAR 4F94
ENCODING 20372
SWIDTH 900 0
DWIDTH 20 0
BBX 16 17 2 0
BITMAP
0040
1082
30F1
6000
8008
00C8
2088
21BE
2108
2008
2008
23FF
2008
2008
2008
0008
0008
ENDCHAR
STARTCHAR 4F97
ENCODING 20375
SWIDTH 900 0
DWIDTH 20 0
BBX 16 16 2 -1
BITMAP
02FF
1201
3201
627D
C201
0201
2201
2279
2249
2249
2249
2279
2201
2201
2201
0207
ENDCHAR
STARTCHAR 4F9B
ENCODING 20379
SWIDTH 900 0
DWIDTH 20 0
BBX 16 17 2 -2
BITMAP
0008
1088
3088
7088
67FE
C088
0088
2088
2088
2000
27FF
2000
2000
2000
200E
2180
0300
ENDCHAR
STARTCHAR 4F9D
ENCODING 20381
SWIDTH 855 0
DWIDTH 19 0
BBX 16 17 2 -1
BITMAP
0020
0020
1000
33FE
6000
C000
0080
2182
2306
2204
2400
20B0
2098
2084
2083
2080
00C0
ENDCHAR
STARTCHAR 4FA0
ENCODING 20384
SWIDTH 900 0
DWIDTH 20 0
BBX 16 18 2 -1
BITMAP
0020
0020
1020
33FE
6020
8040
0346
2044
2040
27FF
2040
2080
2080
208C
2186
2101
0100
0200
ENDCHAR
STARTCHAR 4FA3
ENCODING 20387
SWIDTH 900 0
DWIDTH 20 0
BBX 16 16 2 0
BITMAP
01FE
1102
3102
6102
C102
81FE
2000
2000
23FF
2201
2201
2201
2201
2201
2201
03FF
ENDCHAR
STARTCHAR 4FA5
ENCODING 20389
SWIDTH 900 0
DWIDTH 20 0
BBX 16 19 2 -1
BITMAP
0040
0042
007E
13E0
3024
603C
C030
80CF
2002
2000
23FF
2000
2000
2008
2088
2109
2109
010F
0200
ENDCHAR
STARTCHAR 4FA6
ENCODING 20390
SWIDTH 900 0
DWIDTH 20 0
BBX 16 19 2 -3
BITMAP
0020
0020
102F
1020
3020
6020
81FE
0102
2102
2122
2122
2122
2122
2060
2040
204C
20C6
0080
0300
ENDCHAR
STARTCHAR 4FA7
ENCODING 20391
SWIDTH 900 0
DWIDTH 20 0
BBX 17 17 2 -2
BITMAP
000080
100080
33F080
621080
C21080
829480
229480
229480
229480
229480
239480
210080
212080
213880
230080
020080
040380
ENDCHAR
STARTCHAR 4FA8
ENCODING 20392
SWIDTH 855 0
DWIDTH 19 0
BBX 16 18 2 -1
BITMAP
000C
00F8
0000
1000
3020
6020
C3FF
0040
2086
2183
2300
2000
2004
2084
2084
2184
2104
0304
ENDCHAR
STARTCHAR 4FA9
ENCODING 20393
SWIDTH 900 0
DWIDTH 20 0
BBX 16 18 2 0
BITMAP
0020
0020
0040
1088
7187
C200
8000
0078
2000
2000
21FF
2000
2000
2040
20C4
2082
00F1
01C0
ENDCHAR
STARTCHAR 4FAA
ENCODING 20394
SWIDTH 855 0
DWIDTH 19 0
BBX 15 19 2 -1
BITMAP
0020
0020
0000
13FE
3000
6008
C018
0070
2078
20C6
2300
2004
2084
2084
2084
2184
2104
0304
0204
ENDCHAR
STARTCHAR 4FAC
ENCODING 20396
SWIDTH 855 0
DWIDTH 19 0
BBX 15 18 2 -2
BITMAP
0020
0020
0020
1060
32FE
6242
4242
82C2
2080
2182
2106
2204
2490
2088
2084
2082
2080
00E0
ENDCHAR
STARTCHAR 4FAE
ENCODING 20398
SWIDTH 855 0
DWIDTH 19 0
BBX 16 18 2 -1
BITMAP
0100
0300
023E
1400
2000
41FC
8104
0124
2124
27FF
2104
2124
2124
2104
21FF
2004
2004
001C
ENDCHAR
STARTCHAR 4FAF
ENCODING 20399
SWIDTH 900 0
DWIDTH 20 0
BBX 16 18 2 -1
BITMAP
00FC
0004
1004
3000
63FF
C000
0180
21BE
2100
2210
2010
23FF
2020
2060
2046
20C3
0080
0100
ENDCHAR
STARTCHAR 4FB5
ENCODING 20405
SWIDTH 855 0
DWIDTH 19 0
BBX 15 19 2 -2
BITMAP
01FC
0004
0004
10FC
3004
61FC
8000
0200
22FE
2202
2202
21FC
2004
2088
2068
2038
203C
0062
0180
ENDCHAR
STARTCHAR 4FBF
ENCODING 20415
SWIDTH 900 0
DWIDTH 20 0
BBX 16 19 2 -2
BITMAP
03FF
0000
0000
3020
61FE
C122
8122
217A
2122
2122
21FE
2040
2040
20C0
2070
209C
0102
0300
0200
ENDCHAR
STARTCHAR 4FC3
ENCODING 20419
SWIDTH 855 0
DWIDTH 19 0
BBX 16 16 2 -1
BITMAP
01FC
1104
3104
6104
C104
01FC
2000
2010
2010
2010
201E
2310
2210
2280
2660
043F
ENDCHAR
STARTCHAR 4FC4
ENCODING 20420
SWIDTH 900 0
DWIDTH 20 0
BBX 16 17 2 -1
BITMAP
00E8
07CA
100A
6088
C088
07FE
2088
2088
2088
20EB
238E
268C
2094
2084
2384
0003
0003
ENDCHAR
STARTCHAR 4FC5
ENCODING 20421
SWIDTH 855 0
DWIDTH 19 0
BBX 15 17 2 -2
BITMAP
0020
0024
1822
3020
6020
C3FE
0020
2020
2126
21A4
2020
2024
21A6
2222
2020
2020
00E0
ENDCHAR
STARTCHAR 4FCA
ENCODING 20426
SWIDTH 900 0
DWIDTH 20 0
BBX 17 19 2 -1
BITMAP
004000
00C000
008400
118600
31F200
600000
800000
008400
210600
200200
200000
208000
21BC00
210400
200C00
203800
203C00
006300
018080
ENDCHAR
STARTCHAR 4FCE
ENCODING 20430
SWIDTH 900 0
DWIDTH 20 0
BBX 17 16 2 1
BITMAP
100000
10FC00
208400
208400
4E8400
80BC00
008400
008400
208400
20BC00
208400
488400
4C8400
808400
008400
03FF80
ENDCHAR
STARTCHAR 4FCF
ENCODING 20431
SWIDTH 900 0
DWIDTH 20 0
BBX 16 19 2 -1
BITMAP
0010
0011
0213
0310
3010
6000
C17F
8101
2101
2179
2101
2101
2179
2101
2101
2101
2101
0107
0100
ENDCHAR
STARTCHAR 4FD0
ENCODING 20432
SWIDTH 855 0
DWIDTH 19 0
BBX 17 17 1 0
BITMAP
000080
01E080
178080
300080
608080
808480
208480
208480
27E480
208480
208480
20A480
248080
288080
208080
008180
008000
ENDCHAR
STARTCHAR 4FD1
ENCODING 20433
SWIDTH 900 0
DWIDTH 20 0
BBX 16 18 2 -2
BITMAP
01F8
0008
0018
10D0
2020
C2FF
8201
0201
2221
22F9
2221
2221
22F9
2221
2221
2221
0201
0207
ENDCHAR
STARTCHAR 4FD7
ENCODING 20439
SWIDTH 855 0
DWIDTH 19 0
BBX 16 17 2 1
BITMAP
0004
0082
1100
3000
6000
C020
0020
204C
20C7
2180
2300
2200
207C
2044
2044
2044
007C
ENDCHAR
STARTCHAR 4FD8
ENCODING 20440
SWIDTH 900 0
DWIDTH 20 0
BBX 16 17 2 -1
BITMAP
01FE
1000
3122
6186
C000
8000
0000
20FC
200C
2018
2010
2010
23FF
2010
2010
2010
0070
ENDCHAR
STARTCHAR 4FDA
ENCODING 20442
SWIDTH 855 0
DWIDTH 19 0
BBX 15 16 2 0
BITMAP
01FE
1122
3122
617A
C122
8122
21FE
2020
2020
2020
21FE
2020
2020
2020
2000
07FE
ENDCHAR
STARTCHAR 4FDC
ENCODING 20444
SWIDTH 900 0
DWIDTH 20 0
BBX 16 18 2 -1
BITMAP
0020
0020
0020
01FC
117C
2124
C124
01FC
2000
23FF
2000
2080
2080
20FC
2004
2004
2004
000C
ENDCHAR
STARTCHAR 4FDD
ENCODING 20445
SWIDTH 900 0
DWIDTH 20 0
BBX 17 17 2 -1
BITMAP
01FC00
110400
310400
610400
C10400
81FC00
200000
201000
201000
27FF00
201000
201400
231380
261000
201000
001000
001000
ENDCHAR
STARTCHAR 4FDE
ENCODING 20446
SWIDTH 900 0
DWIDTH 20 0
BBX 15 19 3 -2
BITMAP
0200
0200
0400
0400
0860
301E
6000
87C0
0004
5E04
4224
4224
5E24
4224
4224
5E04
4204
4204
461C
ENDCHAR
STARTCHAR 4FDF
ENCODING 20447
SWIDTH 900 0
DWIDTH 20 0
BBX 16 19 2 -3
BITMAP
0040
0044
0086
1082
31F1
61C0
C000
8080
21BE
2100
2100
2010
2010
23FF
2020
2060
2047
0080
0100
ENDCHAR
STARTCHAR 4FE1
ENCODING 20449
SWIDTH 900 0
DWIDTH 20 0
BBX 16 18 2 1
BITMAP
0020
0020
0000
13FF
3000
6000
81FE
2000
2000
21FE
2000
2000
21FE
2102
2102
2102
0102
01FE
ENDCHAR
STARTCHAR 4FE3
ENCODING 20451
SWIDTH 900 0
DWIDTH 20 0
BBX 16 19 2 -1
BITMAP
01FE
0102
0102
1102
3102
61FE
C000
0000
21FE
2000
2020
2020
23FF
2040
20C0
2084
2187
0100
0200
ENDCHAR
STARTCHAR 4FE6
ENCODING 20454
SWIDTH 900 0
DWIDTH 20 0
BBX 16 18 2 -1
BITMAP
0020
0020
13FE
3040
6040
C0FC
0080
2080
23FE
2100
2108
2208
24FF
2408
2008
20C8
0008
0038
ENDCHAR
STARTCHAR 4FE8
ENCODING 20456
SWIDTH 945 0
DWIDTH 21 0
BBX 17 18 2 -2
BITMAP
01FF80
000000
102800
302880
61A900
C02800
800000
20FF80
200000
210000
210000
210000
210000
210000
230000
220000
020000
060000
ENDCHAR
STARTCHAR 4FE9
ENCODING 20457
SWIDTH 900 0
DWIDTH 20 0
BBX 17 18 2 -2
BITMAP
03FF80
000000
104400
304400
604400
C2FF80
024480
024C80
228C80
22A880
228B80
221880
221080
221080
220080
220080
220080
000180
ENDCHAR
STARTCHAR 4FEA
ENCODING 20458
SWIDTH 855 0
DWIDTH 19 0
BBX 17 16 1 -1
BITMAP
03FF80
100000
200000
C00580
826480
022480
222480
222480
222780
22A480
222480
222480
222480
222480
222580
026000
ENDCHAR
STARTCHAR 4FED
ENCODING 20461
SWIDTH 900 0
DWIDTH 20 0
BBX 17 17 2 1
BITMAP
003000
002000
104000
30C000
618800
C30780
040000
200000
20F800
200000
202000
202000
210600
218400
208000
200000
03FF00
ENDCHAR
STARTCHAR 4FEE
ENCODING 20462
SWIDTH 900 0
DWIDTH 20 0
BBX 16 18 2 -1
BITMAP
0020
0040
10DE
3082
6036
C01C
0433
24E0
2508
2418
2420
2400
2038
2003
2006
201C
0030
00C0
ENDCHAR
STARTCHAR 4FEF
ENCODING 20463
SWIDTH 900 0
DWIDTH 20 0
BBX 18 19 1 -1
BITMAP
000800
000800
000000
11FFC0
300000
600000
C12100
816100
21C100
210FC0
210100
234100
234900
234D00
224100
224100
264100
044700
000100
ENDCHAR
STARTCHAR 4FF1
ENCODING 20465
SWIDTH 900 0
DWIDTH 20 0
BBX 17 17 2 -2
BITMAP
017E00
010200
310200
613A00
C10200
013A00
210200
210200
213A00
210200
200000
27FF80
200000
200000
200400
018300
030000
ENDCHAR
STARTCHAR 4FF3
ENCODING 20467
SWIDTH 900 0
DWIDTH 20 0
BBX 17 18 2 0
BITMAP
004800
004800
004800
104800
634B00
C04800
004800
204800
204800
234B00
204800
204800
204B80
274800
204800
204800
004800
004800
ENDCHAR
STARTCHAR 4FF8
ENCODING 20472
SWIDTH 900 0
DWIDTH 20 0
BBX 16 19 2 -1
BITMAP
0010
0030
03FE
1020
3020
60FC
C040
8040
23FE
2080
2111
2210
20FC
2010
2010
23FE
0010
0010
0010
ENDCHAR
STARTCHAR 4FFA
ENCODING 20474
SWIDTH 900 0
DWIDTH 20 0
BBX 16 18 2 0
BITMAP
0020
0060
0040
13FE
30C0
6084
C123
0320
2620
21FE
217A
2122
2122
21FE
2020
2020
2021
003F
ENDCHAR
STARTCHAR 4FFE
ENCODING 20478
SWIDTH 855 0
DWIDTH 19 0
BBX 16 19 2 0
BITMAP
0010
0020
0000
11FE
3102
6112
817A
0112
2132
21FE
2060
2188
2008
2008
23FF
2008
2008
0008
0008
ENDCHAR
STARTCHAR 500C
ENCODING 20492
SWIDTH 900 0
DWIDTH 20 0
BBX 16 18 2 1
BITMAP
0010
0010
0000
12FF
3201
6201
817E
0102
2102
2102
217E
2100
217F
2101
2101
2101
2101
017F
ENDCHAR
STARTCHAR 500D
ENCODING 20493
SWIDTH 900 0
DWIDTH 20 0
BBX 16 18 2 0
BITMAP
0010
0010
0000
11FE
2000
4000
8084
0048
2000
23FF
2000
2000
20FC
2084
2084
2084
2084
00FC
ENDCHAR
STARTCHAR 500F
ENCODING 20495
SWIDTH 855 0
DWIDTH 19 0
BBX 16 19 2 -2
BITMAP
0040
00C0
00BC
1904
314C
6078
C03C
0466
2590
2416
2432
2430
25FF
2060
2040
204C
2083
0100
0100
ENDCHAR
STARTCHAR 5012
ENCODING 20498
SWIDTH 900 0
DWIDTH 20 0
BBX 17 17 2 -1
BITMAP
000080
07F080
180080
330080
622480
C63480
079480
260480
208480
208480
27E480
208080
208080
208080
200080
21E380
070180
ENDCHAR
STARTCHAR 5014
ENCODING 20500
SWIDTH 900 0
DWIDTH 20 0
BBX 17 17 2 0
BITMAP
017F00
010100
110100
310100
617F00
810000
210800
210800
214900
224900
227F00
220800
220800
244880
244880
004080
007F80
ENDCHAR
STARTCHAR 5018
ENCODING 20504
SWIDTH 900 0
DWIDTH 20 0
BBX 17 18 2 -1
BITMAP
001000
001000
001080
119100
301000
600000
C00000
017F80
210080
210080
213C80
212480
212480
213C80
210080
210080
210080
010380
ENDCHAR
STARTCHAR 5019
ENCODING 20505
SWIDTH 855 0
DWIDTH 19 0
BBX 17 17 1 -2
BITMAP
007E00
100200
300200
600000
C1FF80
044000
24C000
249F00
248000
251800
241000
21FF80
203000
202000
202700
004180
00C000
ENDCHAR
STARTCHAR 501A
ENCODING 20506
SWIDTH 855 0
DWIDTH 19 0
BBX 16 19 2 -2
BITMAP
0010
0020
03FF
1040
30C0
618E
C200
0000
27FF
2000
2000
2004
23E4
2224
2224
23E4
2004
0004
000C
ENDCHAR
STARTCHAR 501C
ENCODING 20508
SWIDTH 855 0
DWIDTH 19 0
BBX 16 16 2 -2
BITMAP
02FF
1201
3211
627D
C211
8211
22FD
2201
2201
227D
2245
2245
267D
2401
2403
0401
ENDCHAR
STARTCHAR 501F
ENCODING 20511
SWIDTH 855 0
DWIDTH 19 0
BBX 16 18 2 0
BITMAP
0088
0088
0088
13FE
3088
6088
C000
07FF
2000
2000
21FC
2104
2104
2104
217C
2104
0104
01FC
ENDCHAR
STARTCHAR 5021
ENCODING 20513
SWIDTH 855 0
DWIDTH 19 0
BBX 15 16 2 0
BITMAP
01FE
0102
1172
2102
4102
81FE
0000
2000
23FE
2202
2202
227A
2202
2202
2202
23FE
ENDCHAR
STARTCHAR 5025
ENCODING 20517
SWIDTH 855 0
DWIDTH 19 0
BBX 16 18 2 0
BITMAP
0010
0010
0000
12FF
3201
6201
C0C4
0182
2100
2000
20FC
2000
2010
2010
2010
2010
2000
03FF
ENDCHAR
STARTCHAR 5026
ENCODING 20518
SWIDTH 900 0
DWIDTH 20 0
BBX 16 18 2 0
BITMAP
0260
036C
0048
13FC
20C0
4080
87FE
0100
0302
22FC
2004
2084
2084
209C
2084
2082
2082
20FF
ENDCHAR
STARTCHAR 5028
ENCODING 20520
SWIDTH 900 0
DWIDTH 20 0
BBX 17 17 2 0
BITMAP
017F00
010100
110100
310100
417F00
810000
010400
210400
217F80
230400
220400
220000
223F00
222100
242100
242100
043F00
ENDCHAR
STARTCHAR 5029
ENCODING 20521
SWIDTH 855 0
DWIDTH 19 0
BBX 16 19 2 -2
BITMAP
0010
0010
0010
13FE
3010
60FC
8010
03FF
2000
2000
2000
20BE
2082
20BA
2082
20BA
2082
0082
0086
ENDCHAR
STARTCHAR 502A
ENCODING 20522
SWIDTH 900 0
DWIDTH 20 0
BBX 17 18 2 -1
BITMAP
00C000
011E00
110200
310200
61DA00
810200
010200
21FE00
200000
200000
208800
208800
208800
208900
210900
210F80
030000
020000
ENDCHAR
STARTCHAR 502C
ENCODING 20524
SWIDTH 855 0
DWIDTH 19 0
BBX 16 19 2 -2
BITMAP
0010
0010
001F
1010
3000
61FE
C102
017A
2102
2102
21FE
2000
2010
2010
27FF
2010
2010
0010
0010
ENDCHAR
STARTCHAR 502D
ENCODING 20525
SWIDTH 855 0
DWIDTH 19 0
BBX 15 18 2 -1
BITMAP
01F8
0000
1020
3020
63FE
C020
0124
2626
2000
2040
27FE
2080
2088
21D8
2070
207C
00C6
0300
ENDCHAR
STARTCHAR 502E
ENCODING 20526
SWIDTH 900 0
DWIDTH 20 0
BBX 16 18 2 0
BITMAP
01FE
0102
0102
1122
317A
6122
8122
21FE
2020
2020
23FF
2020
2020
20A6
2323
2220
0020
0020
ENDCHAR
STARTCHAR 503A
ENCODING 20538
SWIDTH 900 0
DWIDTH 20 0
BBX 16 19 2 -2
BITMAP
0020
0020
01FE
0020
3020
60F8
C020
0000
23FF
2000
21FC
2104
2104
2124
2164
2040
20C8
008E
0100
ENDCHAR
STARTCHAR 503C
ENCODING 20540
SWIDTH 900 0
DWIDTH 20 0
BBX 17 19 2 0
BITMAP
001000
001000
001000
001000
03FF00
101000
617E00
810200
010200
210200
213A00
210200
213A00
210200
210200
213A00
210200
200000
03FF80
ENDCHAR
STARTCHAR 503E
ENCODING 20542
SWIDTH 855 0
DWIDTH 19 0
BBX 17 17 1 -2
BITMAP
007F80
100000
340400
640400
C43F80
042080
042080
25A480
242480
242480
242480
240800
270800
200B00
201180
002000
004000
ENDCHAR
STARTCHAR 5043
ENCODING 20547
SWIDTH 855 0
DWIDTH 19 0
BBX 16 17 2 0
BITMAP
03FF
0000
123F
3221
622D
8221
023F
2200
2208
227F
2210
2212
220E
220F
2218
2220
03FF
ENDCHAR
STARTCHAR 5047
ENCODING 20551
SWIDTH 855 0
DWIDTH 19 0
BBX 18 18 1 -2
BITMAP
000780
000080
02E080
122080
622080
82E780
020000
220000
220000
22E780
220080
220180
22E500
220700
220300
220780
020CC0
001800
ENDCHAR
STARTCHAR 5048
ENCODING 20552
SWIDTH 855 0
DWIDTH 19 0
BBX 16 18 2 -2
BITMAP
01FE
0102
117A
3102
6102
C1FE
8000
2000
2100
227F
2601
2011
2021
216D
2181
2101
01F1
0003
ENDCHAR
STARTCHAR 504C
ENCODING 20556
SWIDTH 855 0
DWIDTH 19 0
BBX 16 18 2 -2
BITMAP
0044
0044
03FF
1044
3044
6000
C000
0040
23FF
20C0
2080
2100
227E
2242
2042
2042
2042
007E
ENDCHAR
STARTCHAR 504E
ENCODING 20558
SWIDTH 900 0
DWIDTH 20 0
BBX 16 17 2 -2
BITMAP
01FE
0112
1112
317A
6112
C102
8102
21FE
2000
23FF
2000
2083
2086
2088
208C
2083
00E0
ENDCHAR
STARTCHAR 504F
ENCODING 20559
SWIDTH 900 0
DWIDTH 20 0
BBX 17 20 2 -3
BITMAP
001000
001000
000000
12FF00
320100
620100
820100
02FF00
220000
220000
220000
225F80
264080
245480
245480
247E80
205480
005480
004080
004380
ENDCHAR
STARTCHAR 5055
ENCODING 20565
SWIDTH 900 0
DWIDTH 20 0
BBX 16 18 2 -1
BITMAP
0008
0108
010B
11E8
3108
6108
C109
018F
2020
2020
2000
2000
20FE
2082
2082
20B2
2082
00FE
ENDCHAR
STARTCHAR 505A
ENCODING 20570
SWIDTH 855 0
DWIDTH 19 0
BBX 17 16 1 0
BITMAP
110C00
310800
610800
CFD000
810380
210000
210000
200200
200200
27CA00
244E00
244700
244580
27C800
001000
002000
ENDCHAR
STARTCHAR 505C
ENCODING 20572
SWIDTH 900 0
DWIDTH 20 0
BBX 16 19 2 -1
BITMAP
0020
0020
0000
13FE
3000
60FC
C084
00FC
2000
2200
22FF
2201
22FD
2000
2010
2010
2010
0010
0070
ENDCHAR
STARTCHAR 5065
ENCODING 20581
SWIDTH 855 0
DWIDTH 19 0
BBX 17 19 1 -1
BITMAP
000400
000400
000400
179F00
317F80
610500
C10500
823F00
220400
278400
20BF00
208400
250400
277F80
230400
230400
26C000
047F80
0C0000
ENDCHAR
STARTCHAR 506C
ENCODING 20588
SWIDTH 900 0
DWIDTH 20 0
BBX 16 16 2 1
BITMAP
0100
137F
3201
6041
C3D9
01F1
2139
2021
2043
2000
2000
2020
2211
2481
24E2
003E
ENDCHAR
STARTCHAR 5076
ENCODING 20598
SWIDTH 900 0
DWIDTH 20 0
BBX 16 17 2 0
BITMAP
01FE
0102
1122
317A
6122
8122
01FE
2020
2020
22FF
2221
2221
222D
2205
2271
0203
0200
ENDCHAR
STARTCHAR 5077
ENCODING 20599
SWIDTH 855 0
DWIDTH 19 0
BBX 16 18 2 0
BITMAP
0010
0020
0060
1040
308C
6107
C201
8078
2000
22E2
2222
23AA
222A
222A
23A2
2222
2222
0266
ENDCHAR
STARTCHAR 507B
ENCODING 20603
SWIDTH 900 0
DWIDTH 20 0
BBX 16 19 2 -2
BITMAP
0020
0024
01AC
1020
33FF
6020
C02C
8127
2000
2040
2040
23FF
2080
2098
2070
203C
2067
00C0
0300
ENDCHAR
STARTCHAR 507E
ENCODING 20606
SWIDTH 855 0
DWIDTH 19 0
BBX 16 19 2 -2
BITMAP
0020
0020
01FE
10A4
3084
67FF
8084
0084
2000
21FE
2102
2102
2122
2122
2060
2040
20C0
0186
0300
ENDCHAR
STARTCHAR 507F
ENCODING 20607
SWIDTH 900 0
DWIDTH 20 0
BBX 17 18 2 -1
BITMAP
001000
019100
019300
100000
327F80
620080
C20080
820080
000000
207C00
200000
23FF80
200000
204000
204400
20C200
209A00
20F900
ENDCHAR
STARTCHAR 5080
ENCODING 20608
SWIDTH 900 0
DWIDTH 20 0
BBX 17 18 2 1
BITMAP
002000
004000
000000
100000
31FE00
610200
C12200
01FA00
212200
212200
21FE00
204000
204200
20D280
209780
219000
211080
021F80
ENDCHAR
STARTCHAR 5085
ENCODING 20613
SWIDTH 900 0
DWIDTH 20 0
BBX 17 20 2 -2
BITMAP
001400
001200
001000
03FF80
181000
317F00
411100
817D00
211100
217D00
211100
200000
200400
23FF80
200400
200400
20C400
000400
001C00
000400
ENDCHAR
STARTCHAR 5088
ENCODING 20616
SWIDTH 945 0
DWIDTH 21 0
BBX 17 17 2 0
BITMAP
01FF00
000000
102800
31FF00
612900
812900
01FF00
200000
201000
201000
21FF80
201000
201000
211380
231000
201000
001000
ENDCHAR
STARTCHAR 508D
ENCODING 20621
SWIDTH 900 0
DWIDTH 20 0
BBX 17 18 2 -1
BITMAP
001000
001000
11FF00
300000
60C400
C00000
82FF80
020080
221080
201000
23FF80
200000
204000
204000
20BE00
208200
010600
030000
ENDCHAR
STARTCHAR 5091
ENCODING 20625
SWIDTH 900 0
DWIDTH 20 0
BBX 17 19 2 -2
BITMAP
010400
02DF00
104400
304400
605400
C35400
809F80
218400
230400
262400
202000
202000
27FF00
202000
202000
272700
002000
002000
002000
ENDCHAR
STARTCHAR 50A3
ENCODING 20643
SWIDTH 945 0
DWIDTH 21 0
BBX 17 18 2 -2
BITMAP
001000
001000
01FE00
102000
302000
61FC00
804000
004000
23FF00
208000
211180
221000
201200
211000
201000
219380
021000
007000
ENDCHAR
STARTCHAR 50A5
ENCODING 20645
SWIDTH 900 0
DWIDTH 20 0
BBX 16 19 2 -2
BITMAP
0020
0122
0124
1000
32FF
6201
C201
00FC
2084
2084
2084
20FC
2000
2088
2088
2088
2089
010F
0100
ENDCHAR
STARTCHAR 50A7
ENCODING 20647
SWIDTH 900 0
DWIDTH 20 0
BBX 17 19 2 -2
BITMAP
001000
001000
000000
12FF00
320100
620D00
C0B000
808000
208000
20BF00
208000
208800
200800
200000
23FF80
200000
200000
00C700
030000
ENDCHAR
STARTCHAR 50A8
ENCODING 20648
SWIDTH 900 0
DWIDTH 20 0
BBX 18 17 1 0
BITMAP
000800
000800
123F00
320800
600B00
C00600
007FC0
0E1800
223000
22C000
221F00
221100
221100
221F00
239100
201100
001F00
ENDCHAR
STARTCHAR 50A9
ENCODING 20649
SWIDTH 900 0
DWIDTH 20 0
BBX 18 15 1 0
BITMAP
000100
000900
301000
602FC0
CF0000
032000
032100
2E2780
262100
272100
24A100
242780
282100
302100
202FC0
ENDCHAR
STARTCHAR 50AC
ENCODING 20652
SWIDTH 900 0
DWIDTH 20 0
BBX 17 18 2 0
BITMAP
001000
011100
011100
110100
31FF00
600400
808400
018000
030000
263F80
210400
213F00
210400
210400
213F00
210400
210400
213F80
ENDCHAR
STARTCHAR 50B2
ENCODING 20658
SWIDTH 855 0
DWIDTH 19 0
BBX 17 18 1 -3
BITMAP
010000
07E400
190800
310800
67CB80
C11000
010000
27E000
200200
220200
220A00
22E600
222200
262700
242500
242880
047000
040000
ENDCHAR
STARTCHAR 50BA
ENCODING 20666
SWIDTH 855 0
DWIDTH 19 0
BBX 17 18 1 -1
BITMAP
010800
030800
02E780
142480
212480
61C700
C64200
868300
213900
230180
260080
21FF00
200000
201000
201100
231180
241000
007000
ENDCHAR
STARTCHAR 50BB
ENCODING 20667
SWIDTH 900 0
DWIDTH 20 0
BBX 16 17 2 0
BITMAP
0020
0000
01FE
317A
6132
C142
01FE
2000
2184
2002
2080
21BC
210C
2038
201C
0026
00C1
ENDCHAR
STARTCHAR 50CF
ENCODING 20687
SWIDTH 900 0
DWIDTH 20 0
BBX 17 19 2 -2
BITMAP
018000
030000
021C00
100C00
300800
63FE00
C20200
022200
23FE00
20C000
21A000
232100
201300
239000
201400
209300
231080
001000
007000
ENDCHAR
STARTCHAR 50D6
ENCODING 20694
SWIDTH 900 0
DWIDTH 20 0
BBX 16 19 2 -2
BITMAP
0020
03FF
0020
1820
31FC
6000
C1FC
0104
2104
21FC
2000
2188
23FF
2000
21FC
2104
2104
0104
01FC
ENDCHAR
STARTCHAR 50DA
ENCODING 20698
SWIDTH 900 0
DWIDTH 20 0
BBX 17 18 2 -1
BITMAP
002000
002000
13FF00
304200
628200
C10C00
820780
25FC00
210400
217400
210400
21FC00
200000
202000
222200
262300
002000
00E000
ENDCHAR
STARTCHAR 50E6
ENCODING 20710
SWIDTH 900 0
DWIDTH 20 0
BBX 18 17 1 0
BITMAP
008000
008000
17E400
300480
600480
C7E400
042FC0
242400
27E400
200900
208900
208900
24B900
288940
2089C0
278800
018800
ENDCHAR
STARTCHAR 50E7
ENCODING 20711
SWIDTH 900 0
DWIDTH 20 0
BBX 16 19 2 -2
BITMAP
0104
008C
0000
13FF
3221
6221
C3AD
8221
2201
23FF
2000
2000
21FE
2102
2102
2172
2102
0102
01FE
ENDCHAR
STARTCHAR 50EC
ENCODING 20716
SWIDTH 855 0
DWIDTH 19 0
BBX 17 16 1 0
BITMAP
008400
110000
327F00
600400
C10400
013F00
210400
213F00
210400
210400
217F00
210000
200000
200000
236500
022680
ENDCHAR
STARTCHAR 50ED
ENCODING 20717
SWIDTH 855 0
DWIDTH 19 0
BBX 18 18 1 -2
BITMAP
07EF80
000000
150E00
350C00
67EF80
C20500
828500
028900
24E9C0
240800
200000
21FF00
210100
210100
217900
210100
010100
01FF00
ENDCHAR
STARTCHAR 50EE
ENCODING 20718
SWIDTH 900 0
DWIDTH 20 0
BBX 17 19 2 -2
BITMAP
001000
001000
000000
03FF00
108400
304400
63FF80
800000
01FE00
210200
211200
217E00
211200
21FE00
201000
21FE00
201000
201000
03FF80
ENDCHAR
STARTCHAR 50F3
ENCODING 20723
SWIDTH 900 0
DWIDTH 20 0
BBX 16 18 2 0
BITMAP
03FE
0000
0000
1048
33FE
624A
824A
03FE
2000
2022
21A4
2020
27FF
2020
2020
2127
2220
0020
ENDCHAR
STARTCHAR 50F5
ENCODING 20725
SWIDTH 855 0
DWIDTH 19 0
BBX 16 18 2 -2
BITMAP
03FF
0000
11FE
3112
617A
C112
01FE
2000
23FF
2000
21FE
2112
217A
2112
2102
21FE
0000
07FF
ENDCHAR
STARTCHAR 50FB
ENCODING 20731
SWIDTH 855 0
DWIDTH 19 0
BBX 17 19 1 0
BITMAP
000200
000200
000000
15CF80
244000
444000
844900
05C500
240000
241F80
240000
2C0200
2DE200
293F80
292200
292200
292200
01E200
000200
ENDCHAR
STARTCHAR 5104
ENCODING 20740
SWIDTH 900 0
DWIDTH 20 0
BBX 16 19 2 -2
BITMAP
0020
0020
01FE
1000
308C
6050
C3FF
0000
20FC
2084
20B4
2084
20FC
2000
2020
2310
22C1
0444
003C
ENDCHAR
STARTCHAR 5106
ENCODING 20742
SWIDTH 900 0
DWIDTH 20 0
BBX 18 17 1 -2
BITMAP
034000
07F400
134400
334800
634800
4009C0
840000
25E000
2C2100
282100
27A700
24A300
24A380
27A280
202640
206400
000800
ENDCHAR
STARTCHAR 5107
ENCODING 20743
SWIDTH 900 0
DWIDTH 20 0
BBX 17 19 2 -1
BITMAP
03FF00
020100
020100
124900
33FF00
600000
C3FF00
000000
000000
20FC00
208400
20FC00
200000
20C300
218200
230000
208E00
00E380
00C000
ENDCHAR
STARTCHAR 510B
ENCODING 20747
SWIDTH 900 0
DWIDTH 20 0
BBX 17 19 2 -1
BITMAP
008000
019C00
030400
120000
30FF80
600000
812400
016700
210000
213F80
210000
213F00
230000
223F00
220000
223F00
262100
042100
003F00
ENDCHAR
STARTCHAR 5112
ENCODING 20754
SWIDTH 855 0
DWIDTH 19 0
BBX 16 18 2 -2
BITMAP
01FE
0000
1820
32FF
6221
82AD
0020
20AC
2000
23FF
2000
2020
2000
23FF
2201
2251
0251
0257
ENDCHAR
STARTCHAR 5121
ENCODING 20769
SWIDTH 855 0
DWIDTH 19 0
BBX 17 17 1 0
BITMAP
03FE00
020200
022200
12FE00
222200
422200
820200
03FE00
200000
201F80
2FD080
295280
295780
2F5280
295280
285080
2FDF80
ENDCHAR
STARTCHAR 513F
ENCODING 20799
SWIDTH 855 0
DWIDTH 19 0
BBX 13 18 3 -2
BITMAP
1000
1000
1080
1080
1080
1080
3080
3080
2080
2080
2080
2080
6080
4080
4088
C0F8
8000
8000
ENDCHAR
STARTCHAR 5140
ENCODING 20800
SWIDTH 900 0
DWIDTH 20 0
BBX 15 16 3 -2
BITMAP
FFFC
0000
0000
0800
0840
0840
1840
1840
1040
1040
1040
2044
2044
607E
4000
4000
ENDCHAR
STARTCHAR 5141
ENCODING 20801
SWIDTH 900 0
DWIDTH 20 0
BBX 14 19 3 -3
BITMAP
1000
1000
3000
2060
2030
6010
4380
7C00
0000
1000
1080
1080
2080
2080
2080
4084
40FC
8000
8000
ENDCHAR
STARTCHAR 5143
ENCODING 20803
SWIDTH 855 0
DWIDTH 19 0
BBX 15 18 2 -2
BITMAP
3FF0
0000
0000
0000
0000
0000
FFFC
0000
0000
0800
0840
0840
1040
1040
3042
207E
4000
4000
ENDCHAR
STARTCHAR 5144
ENCODING 20804
SWIDTH 855 0
DWIDTH 19 0
BBX 13 18 3 -2
BITMAP
7FE0
4020
4020
4020
4020
4020
7FE0
0000
0000
3000
2080
2080
2080
6080
4088
40F8
8000
8000
ENDCHAR
STARTCHAR 5145
ENCODING 20805
SWIDTH 855 0
DWIDTH 19 0
BBX 15 19 2 -2
BITMAP
0100
0100
0000
FFFE
0000
0C00
1820
1010
3018
3F08
0000
0000
0820
0820
1820
1020
1022
303E
2000
ENDCHAR
STARTCHAR 5146
ENCODING 20806
SWIDTH 855 0
DWIDTH 19 0
BBX 15 19 2 -2
BITMAP
0400
0400
0440
0440
0440
C444
4448
0440
0440
0440
4C48
C844
8840
0840
0840
1042
107E
1000
2000
ENDCHAR
STARTCHAR 5148
ENCODING 20808
SWIDTH 900 0
DWIDTH 20 0
BBX 14 20 3 -2
BITMAP
0100
0100
1900
1100
37F0
2100
4100
0100
0000
FFFC
0000
0000
0440
0840
0840
0840
1044
107C
2000
2000
ENDCHAR
STARTCHAR 5149
ENCODING 20809
SWIDTH 900 0
DWIDTH 20 0
BBX 14 19 3 -2
BITMAP
0200
0200
0200
0210
6230
0200
0200
0000
FFFC
0000
0840
0840
1040
1040
1048
2048
207C
4000
4000
ENDCHAR
STARTCHAR 514B
ENCODING 20811
SWIDTH 900 0
DWIDTH 20 0
BBX 14 19 3 -2
BITMAP
0200
0200
0200
FFFC
0200
0000
1FC0
1040
1040
1040
1FC0
0000
0000
0880
0880
1888
1088
20FC
6000
ENDCHAR
STARTCHAR 514D
ENCODING 20813
SWIDTH 900 0
DWIDTH 20 0
BBX 13 18 4 0
BITMAP
2000
6000
C780
8080
0100
7FE0
4020
4420
4420
4420
7FE0
0C00
0900
1900
1100
2108
41F8
8000
ENDCHAR
STARTCHAR 5150
ENCODING 20816
SWIDTH 900 0
DWIDTH 20 0
BBX 15 19 3 -2
BITMAP
47F8
4408
4408
4408
45C8
4408
4408
4408
47F8
0000
1040
1040
1040
2040
2040
2044
4044
407E
8000
ENDCHAR
STARTCHAR 5151
ENCODING 20817
SWIDTH 855 0
DWIDTH 19 0
BBX 13 19 3 -1
BITMAP
2040
3080
0000
7FE0
4020
4020
4020
4020
4020
7FE0
0000
0000
1000
1080
3080
2080
6088
40F8
C000
ENDCHAR
STARTCHAR 5152
ENCODING 20818
SWIDTH 900 0
DWIDTH 20 0
BBX 14 19 3 -1
BITMAP
0800
19F0
4010
4010
4010
5CF0
4010
4010
4010
7FF0
0000
1000
1040
1040
3040
2040
6044
407C
8000
ENDCHAR
STARTCHAR 5154
ENCODING 20820
SWIDTH 900 0
DWIDTH 20 0
BBX 14 18 3 0
BITMAP
1000
2000
47C0
00C0
0080
7FF0
4010
4210
4410
7FF0
0400
0800
0920
1110
3100
2104
41FC
8000
ENDCHAR
STARTCHAR 5155
ENCODING 20821
SWIDTH 900 0
DWIDTH 20 0
BBX 14 20 3 -2
BITMAP
F8F8
8888
8888
8888
8F88
8008
8008
8008
8008
FFF8
0000
1000
1080
3080
2080
2080
4084
40FC
8000
8000
ENDCHAR
STARTCHAR 5156
ENCODING 20822
SWIDTH 855 0
DWIDTH 19 0
BBX 15 20 2 -1
BITMAP
0100
0100
0000
FFFE
0000
0408
2C0C
4822
8810
1F88
1F00
0000
0840
0840
0840
1844
1044
107E
2000
2000
ENDCHAR
STARTCHAR 515A
ENCODING 20826
SWIDTH 900 0
DWIDTH 20 0
BBX 14 19 3 -2
BITMAP
0100
3118
0100
8000
BFFC
8004
8FE4
0820
0820
0820
0FE0
0000
0000
0C40
0840
0840
1844
307C
2000
ENDCHAR
STARTCHAR 515C
ENCODING 20828
SWIDTH 900 0
DWIDTH 20 0
BBX 15 19 3 -1
BITMAP
0200
6400
0FCE
8842
8842
8B42
8842
8842
FFCE
0000
0000
1840
1040
1040
3044
2046
207E
4000
4000
ENDCHAR
STARTCHAR 5162
ENCODING 20834
SWIDTH 900 0
DWIDTH 20 0
BBX 16 19 2 -2
BITMAP
1008
1008
1008
FEFE
1008
1008
7C7E
4442
4442
4442
7C7E
0000
2824
2824
2864
4844
4845
4EC7
8080
ENDCHAR
STARTCHAR 5165
ENCODING 20837
SWIDTH 900 0
DWIDTH 20 0
BBX 14 17 3 1
BITMAP
0200
0200
0200
0100
0100
0D00
0980
0880
08C0
1040
1040
3020
2020
6010
4018
C008
8004
ENDCHAR
STARTCHAR 5168
ENCODING 20840
SWIDTH 900 0
DWIDTH 20 0
BBX 14 17 3 0
BITMAP
0100
0300
0600
0C00
3840
6038
8000
0000
3FE0
0100
0100
0FE0
0100
0100
0100
0100
FFFC
ENDCHAR
STARTCHAR 516B
ENCODING 20843
SWIDTH 900 0
DWIDTH 20 0
BBX 15 18 2 -2
BITMAP
0040
0040
0640
0460
0420
0420
0420
0C20
0810
0810
0810
1818
1008
3008
200C
2004
4006
C002
ENDCHAR
STARTCHAR 516C
ENCODING 20844
SWIDTH 900 0
DWIDTH 20 0
BBX 14 17 3 0
BITMAP
00C0
0040
0060
1830
1010
3018
6008
4004
8000
0400
0400
0C00
0830
0810
1808
1784
1C00
ENDCHAR
STARTCHAR 516D
ENCODING 20845
SWIDTH 900 0
DWIDTH 20 0
BBX 14 16 3 0
BITMAP
0200
0200
0200
0000
0000
FFFC
0000
0000
0000
0080
1840
1060
3030
2018
6008
4004
ENDCHAR
STARTCHAR 516E
ENCODING 20846
SWIDTH 900 0
DWIDTH 20 0
BBX 14 18 3 -1
BITMAP
10C0
1060
2018
600C
4000
8000
3FF0
0000
0000
0800
0800
0FF0
0010
0010
0010
0010
0010
0070
ENDCHAR
STARTCHAR 5170
ENCODING 20848
SWIDTH 900 0
DWIDTH 20 0
BBX 15 17 2 1
BITMAP
0020
1840
0000
0000
7FF8
0000
0000
0000
0000
0000
1FE0
0000
0000
0000
0000
0000
FFFE
ENDCHAR
STARTCHAR 5171
ENCODING 20849
SWIDTH 900 0
DWIDTH 20 0
BBX 14 18 3 -2
BITMAP
0840
0840
0840
0840
0840
FFF8
0840
0840
0840
0840
0000
0000
FFFC
0000
0000
0020
3010
6008
ENDCHAR
STARTCHAR 5172
ENCODING 20850
SWIDTH 900 0
DWIDTH 20 0
BBX 14 18 3 -1
BITMAP
7FF0
0000
0100
0100
0100
1FE0
0100
0100
0100
0000
FFFC
0000
0040
1060
3030
2010
4008
4000
ENDCHAR
STARTCHAR 5173
ENCODING 20851
SWIDTH 900 0
DWIDTH 20 0
BBX 15 19 2 -2
BITMAP
1040
0840
0000
0000
3FF0
0000
0200
0200
0200
0200
FFFE
0400
0400
0400
08E0
081C
1000
1000
2000
ENDCHAR
STARTCHAR 5174
ENCODING 20852
SWIDTH 900 0
DWIDTH 20 0
BBX 14 17 3 0
BITMAP
0600
0200
0108
4018
6010
3020
0000
0000
FFFC
0000
0000
0000
0860
1830
3008
2004
4000
ENDCHAR
STARTCHAR 5175
ENCODING 20853
SWIDTH 855 0
DWIDTH 19 0
BBX 15 18 2 -1
BITMAP
0070
07C0
0000
1000
1000
1000
13F8
1000
1020
1020
1020
0000
FFFE
0000
0000
1830
3008
2000
ENDCHAR
STARTCHAR 5176
ENCODING 20854
SWIDTH 900 0
DWIDTH 20 0
BBX 15 19 2 -1
BITMAP
1040
1040
1040
FFF8
1040
1040
1740
1040
1040
1740
1040
1040
0000
FFFE
0000
0040
1060
3010
4000
ENDCHAR
STARTCHAR 5177
ENCODING 20855
SWIDTH 855 0
DWIDTH 19 0
BBX 15 18 2 -2
BITMAP
1FE0
1020
1020
17A0
1020
1020
17A0
1020
1020
17A0
1020
0000
FFFE
0000
0020
1830
3008
2000
ENDCHAR
STARTCHAR 5178
ENCODING 20856
SWIDTH 855 0
DWIDTH 19 0
BBX 15 18 2 -2
BITMAP
0440
0440
0440
3FF8
2448
2448
2448
2FF8
2448
2448
2448
2448
0000
FFFE
0000
0000
0838
300C
ENDCHAR
STARTCHAR 5179
ENCODING 20857
SWIDTH 855 0
DWIDTH 19 0
BBX 15 18 2 -1
BITMAP
0020
1020
0840
0000
FFFE
0000
1010
1030
2060
2040
40F0
78E8
0818
1010
1424
2466
22DA
7AF2
ENDCHAR
STARTCHAR 517B
ENCODING 20859
SWIDTH 855 0
DWIDTH 19 0
BBX 15 19 2 -1
BITMAP
1010
0820
0000
7FF8
0000
0100
0FF0
0600
0400
0C00
FFFE
1000
2018
480E
0820
0820
0820
1020
1020
ENDCHAR
STARTCHAR 517C
ENCODING 20860
SWIDTH 855 0
DWIDTH 19 0
BBX 15 19 2 -1
BITMAP
0010
1820
0000
7FFC
0480
0480
3FF0
0490
0490
FFFE
0490
0490
3FF0
0480
0480
2498
448C
8480
0480
ENDCHAR
STARTCHAR 517D
ENCODING 20861
SWIDTH 855 0
DWIDTH 19 0
BBX 15 19 2 -2
BITMAP
0820
0C60
0000
1FF8
1108
1108
17C8
1108
1008
1FF8
0000
FFFE
0000
0000
0FE0
0820
0820
0820
0FE0
ENDCHAR
STARTCHAR 5180
ENCODING 20864
SWIDTH 900 0
DWIDTH 20 0
BBX 16 19 2 -2
BITMAP
0240
7258
0240
3248
627C
0000
1FF0
1090
13D0
1090
1FF0
0000
0440
7FF0
0440
FFFF
0000
0820
3830
ENDCHAR
STARTCHAR 5181
ENCODING 20865
SWIDTH 900 0
DWIDTH 20 0
BBX 18 18 1 0
BITMAP
640000
245FC0
004040
7E4040
425FC0
4A4000
7E4900
4A4900
4A5FC0
7EC900
08C900
08BFC0
FE8000
089040
099080
091380
0910C0
081C00
ENDCHAR
STARTCHAR 5182
ENCODING 20866
SWIDTH 855 0
DWIDTH 19 0
BBX 13 18 3 -3
BITMAP
BFF8
8008
8008
8008
8008
8008
8008
8008
8008
8008
8008
8008
8008
8008
8008
8008
8008
8018
ENDCHAR
STARTCHAR 5185
ENCODING 20869
SWIDTH 900 0
DWIDTH 20 0
BBX 13 18 4 -1
BITMAP
0100
0200
0200
0200
BFF8
8208
8608
8408
8408
8C08
8988
88C8
9008
9008
8008
8008
8008
8038
ENDCHAR
STARTCHAR 5188
ENCODING 20872
SWIDTH 855 0
DWIDTH 19 0
BBX 13 18 3 -3
BITMAP
9FF8
8008
8008
8008
8188
8108
8108
9B08
8608
8788
8448
8808
9808
B008
8008
8008
8008
8038
ENDCHAR
STARTCHAR 5189
ENCODING 20873
SWIDTH 900 0
DWIDTH 20 0
BBX 16 19 2 -3
BITMAP
0080
0080
0080
2FF8
2088
2088
2088
2088
27E8
2088
2088
2088
FFFF
2008
2008
2008
2008
2008
2018
ENDCHAR
STARTCHAR 518C
ENCODING 20876
SWIDTH 855 0
DWIDTH 19 0
BBX 17 16 1 -2
BITMAP
173E00
112200
112200
112200
112200
112200
FFFF80
112200
112200
112200
112200
116200
116200
274600
204000
204000
ENDCHAR
STARTCHAR 518D
ENCODING 20877
SWIDTH 900 0
DWIDTH 20 0
BBX 16 18 2 -2
BITMAP
FFFC
0000
0100
0100
17F8
1108
1108
1108
17C8
1108
1108
1008
FFFF
1008
1008
1008
1008
1038
ENDCHAR
STARTCHAR 5192
ENCODING 20882
SWIDTH 900 0
DWIDTH 20 0
BBX 12 18 4 -2
BITMAP
BFF0
8010
8010
9F10
8010
9F10
0000
0000
3FC0
2040
2040
2F40
2040
2040
2F40
2040
2040
3FC0
ENDCHAR
STARTCHAR 5195
ENCODING 20885
SWIDTH 900 0
DWIDTH 20 0
BBX 14 19 3 -2
BITMAP
5FE0
4020
4F20
4020
4F20
4020
2000
6780
4080
0100
7FE0
4020
4420
7FE0
0400
0880
1084
60FC
C000
ENDCHAR
STARTCHAR 5196
ENCODING 20886
SWIDTH 900 0
DWIDTH 20 0
BBX 14 5 3 13
BITMAP
8000
BFFC
8004
8004
8004
ENDCHAR
STARTCHAR 5197
ENCODING 20887
SWIDTH 900 0
DWIDTH 20 0
BBX 14 18 3 -2
BITMAP
8000
BFF8
8008
8008
8008
1000
17C0
1040
1040
1040
1040
3040
2040
2048
2048
607C
4000
4000
ENDCHAR
STARTCHAR 5199
ENCODING 20889
SWIDTH 900 0
DWIDTH 20 0
BBX 14 18 3 -2
BITMAP
5FFC
4004
4004
4804
0800
0BF8
0800
0800
0800
0FF8
0008
0008
0008
FFC8
0008
0008
0008
0018
ENDCHAR
STARTCHAR 519B
ENCODING 20891
SWIDTH 900 0
DWIDTH 20 0
BBX 14 18 3 -2
BITMAP
5FFC
4004
4404
0400
0800
FFF8
0800
0900
1100
1FF0
0100
0100
0100
FFFC
0100
0100
0100
0100
ENDCHAR
STARTCHAR 519C
ENCODING 20892
SWIDTH 900 0
DWIDTH 20 0
BBX 15 18 2 -1
BITMAP
0100
0100
0200
4200
5FFC
4604
4404
0800
1800
3008
6030
C800
0840
0860
0818
0806
0800
0E00
ENDCHAR
STARTCHAR 51A0
ENCODING 20896
SWIDTH 900 0
DWIDTH 20 0
BBX 15 18 3 -2
BITMAP
9FFC
8004
8004
0000
7C08
0008
00FC
0008
FE08
0048
2008
2008
2438
4408
4400
4402
87FE
8000
ENDCHAR
STARTCHAR 51A2
ENCODING 20898
SWIDTH 900 0
DWIDTH 20 0
BBX 15 18 2 -2
BITMAP
9FFE
8002
8002
9FE2
0000
0100
0900
F90C
01B8
21A0
FC80
2090
1098
048C
3C86
E080
0080
0380
ENDCHAR
STARTCHAR 51A4
ENCODING 20900
SWIDTH 900 0
DWIDTH 20 0
BBX 14 19 3 -3
BITMAP
BFF8
8008
8008
9008
23C0
6080
4080
0000
7FF0
4010
4210
4610
7FF0
0C00
08B0
1890
3084
60FC
C000
ENDCHAR
STARTCHAR 51A5
ENCODING 20901
SWIDTH 855 0
DWIDTH 19 0
BBX 15 18 2 -2
BITMAP
5FFC
4004
4004
4FE4
0820
0820
0BA0
0820
0FE0
0000
0100
0100
0000
FFFE
0000
0820
1838
3008
ENDCHAR
STARTCHAR 51AB
ENCODING 20907
SWIDTH 900 0
DWIDTH 20 0
BBX 3 14 4 1
BITMAP
C0
40
00
00
00
00
00
00
00
00
00
20
C0
80
ENDCHAR
STARTCHAR 51AC
ENCODING 20908
SWIDTH 900 0
DWIDTH 20 0
BBX 14 17 3 1
BITMAP
1800
1000
37F0
6030
4060
0CC0
0780
07E0
0C38
3004
C300
0180
0000
0000
0000
0700
00E0
ENDCHAR
STARTCHAR 51AF
ENCODING 20911
SWIDTH 900 0
DWIDTH 20 0
BBX 16 16 2 -1
BITMAP
03FC
4004
0004
0104
0104
0104
0100
01FF
0001
0001
0001
07F9
2001
C001
0001
0007
ENDCHAR
STARTCHAR 51B0
ENCODING 20912
SWIDTH 855 0
DWIDTH 19 0
BBX 17 18 1 -1
BITMAP
002000
002000
002000
002000
802000
C02000
002300
0F2200
012000
012000
022400
062380
042000
C82000
802000
002000
00E000
002000
ENDCHAR
STARTCHAR 51B1
ENCODING 20913
SWIDTH 900 0
DWIDTH 20 0
BBX 17 15 1 0
BITMAP
07FF00
400000
008000
008000
018000
017E00
010600
030400
020400
03F400
000800
000800
600800
C00000
0FFF80
ENDCHAR
STARTCHAR 51B2
ENCODING 20914
SWIDTH 900 0
DWIDTH 20 0
BBX 16 19 2 -1
BITMAP
0010
0010
0010
4010
6010
0010
03FF
0211
0211
0211
0211
03FF
0010
0010
2010
C010
0010
0010
0010
ENDCHAR
STARTCHAR 51B3
ENCODING 20915
SWIDTH 900 0
DWIDTH 20 0
BBX 16 17 2 0
BITMAP
0040
0040
8040
4040
07FC
00C4
0084
0084
0084
0FFF
0180
0100
0100
C31C
8207
0600
0400
ENDCHAR
STARTCHAR 51B5
ENCODING 20917
SWIDTH 900 0
DWIDTH 20 0
BBX 16 17 2 -2
BITMAP
03FC
4204
6204
0204
0204
0204
03FC
0000
0108
0108
0108
0108
0108
6308
C209
020F
0600
ENDCHAR
STARTCHAR 51B6
ENCODING 20918
SWIDTH 900 0
DWIDTH 20 0
BBX 16 17 2 1
BITMAP
0040
0080
4080
0102
0102
03F1
03C0
0000
0000
01FE
0102
0102
2102
E102
0102
0102
01FE
ENDCHAR
STARTCHAR 51B7
ENCODING 20919
SWIDTH 855 0
DWIDTH 19 0
BBX 15 18 2 0
BITMAP
0040
00C0
C080
4100
0318
0606
0840
0040
0000
0000
03F8
0008
0008
0010
C020
0080
0060
0010
ENDCHAR
STARTCHAR 51BB
ENCODING 20923
SWIDTH 855 0
DWIDTH 19 0
BBX 17 18 1 -1
BITMAP
004000
004000
004000
C7FF00
408000
008000
019000
011000
011000
01FF00
001000
001000
201000
C61380
841000
001000
001000
007000
ENDCHAR
STARTCHAR 51BC
ENCODING 20924
SWIDTH 900 0
DWIDTH 20 0
BBX 16 18 2 -2
BITMAP
0020
0220
8220
C620
04FC
0420
0020
0000
0FFE
0000
0000
0210
0210
6210
C210
0611
041F
0800
ENDCHAR
STARTCHAR 51BD
ENCODING 20925
SWIDTH 900 0
DWIDTH 20 0
BBX 16 18 2 0
BITMAP
0001
0FC1
C001
4201
0601
0409
0C09
09C9
0049
0049
0089
0489
0081
0101
6101
8201
0603
0400
ENDCHAR
STARTCHAR 51C0
ENCODING 20928
SWIDTH 900 0
DWIDTH 20 0
BBX 17 18 1 -1
BITMAP
030000
030000
063800
440800
000000
03FC00
000400
002400
0FFF80
002400
002400
03FC00
002000
002000
602000
C02000
002000
00E000
ENDCHAR
STARTCHAR 51C4
ENCODING 20932
SWIDTH 855 0
DWIDTH 19 0
BBX 16 21 2 -2
BITMAP
0040
0040
0FFF
0040
8040
01FC
0044
0FFF
0044
0044
01FC
0000
00C0
07FF
0080
C108
81F8
003C
00C7
0380
0400
ENDCHAR
STARTCHAR 51C6
ENCODING 20934
SWIDTH 855 0
DWIDTH 19 0
BBX 15 16 2 1
BITMAP
0010
0210
8600
CCFE
1800
1010
0410
047E
0410
0410
0410
047E
6410
C410
0400
04FE
ENDCHAR
STARTCHAR 51C7
ENCODING 20935
SWIDTH 900 0
DWIDTH 20 0
BBX 18 17 1 0
BITMAP
020000
020200
C20300
420100
1F9980
021080
022080
024000
028400
02C800
120800
221800
621080
C23EC0
023C40
020000
020000
ENDCHAR
STARTCHAR 51C9
ENCODING 20937
SWIDTH 900 0
DWIDTH 20 0
BBX 16 19 2 -1
BITMAP
0020
0020
0020
0000
C7FF
4000
0000
01FC
0104
0104
0104
01FC
0000
0020
0020
6623
C820
0020
00E0
ENDCHAR
STARTCHAR 51CB
ENCODING 20939
SWIDTH 855 0
DWIDTH 19 0
BBX 15 16 2 -2
BITMAP
05FE
C422
4422
04FA
0422
0402
05FA
0402
04FA
048A
648A
C48A
8CFA
0802
0806
0800
ENDCHAR
STARTCHAR 51CC
ENCODING 20940
SWIDTH 855 0
DWIDTH 19 0
BBX 15 18 2 -2
BITMAP
0040
0040
03FC
C040
4040
0FFE
0000
0000
0608
0C04
0100
0378
0218
2030
C060
0078
0086
0300
ENDCHAR
STARTCHAR 51CF
ENCODING 20943
SWIDTH 855 0
DWIDTH 19 0
BBX 17 17 1 0
BITMAP
000900
000900
000800
47FF00
000800
000800
040800
040800
05E800
040B00
05EE00
652C00
C52C00
092600
09E200
080380
100180
ENDCHAR
STARTCHAR 51D1
ENCODING 20945
SWIDTH 855 0
DWIDTH 19 0
BBX 17 18 1 -2
BITMAP
004000
004000
03FF00
C04000
03FC00
008000
07FF00
010000
010200
020380
02F800
000000
006000
23FE00
C04000
008000
008E00
010000
ENDCHAR
STARTCHAR 51DB
ENCODING 20955
SWIDTH 900 0
DWIDTH 20 0
BBX 16 21 2 -2
BITMAP
0020
0020
0000
0000
07FF
43FE
0202
0272
0272
0202
03FE
0000
03FE
0000
0000
07FF
C020
8220
0623
08E0
0020
ENDCHAR
STARTCHAR 51DD
ENCODING 20957
SWIDTH 900 0
DWIDTH 20 0
BBX 18 19 1 -1
BITMAP
080000
081F00
098100
CA0300
480200
0FCC00
000600
080200
080000
0FBFC0
120240
060200
0603C0
1FD200
241200
C52200
08EC00
0867C0
080000
ENDCHAR
STARTCHAR 51E0
ENCODING 20960
SWIDTH 900 0
DWIDTH 20 0
BBX 15 17 2 -2
BITMAP
17C0
1040
1040
1040
1040
3040
3040
2040
2040
2040
2040
6040
4040
4042
407E
8000
8000
ENDCHAR
STARTCHAR 51E1
ENCODING 20961
SWIDTH 900 0
DWIDTH 20 0
BBX 15 17 2 -2
BITMAP
13E0
1020
1020
1020
1020
1020
3020
3220
2320
2120
2020
2020
6020
4022
403E
4000
8000
ENDCHAR
STARTCHAR 51E4
ENCODING 20964
SWIDTH 900 0
DWIDTH 20 0
BBX 16 18 2 -3
BITMAP
3FF8
0008
2008
2008
2008
2FC8
2048
20C8
2488
2388
2188
63C8
4628
4C08
500C
4004
8007
8002
ENDCHAR
STARTCHAR 51EB
ENCODING 20971
SWIDTH 900 0
DWIDTH 20 0
BBX 15 19 2 -2
BITMAP
0200
0400
0000
3FE0
2420
2260
2000
3FFC
0004
0004
1004
1784
109C
2080
2080
2080
6082
40FE
C000
ENDCHAR
STARTCHAR 51ED
ENCODING 20973
SWIDTH 855 0
DWIDTH 19 0
BBX 14 19 3 -1
BITMAP
1078
71E0
C000
0040
27FC
2040
2040
2040
21F8
0000
1000
13E0
1020
1020
1020
2020
2024
603C
4000
ENDCHAR
STARTCHAR 51EF
ENCODING 20975
SWIDTH 855 0
DWIDTH 19 0
BBX 17 19 1 -2
BITMAP
080000
080000
490000
493E00
412200
7F2200
002200
002200
FE2200
026200
026200
3E6200
204200
204200
20C200
20C280
208380
398000
210000
ENDCHAR
STARTCHAR 51F0
ENCODING 20976
SWIDTH 900 0
DWIDTH 20 0
BBX 16 19 2 -1
BITMAP
1FFC
0004
0004
2104
27E4
2424
25A4
2424
2424
27E4
2004
6FE4
4084
4084
47C4
4086
C002
9FF3
8003
ENDCHAR
STARTCHAR 51F3
ENCODING 20979
SWIDTH 900 0
DWIDTH 20 0
BBX 15 20 2 -1
BITMAP
0088
F858
0840
1820
5796
2018
6FC4
C842
0840
0FC0
0000
1860
0000
FFFE
0000
13C0
1040
1050
2078
2000
ENDCHAR
STARTCHAR 51F5
ENCODING 20981
SWIDTH 900 0
DWIDTH 20 0
BBX 14 14 3 -1
BITMAP
8004
8004
8004
8004
8004
8004
8004
8004
8004
8004
8004
8004
8004
FFFC
ENDCHAR
STARTCHAR 51F6
ENCODING 20982
SWIDTH 900 0
DWIDTH 20 0
BBX 14 18 3 1
BITMAP
0080
0080
0180
0180
0100
8904
8D04
8304
8384
8664
8404
8404
8804
8804
8004
8004
8004
FFFC
ENDCHAR
STARTCHAR 51F8
ENCODING 20984
SWIDTH 900 0
DWIDTH 20 0
BBX 14 18 3 -2
BITMAP
0FC0
0840
0840
0840
0840
0840
F87C
8004
8004
8004
8004
8004
8004
8004
8004
8004
8004
FFFC
ENDCHAR
STARTCHAR 51F9
ENCODING 20985
SWIDTH 900 0
DWIDTH 20 0
BBX 14 17 3 0
BITMAP
FCFC
8484
8484
8484
8484
8484
8484
8484
8784
8004
8004
8004
8004
8004
8004
8004
FFFC
ENDCHAR
STARTCHAR 51FA
ENCODING 20986
SWIDTH 900 0
DWIDTH 20 0
BBX 13 17 4 0
BITMAP
0200
0200
0200
4220
4220
4220
4220
4220
7FE0
0200
8208
8208
8208
8208
8208
8008
FFF8
ENDCHAR
STARTCHAR 51FB
ENCODING 20987
SWIDTH 855 0
DWIDTH 19 0
BBX 15 19 2 0
BITMAP
0100
0100
0100
0100
3FF8
0100
0100
0100
0100
0100
FFFE
0100
0100
2108
2108
2108
2008
2008
3FF8
ENDCHAR
STARTCHAR 51FC
ENCODING 20988
SWIDTH 900 0
DWIDTH 20 0
BBX 14 19 3 -2
BITMAP
0100
0100
0100
8104
8104
8124
BD64
8504
8D04
8944
9934
9114
A104
8104
8104
8304
8004
8004
FFFC
ENDCHAR
STARTCHAR 51FD
ENCODING 20989
SWIDTH 855 0
DWIDTH 19 0
BBX 15 18 2 -2
BITMAP
1FE0
0020
0040
0080
8102
8132
8962
8502
8102
8542
9932
B112
8102
8102
8702
8002
8002
FFFE
ENDCHAR
STARTCHAR 51FF
ENCODING 20991
SWIDTH 855 0
DWIDTH 19 0
BBX 15 20 2 -2
BITMAP
0440
0440
0440
4442
0440
0440
0000
FFFE
0000
0C60
4482
5FF2
4102
4102
4FE2
4102
4102
4102
4002
7FFE
ENDCHAR
STARTCHAR 5200
ENCODING 20992
SWIDTH 900 0
DWIDTH 20 0
BBX 12 17 4 -2
BITMAP
FFF0
0010
0010
0010
0810
1810
1810
1010
1010
3010
2010
2010
6010
4070
C000
8000
8000
ENDCHAR
STARTCHAR 5201
ENCODING 20993
SWIDTH 855 0
DWIDTH 19 0
BBX 13 17 3 -2
BITMAP
FFF8
0008
0008
0008
0008
0008
0008
0088
0308
0E08
1808
7008
0008
0008
0008
0008
0038
ENDCHAR
STARTCHAR 5202
ENCODING 20994
SWIDTH 900 0
DWIDTH 20 0
BBX 4 17 15 -1
BITMAP
10
10
10
10
10
90
90
90
90
90
90
90
10
10
10
10
70
ENDCHAR
STARTCHAR 5203
ENCODING 20995
SWIDTH 855 0
DWIDTH 19 0
BBX 13 17 3 -2
BITMAP
7FF8
0008
0208
0208
0208
0608
6408
4408
8408
0C08
0808
0808
1808
1038
1000
2000
2000
ENDCHAR
STARTCHAR 5206
ENCODING 20998
SWIDTH 900 0
DWIDTH 20 0
BBX 14 18 3 -2
BITMAP
0040
0060
1830
1010
2008
4004
8000
0000
1FF0
0010
0410
0410
0C10
0810
0810
1070
1000
2000
ENDCHAR
STARTCHAR 5207
ENCODING 20999
SWIDTH 900 0
DWIDTH 20 0
BBX 16 15 2 -1
BITMAP
01FF
1001
1001
1001
1061
FE41
1041
1041
1041
1081
1081
1C81
0101
0107
0200
ENDCHAR
STARTCHAR 5208
ENCODING 21000
SWIDTH 855 0
DWIDTH 19 0
BBX 15 17 2 -1
BITMAP
0002
0002
0002
0602
0402
0412
8412
6C12
1C12
1F12
1192
3012
2002
4002
8002
0002
000E
ENDCHAR
STARTCHAR 520A
ENCODING 21002
SWIDTH 900 0
DWIDTH 20 0
BBX 16 17 2 -1
BITMAP
0001
0001
7F01
0001
0801
0809
0809
0809
FF89
0809
0809
0809
0801
0801
0801
0801
0003
ENDCHAR
STARTCHAR 520D
ENCODING 21005
SWIDTH 855 0
DWIDTH 19 0
BBX 13 19 3 -2
BITMAP
1000
1000
2000
61F0
4020
0060
0000
0000
FFF8
0008
0008
0008
0008
3F88
0008
0008
0008
0008
FFF8
ENDCHAR
STARTCHAR 520E
ENCODING 21006
SWIDTH 900 0
DWIDTH 20 0
BBX 16 17 2 0
BITMAP
6001
4001
C001
BF81
0081
0089
0089
3089
2489
6C89
4889
9889
1081
1081
2381
0001
0007
ENDCHAR
STARTCHAR 5211
ENCODING 21009
SWIDTH 900 0
DWIDTH 20 0
BBX 16 17 2 -1
BITMAP
0001
0001
7FC1
0101
0101
1109
1109
1109
FFC9
1109
3109
3109
2101
2101
6101
4101
8007
ENDCHAR
STARTCHAR 5212
ENCODING 21010
SWIDTH 900 0
DWIDTH 20 0
BBX 16 17 2 0
BITMAP
1001
1101
1101
1001
1801
FF89
0809
0809
0C09
0C89
0509
0609
1E01
E201
0301
0187
0081
ENDCHAR
STARTCHAR 5216
ENCODING 21014
SWIDTH 900 0
DWIDTH 20 0
BBX 16 18 2 -2
BITMAP
0001
0001
5F01
4101
4101
4111
5F11
4111
4111
4111
5F11
4111
4101
4101
4101
8301
8107
8000
ENDCHAR
STARTCHAR 5217
ENCODING 21015
SWIDTH 855 0
DWIDTH 19 0
BBX 15 17 2 0
BITMAP
0002
0002
FF02
0002
0002
4022
4022
BE22
8222
0622
6422
0422
0C02
0802
1002
300E
2000
ENDCHAR
STARTCHAR 5218
ENCODING 21016
SWIDTH 855 0
DWIDTH 19 0
BBX 15 16 2 0
BITMAP
0802
0802
0002
FF82
0012
0012
0412
0412
0C12
1812
0C12
1602
1302
2002
4002
0006
ENDCHAR
STARTCHAR 5219
ENCODING 21017
SWIDTH 855 0
DWIDTH 19 0
BBX 15 18 2 -3
BITMAP
0002
7F82
4082
4082
4082
4892
4892
4892
4892
4892
5892
1012
1302
3182
2042
6002
400E
8000
ENDCHAR
STARTCHAR 521A
ENCODING 21018
SWIDTH 900 0
DWIDTH 20 0
BBX 16 17 2 -2
BITMAP
0001
BF81
8081
8081
8081
8489
8489
BC89
9C89
9A89
9089
B089
A081
8081
8081
8081
0387
ENDCHAR
STARTCHAR 521B
ENCODING 21019
SWIDTH 900 0
DWIDTH 20 0
BBX 16 17 2 1
BITMAP
0801
1801
1001
3301
61C1
C049
8009
0009
3F09
0109
2109
2109
2301
2001
2041
2047
3FE0
ENDCHAR
STARTCHAR 521D
ENCODING 21021
SWIDTH 900 0
DWIDTH 20 0
BBX 16 17 2 0
BITMAP
1000
1000
00FF
0001
7C01
0C01
0821
1821
3661
2041
D441
1241
10C1
1081
1081
1107
1100
ENDCHAR
STARTCHAR 5220
ENCODING 21024
SWIDTH 855 0
DWIDTH 19 0
BBX 17 17 1 -2
BITMAP
000080
3D7080
251080
251080
251080
251280
251280
FFFA80
251280
251280
251280
251280
251080
651080
4D7080
423180
020080
ENDCHAR
STARTCHAR 5224
ENCODING 21028
SWIDTH 855 0
DWIDTH 19 0
BBX 15 18 2 0
BITMAP
0802
0802
4882
0902
0802
0812
7F92
1812
1812
FFD2
1012
1012
1002
3002
2002
2002
400E
4000
ENDCHAR
STARTCHAR 5228
ENCODING 21032
SWIDTH 855 0
DWIDTH 19 0
BBX 17 17 1 -1
BITMAP
000080
200080
600080
4FE080
802080
002480
202480
2E2480
222480
222480
2E2480
202480
20E080
200080
200080
201080
3FF380
ENDCHAR
STARTCHAR 5229
ENCODING 21033
SWIDTH 900 0
DWIDTH 20 0
BBX 16 17 2 -1
BITMAP
0701
3E01
0001
0001
0801
0811
0811
0811
FF91
0811
0811
0891
48C1
C801
8801
0801
0807
ENDCHAR
STARTCHAR 522B
ENCODING 21035
SWIDTH 855 0
DWIDTH 19 0
BBX 15 18 2 -1
BITMAP
7F02
4102
4102
4102
4102
7F12
0032
0032
1032
3032
FF32
2132
2102
6102
4102
430E
8002
8000
ENDCHAR
STARTCHAR 522D
ENCODING 21037
SWIDTH 900 0
DWIDTH 20 0
BBX 15 17 3 0
BITMAP
7E02
0602
0602
0C02
1802
3012
6192
C012
0012
3F12
0012
0812
0802
0802
0002
1E06
7000
ENDCHAR
STARTCHAR 522E
ENCODING 21038
SWIDTH 900 0
DWIDTH 20 0
BBX 16 16 2 0
BITMAP
0601
7801
0001
0001
0809
0809
FFC9
0809
0809
0009
3F01
2101
2101
2101
2103
3F00
ENDCHAR
STARTCHAR 5230
ENCODING 21040
SWIDTH 855 0
DWIDTH 19 0
BBX 15 17 2 0
BITMAP
0002
0002
FF82
2002
2312
4112
7C92
7012
0812
0812
7F12
0802
0802
0802
0002
1E06
E000
ENDCHAR
STARTCHAR 5233
ENCODING 21043
SWIDTH 855 0
DWIDTH 19 0
BBX 17 18 1 0
BITMAP
040000
0C0080
080080
7FC080
100080
110080
20C480
400480
9F0480
000480
7FC480
000480
100480
100080
1F8080
008080
008080
038380
ENDCHAR
STARTCHAR 5236
ENCODING 21046
SWIDTH 900 0
DWIDTH 20 0
BBX 16 18 2 0
BITMAP
0400
0401
4401
5F81
8401
8401
0409
FFE9
0409
0409
5FC9
4449
4449
4441
4441
45C1
0407
0400
ENDCHAR
STARTCHAR 5237
ENCODING 21047
SWIDTH 855 0
DWIDTH 19 0
BBX 17 18 1 -1
BITMAP
2FE080
202080
202080
202080
2FE080
200280
200280
208280
208280
2BF280
689280
489280
489080
48B080
488080
808180
808000
008000
ENDCHAR
STARTCHAR 5238
ENCODING 21048
SWIDTH 900 0
DWIDTH 20 0
BBX 14 19 3 -1
BITMAP
0118
3210
0200
3FF8
0400
0C00
0800
FFFC
1000
2030
601C
DFE0
0020
0420
0C20
0820
18E0
1000
2000
ENDCHAR
STARTCHAR 5239
ENCODING 21049
SWIDTH 855 0
DWIDTH 19 0
BBX 16 17 2 -1
BITMAP
0101
6301
3A01
0E01
0B01
3189
6009
0409
0409
0409
7F89
0409
0481
44C1
8401
0401
1C03
ENDCHAR
STARTCHAR 523A
ENCODING 21050
SWIDTH 900 0
DWIDTH 20 0
BBX 16 18 2 -1
BITMAP
0401
0401
0401
FFC1
0401
0409
0409
3FC9
2449
2449
25C9
2449
0401
2581
64C1
C401
8407
0400
ENDCHAR
STARTCHAR 523B
ENCODING 21051
SWIDTH 855 0
DWIDTH 19 0
BBX 15 19 2 -2
BITMAP
0400
0402
0002
FFC2
0002
2002
2012
4212
7E12
6492
0912
1912
3212
C602
0402
0982
30C2
6006
8000
ENDCHAR
STARTCHAR 523D
ENCODING 21053
SWIDTH 855 0
DWIDTH 19 0
BBX 15 18 2 -1
BITMAP
0800
0802
1002
3202
6182
C082
8012
1E12
0012
0012
FF92
0012
0012
1002
3302
2182
7C82
7806
ENDCHAR
STARTCHAR 523F
ENCODING 21055
SWIDTH 900 0
DWIDTH 20 0
BBX 16 19 2 -3
BITMAP
0400
0401
4441
4441
4041
7FC1
0009
2009
2009
4F89
C089
8089
1189
0901
0301
0601
0C01
1807
3000
ENDCHAR
STARTCHAR 5240
ENCODING 21056
SWIDTH 900 0
DWIDTH 20 0
BBX 16 18 2 -1
BITMAP
0400
0401
4481
4481
4081
7F81
0011
0011
FF91
0091
0091
3F91
2011
2001
2001
2001
2001
3C07
ENDCHAR
STARTCHAR 5241
ENCODING 21057
SWIDTH 900 0
DWIDTH 20 0
BBX 16 18 2 -1
BITMAP
3F01
0101
2101
6101
4101
4109
C1C9
8809
0809
0809
FF89
0809
0801
0881
C841
0801
0807
0800
ENDCHAR
STARTCHAR 5242
ENCODING 21058
SWIDTH 855 0
DWIDTH 19 0
BBX 15 17 2 0
BITMAP
0802
0802
0002
FF82
0002
0212
1C12
0E12
3192
E012
8212
2212
2202
2202
2202
4202
C206
ENDCHAR
STARTCHAR 5243
ENCODING 21059
SWIDTH 900 0
DWIDTH 20 0
BBX 16 18 2 0
BITMAP
2101
3201
0001
FF81
0081
0489
7F89
4409
4409
7FC9
0449
0449
0441
6441
C4C1
0401
0407
0400
ENDCHAR
STARTCHAR 524A
ENCODING 21066
SWIDTH 900 0
DWIDTH 20 0
BBX 16 19 2 -1
BITMAP
0400
04C1
8581
C501
0401
0001
5F89
4089
4089
4E89
4089
4089
4E89
4081
4081
4081
4087
4181
4080
ENDCHAR
STARTCHAR 524B
ENCODING 21067
SWIDTH 900 0
DWIDTH 20 0
BBX 16 19 2 -2
BITMAP
0800
0802
0802
0802
FF02
0812
0012
7F12
4112
4112
4112
7F02
0002
000E
2202
2200
2200
4201
43FF
ENDCHAR
STARTCHAR 524C
ENCODING 21068
SWIDTH 900 0
DWIDTH 20 0
BBX 15 18 3 -1
BITMAP
0802
0802
0802
FF82
0802
0812
0812
7F12
4912
4912
7F12
0812
0802
4982
88C2
0802
0806
0800
ENDCHAR
STARTCHAR 524D
ENCODING 21069
SWIDTH 900 0
DWIDTH 20 0
BBX 15 17 2 0
BITMAP
3030
1040
0000
FFFE
0000
0004
5E04
4244
4244
7244
4244
4244
7A44
4204
4204
4204
461C
ENDCHAR
STARTCHAR 5250
ENCODING 21072
SWIDTH 900 0
DWIDTH 20 0
BBX 16 17 2 -1
BITMAP
7F81
4081
4081
4081
7F81
0009
0409
0C09
FFC9
8849
9849
9049
B341
A041
8041
8047
80C3
ENDCHAR
STARTCHAR 5251
ENCODING 21073
SWIDTH 855 0
DWIDTH 19 0
BBX 17 17 1 0
BITMAP
030080
020080
060080
0CC080
186080
100480
600480
CF8480
000480
040480
064480
00C480
100080
180080
01E080
0F0380
180000
ENDCHAR
STARTCHAR 5254
ENCODING 21076
SWIDTH 900 0
DWIDTH 20 0
BBX 16 17 2 -1
BITMAP
3F81
2081
2081
2E81
2081
3F89
0009
6009
5FC9
C049
8049
1049
3241
2641
4441
0C41
08C3
ENDCHAR
STARTCHAR 5256
ENCODING 21078
SWIDTH 900 0
DWIDTH 20 0
BBX 16 17 2 1
BITMAP
0401
0401
0001
FF81
0001
2009
3209
0009
FFC9
0009
0009
0009
3F01
2101
2101
2107
3F00
ENDCHAR
STARTCHAR 525C
ENCODING 21084
SWIDTH 855 0
DWIDTH 19 0
BBX 16 19 2 -1
BITMAP
0400
0401
0001
0001
BFE1
8021
8025
0005
C0C5
8245
BA45
0A45
1A45
1201
1201
2201
6381
4303
8000
ENDCHAR
STARTCHAR 525E
ENCODING 21086
SWIDTH 900 0
DWIDTH 20 0
BBX 17 20 1 -2
BITMAP
020000
020080
060080
FFE080
0C0080
198080
20C480
400480
000480
FFE480
000480
008480
7C8480
448080
448080
7C8080
008080
008380
018000
008000
ENDCHAR
STARTCHAR 5261
ENCODING 21089
SWIDTH 855 0
DWIDTH 19 0
BBX 15 17 2 0
BITMAP
0802
0802
8902
D202
1002
2012
6312
C012
0812
0812
0912
DA12
1002
1602
2302
600E
4000
ENDCHAR
STARTCHAR 5265
ENCODING 21093
SWIDTH 855 0
DWIDTH 19 0
BBX 15 16 2 0
BITMAP
7F02
0102
0102
1D02
0132
0032
FFF2
0032
0432
44B2
6532
0402
0502
E4C2
0402
1C06
ENDCHAR
STARTCHAR 5267
ENCODING 21095
SWIDTH 900 0
DWIDTH 20 0
BBX 16 17 2 -1
BITMAP
0001
2FE1
2021
2021
2FE1
2009
2009
2109
2FE9
6109
4109
4109
47E1
4421
C421
8421
07E7
ENDCHAR
STARTCHAR 5269
ENCODING 21097
SWIDTH 900 0
DWIDTH 20 0
BBX 17 19 2 -1
BITMAP
008000
078080
3C0080
000080
040080
040080
FFE480
040480
148480
D4E480
148480
D4A480
14F480
140080
040080
244080
E47080
040380
040000
ENDCHAR
STARTCHAR 526A
ENCODING 21098
SWIDTH 855 0
DWIDTH 19 0
BBX 15 19 2 -2
BITMAP
0020
0860
0000
FFFE
0008
3E08
2248
3A48
2248
3A48
2208
2208
2638
0000
3FF8
0008
0808
1038
2000
ENDCHAR
STARTCHAR 526F
ENCODING 21103
SWIDTH 900 0
DWIDTH 20 0
BBX 16 17 2 0
BITMAP
FFC1
0001
0001
3F01
2101
2109
3F09
0009
0009
FFC9
8049
8849
BF41
8841
8841
8043
FFC0
ENDCHAR
STARTCHAR 5272
ENCODING 21106
SWIDTH 855 0
DWIDTH 19 0
BBX 15 18 2 1
BITMAP
0800
0802
8002
BF82
8082
0802
7F92
0812
0812
3E12
FF92
0812
0812
0002
3F02
2102
210E
3F00
ENDCHAR
STARTCHAR 527D
ENCODING 21117
SWIDTH 900 0
DWIDTH 20 0
BBX 16 18 2 -2
BITMAP
FF80
0001
1401
1401
FF81
9481
9491
FF91
0011
7F11
0011
0011
FFC1
0001
0801
4981
8807
1800
ENDCHAR
STARTCHAR 527F
ENCODING 21119
SWIDTH 855 0
DWIDTH 19 0
BBX 17 19 1 0
BITMAP
226000
66C080
64C080
226080
000080
3FC080
204480
224480
3F4480
224480
3FC480
020480
020480
FFE080
020080
02C080
626380
820000
020000
ENDCHAR
STARTCHAR 5281
ENCODING 21121
SWIDTH 855 0
DWIDTH 19 0
BBX 17 17 1 0
BITMAP
008080
308080
600080
CFF080
208080
27E280
208280
208280
27E280
208280
208280
2FF280
000080
000080
680080
4CD180
840080
ENDCHAR
STARTCHAR 5282
ENCODING 21122
SWIDTH 855 0
DWIDTH 19 0
BBX 18 17 0 0
BITMAP
3FFC40
000040
200040
289040
202140
202140
2FA140
205D40
220D40
4A8940
4AA140
4FA040
442040
842040
0C4840
0844C0
108000
ENDCHAR
STARTCHAR 5288
ENCODING 21128
SWIDTH 855 0
DWIDTH 19 0
BBX 15 21 2 -3
BITMAP
0010
0010
5E7E
4200
4244
5E28
40FE
DE10
9210
927E
1E10
0010
0000
7FF8
0008
0608
0408
0C08
1838
2000
4000
ENDCHAR
STARTCHAR 5290
ENCODING 21136
SWIDTH 900 0
DWIDTH 20 0
BBX 17 20 1 -3
BITMAP
088000
088000
7FF080
088080
110080
310080
47F480
808480
27E480
208480
27E480
208480
27F480
000080
1FC080
004080
04C080
078380
0EF080
380000
ENDCHAR
STARTCHAR 5293
ENCODING 21139
SWIDTH 900 0
DWIDTH 20 0
BBX 16 20 2 -1
BITMAP
0400
0000
0001
3F81
2C81
2C81
2081
3F89
0009
7FC9
4449
5F49
4449
4049
7FC1
0001
FFE1
0007
2103
4100
ENDCHAR
STARTCHAR 529B
ENCODING 21147
SWIDTH 900 0
DWIDTH 20 0
BBX 12 19 4 -1
BITMAP
0400
0400
0400
0400
0C00
FFF0
0810
0810
0810
1810
1010
1010
1010
2010
2010
6070
4000
C000
8000
ENDCHAR
STARTCHAR 529D
ENCODING 21149
SWIDTH 855 0
DWIDTH 19 0
BBX 15 19 2 -1
BITMAP
0020
0020
0020
0020
0020
F820
09FE
0822
1862
5862
7042
3842
2C42
42C2
8082
0086
0180
0100
0100
ENDCHAR
STARTCHAR 529E
ENCODING 21150
SWIDTH 855 0
DWIDTH 19 0
BBX 15 20 2 -2
BITMAP
0400
0400
0400
0400
0400
7FE0
0420
0C20
0820
682C
4822
C820
9820
1020
1020
3020
20E0
2000
4000
4000
ENDCHAR
STARTCHAR 529F
ENCODING 21151
SWIDTH 900 0
DWIDTH 20 0
BBX 16 19 2 -2
BITMAP
0020
0020
0020
0020
0020
FC20
01FF
1021
1061
1061
1041
1041
0041
1C41
F0C1
0087
0080
0180
0100
ENDCHAR
STARTCHAR 52A0
ENCODING 21152
SWIDTH 855 0
DWIDTH 19 0
BBX 17 20 1 -2
BITMAP
100000
100000
100000
100000
100000
100000
7F3F80
112080
312080
312080
212080
212080
212080
212080
212080
473F80
430000
400000
800000
800000
ENDCHAR
STARTCHAR 52A1
ENCODING 21153
SWIDTH 900 0
DWIDTH 20 0
BBX 15 19 3 -2
BITMAP
0C00
1800
13F8
2018
0030
0460
07C0
07E0
3C38
C006
0100
0300
3FF8
0208
0408
0C08
1838
1000
2000
ENDCHAR
STARTCHAR 52A2
ENCODING 21154
SWIDTH 855 0
DWIDTH 19 0
BBX 17 19 1 -2
BITMAP
001800
001800
001800
7F9800
001800
101800
101F80
101880
1F1880
111880
311080
211080
211080
611080
411080
431180
802000
002000
002000
ENDCHAR
STARTCHAR 52A3
ENCODING 21155
SWIDTH 855 0
DWIDTH 19 0
BBX 13 20 3 -2
BITMAP
0100
0100
1138
3108
6100
0118
0070
01C0
0F00
F800
0400
0400
7FF8
0808
0808
1808
1008
2038
6000
4000
ENDCHAR
STARTCHAR 52A8
ENCODING 21160
SWIDTH 900 0
DWIDTH 20 0
BBX 16 19 2 -3
BITMAP
0010
0010
0010
7E10
0010
0010
007F
0011
FF11
0031
0021
2021
6421
4321
D9A1
F047
0040
0040
0080
ENDCHAR
STARTCHAR 52A9
ENCODING 21161
SWIDTH 945 0
DWIDTH 21 0
BBX 17 18 2 -1
BITMAP
001000
001000
7E1000
421000
421000
427F80
5A3180
423180
423180
5A3180
423180
422180
426180
476180
384380
C0C000
008000
008000
ENDCHAR
STARTCHAR 52AA
ENCODING 21162
SWIDTH 900 0
DWIDTH 20 0
BBX 14 19 3 -3
BITMAP
1000
2000
FDF8
6418
4C10
48F0
7878
1CC4
3180
6000
8400
0400
FFF0
0810
0810
1810
1010
2070
4000
ENDCHAR
STARTCHAR 52AB
ENCODING 21163
SWIDTH 855 0
DWIDTH 19 0
BBX 17 19 1 -2
BITMAP
000800
080800
080800
080800
7F0800
080800
083F80
080880
001880
FF9880
001080
001080
301080
201080
212080
6CA380
702000
004000
004000
ENDCHAR
STARTCHAR 52AC
ENCODING 21164
SWIDTH 855 0
DWIDTH 19 0
BBX 17 19 1 -2
BITMAP
000800
000800
000800
400800
C00800
8F0800
813F80
010880
011880
791880
491080
491080
791080
011080
012080
032380
002000
004000
004000
ENDCHAR
STARTCHAR 52AD
ENCODING 21165
SWIDTH 900 0
DWIDTH 20 0
BBX 16 19 2 -2
BITMAP
0010
0010
0010
FE10
0210
2210
627F
4611
C031
8031
0021
0021
7E21
4221
4261
4241
4243
7EC0
0080
ENDCHAR
STARTCHAR 52B1
ENCODING 21169
SWIDTH 900 0
DWIDTH 20 0
BBX 18 20 1 -3
BITMAP
000400
000400
3FE400
000400
200400
200400
2FFFC0
200440
240440
240C40
65C840
644840
644840
4C4840
484840
4849C0
89D0C0
101000
101000
002000
ENDCHAR
STARTCHAR 52B2
ENCODING 21170
SWIDTH 855 0
DWIDTH 19 0
BBX 17 19 1 -1
BITMAP
000800
000800
000800
7F0800
030800
060800
0C3F80
308880
C01880
001880
3F1080
001080
041080
043080
042080
072180
3E6000
704000
004000
ENDCHAR
STARTCHAR 52B3
ENCODING 21171
SWIDTH 900 0
DWIDTH 20 0
BBX 14 20 3 -3
BITMAP
0840
0840
FFFC
0840
0840
0000
5FF8
4008
4008
4608
0400
3FF0
0C10
0810
0810
1810
1030
3000
2000
4000
ENDCHAR
STARTCHAR 52BE
ENCODING 21182
SWIDTH 855 0
DWIDTH 19 0
BBX 17 19 1 -2
BITMAP
080800
080800
000800
FF8800
000800
200800
603F80
440880
F41880
491880
1B1080
321080
661080
8C1080
083080
332380
60A000
806000
004000
ENDCHAR
STARTCHAR 52BF
ENCODING 21183
SWIDTH 900 0
DWIDTH 20 0
BBX 15 20 2 -2
BITMAP
1000
1040
1040
7FF8
1048
3CC8
F188
10E8
108C
318E
1704
0400
3FF8
0C08
0C08
0808
0808
1038
1000
2000
ENDCHAR
STARTCHAR 52C3
ENCODING 21187
SWIDTH 900 0
DWIDTH 20 0
BBX 16 19 2 -3
BITMAP
0810
0810
7F10
0810
0810
8010
FF7F
8111
8131
7E31
0621
0421
0821
0F21
F861
0847
0840
3840
0880
ENDCHAR
STARTCHAR 52C7
ENCODING 21191
SWIDTH 900 0
DWIDTH 20 0
BBX 12 20 4 -3
BITMAP
3FC0
0080
0080
0600
0300
9FF0
8030
8230
9FB0
8230
9FB0
8230
8230
0800
FFF0
1010
1010
2010
6070
C000
ENDCHAR
STARTCHAR 52C9
ENCODING 21193
SWIDTH 900 0
DWIDTH 20 0
BBX 16 20 2 -2
BITMAP
2000
2010
6010
4010
9E10
0CFE
0822
FE22
8222
9222
9222
9262
FE4E
2046
2440
2480
4400
4401
87FF
8000
ENDCHAR
STARTCHAR 52CB
ENCODING 21195
SWIDTH 855 0
DWIDTH 19 0
BBX 17 19 1 -3
BITMAP
000800
000800
3F0800
210800
210800
3F0800
003F80
000880
7F9880
409080
489080
489080
489080
081080
102080
33A380
202000
C04000
004000
ENDCHAR
STARTCHAR 52D0
ENCODING 21200
SWIDTH 900 0
DWIDTH 20 0
BBX 16 19 2 -2
BITMAP
0010
7E10
0210
0410
0410
FF90
087F
0811
3811
0021
FF21
8121
9521
9521
9541
0043
0F40
7840
0080
ENDCHAR
STARTCHAR 52D2
ENCODING 21202
SWIDTH 900 0
DWIDTH 20 0
BBX 16 18 2 -2
BITMAP
2210
2210
FF10
2210
3E10
007F
0811
7F11
4911
4911
7F31
0831
0821
FFA1
0867
0840
08C0
0080
ENDCHAR
STARTCHAR 52D6
ENCODING 21206
SWIDTH 900 0
DWIDTH 20 0
BBX 17 19 2 -2
BITMAP
000800
BF0800
810800
B90800
810800
810800
B93F80
000880
001880
7F1880
411080
791080
411080
411080
793080
412380
412000
7F6000
004000
ENDCHAR
STARTCHAR 52D8
ENCODING 21208
SWIDTH 855 0
DWIDTH 19 0
BBX 17 19 1 -2
BITMAP
210000
210800
210800
FF8800
210800
210800
2D0800
217F80
211080
2D1080
211080
211080
FFB080
002080
002080
452080
486380
404000
7F4000
ENDCHAR
STARTCHAR 52DF
ENCODING 21215
SWIDTH 900 0
DWIDTH 20 0
BBX 14 20 3 -3
BITMAP
0840
7FFC
0840
0840
1FE0
1020
1720
1020
1FE0
0000
0C00
FFFC
1000
3218
660C
0FE0
0420
0420
08E0
0800
ENDCHAR
STARTCHAR 52E4
ENCODING 21220
SWIDTH 855 0
DWIDTH 19 0
BBX 17 20 1 -2
BITMAP
120000
120800
FFE800
120800
1E0800
000800
040800
3F7F80
250880
250880
3F1880
041080
7F9080
041080
3FD080
041080
042380
072000
3C2000
004000
ENDCHAR
STARTCHAR 52F0
ENCODING 21232
SWIDTH 855 0
DWIDTH 19 0
BBX 17 20 1 -1
BITMAP
100000
107F00
7E4100
124100
324900
225F00
264900
404900
404900
447F00
440000
FF0C00
550400
550000
D55000
9D5080
99D200
BB9200
881F00
080000
ENDCHAR
STARTCHAR 52F9
ENCODING 21241
SWIDTH 855 0
DWIDTH 19 0
BBX 13 18 3 -1
BITMAP
1000
3000
2000
47F8
C008
8008
0008
0008
0008
0008
0008
0008
0008
0008
0008
0008
0008
0038
ENDCHAR
STARTCHAR 52FA
ENCODING 21242
SWIDTH 855 0
DWIDTH 19 0
BBX 13 18 3 -1
BITMAP
1000
3000
2000
47F8
C008
8008
0008
0008
0008
0C08
0608
0308
0008
0008
0008
0008
0008
0038
ENDCHAR
STARTCHAR 52FE
ENCODING 21246
SWIDTH 855 0
DWIDTH 19 0
BBX 13 18 3 -1
BITMAP
1000
3000
2000
47F8
C008
8008
0008
0808
1008
3108
2188
6088
7E48
0008
0008
0008
0008
0038
ENDCHAR
STARTCHAR 52FF
ENCODING 21247
SWIDTH 900 0
DWIDTH 20 0
BBX 14 17 3 0
BITMAP
1800
1000
3000
63FC
4004
8004
0404
0C04
0844
08C4
1084
3084
2104
4304
8204
0404
081C
ENDCHAR
STARTCHAR 5300
ENCODING 21248
SWIDTH 855 0
DWIDTH 19 0
BBX 13 18 3 -1
BITMAP
1000
3000
2000
47F8
C008
8008
0008
0008
1C08
0608
0008
0008
0308
1C08
7008
8008
0008
0038
ENDCHAR
STARTCHAR 5305
ENCODING 21253
SWIDTH 900 0
DWIDTH 20 0
BBX 16 18 2 0
BITMAP
1000
3000
2000
47F8
C008
8008
2788
2088
2088
2088
2088
2788
2038
2000
2000
2000
2002
3FFF
ENDCHAR
STARTCHAR 5306
ENCODING 21254
SWIDTH 855 0
DWIDTH 19 0
BBX 13 18 3 -1
BITMAP
1000
3000
2000
47F8
C008
8008
0008
0C08
0888
3988
1908
3F08
2308
46C8
8408
0808
1808
0038
ENDCHAR
STARTCHAR 5308
ENCODING 21256
SWIDTH 855 0
DWIDTH 19 0
BBX 13 18 3 -1
BITMAP
1000
1000
2000
67F8
4008
8208
0208
1608
5C48
4C48
4E48
4948
5048
5048
4048
7FC8
0008
0038
ENDCHAR
STARTCHAR 530D
ENCODING 21261
SWIDTH 900 0
DWIDTH 20 0
BBX 14 19 3 -2
BITMAP
3000
2000
4FFC
C004
0484
04C4
0404
FFF4
0404
5FC4
4444
4444
5F44
4444
4444
5F44
4444
4444
44CC
ENDCHAR
STARTCHAR 530F
ENCODING 21263
SWIDTH 900 0
DWIDTH 20 0
BBX 18 17 1 0
BITMAP
102000
106000
7F4000
20CF80
6C8080
430080
805C80
3C4480
004480
FF4480
005C80
204180
204000
3E4000
024080
024080
067FC0
ENDCHAR
STARTCHAR 5310
ENCODING 21264
SWIDTH 900 0
DWIDTH 20 0
BBX 15 19 2 -2
BITMAP
1000
3000
67FE
4002
8002
3FE2
0002
0F82
0882
0882
0F82
0002
3FE2
2022
2222
2FA2
2222
2022
3FEE
ENDCHAR
STARTCHAR 5315
ENCODING 21269
SWIDTH 900 0
DWIDTH 20 0
BBX 12 15 4 0
BITMAP
8000
8000
8000
8020
80E0
8700
8000
8000
8000
8000
8000
8000
8000
8010
FFF0
ENDCHAR
STARTCHAR 5316
ENCODING 21270
SWIDTH 855 0
DWIDTH 19 0
BBX 15 15 2 0
BITMAP
0040
1040
3040
6040
C046
005C
2070
23C0
2440
2040
2040
2040
2040
2042
207E
ENDCHAR
STARTCHAR 5317
ENCODING 21271
SWIDTH 855 0
DWIDTH 19 0
BBX 15 18 2 -2
BITMAP
0400
0420
0420
0420
0420
0424
742C
0428
0420
0420
0420
1420
E422
0422
043E
0400
0400
0400
ENDCHAR
STARTCHAR 5319
ENCODING 21273
SWIDTH 900 0
DWIDTH 20 0
BBX 16 19 2 -2
BITMAP
3F00
2120
3D20
2121
2122
3F24
0020
0020
FFA0
0020
2420
2421
25BF
6400
4400
5800
CC00
87FF
8000
ENDCHAR
STARTCHAR 531A
ENCODING 21274
SWIDTH 855 0
DWIDTH 19 0
BBX 13 18 3 -2
BITMAP
FFF8
8000
8000
8000
8000
8000
8000
8000
8000
8000
8000
8000
8000
8000
8000
8000
8000
FFF8
ENDCHAR
STARTCHAR 531D
ENCODING 21277
SWIDTH 855 0
DWIDTH 19 0
BBX 13 18 3 -2
BITMAP
FFF8
8000
8100
8100
8100
8100
97F0
9110
9110
9110
9110
9170
9100
8100
8100
8000
8000
FFF8
ENDCHAR
STARTCHAR 5320
ENCODING 21280
SWIDTH 855 0
DWIDTH 19 0
BBX 13 18 3 -2
BITMAP
FFF8
8000
8000
8000
8BE0
8800
8800
8800
8BF0
8800
9840
9040
9040
9040
A040
8000
8000
FFF8
ENDCHAR
STARTCHAR 5321
ENCODING 21281
SWIDTH 855 0
DWIDTH 19 0
BBX 13 18 3 -2
BITMAP
FFF8
8000
8000
9FE0
8000
8000
8100
8100
8FC0
8100
8100
8100
8100
8000
9FF0
8000
8000
FFF8
ENDCHAR
STARTCHAR 5323
ENCODING 21283
SWIDTH 855 0
DWIDTH 19 0
BBX 13 18 3 -3
BITMAP
FFF8
8000
8000
9FF0
9010
9110
97D0
9110
9110
9110
9FF0
8100
8100
8100
8100
8100
8000
FFF8
ENDCHAR
STARTCHAR 5326
ENCODING 21286
SWIDTH 900 0
DWIDTH 20 0
BBX 14 18 3 -2
BITMAP
FFF8
8000
8000
8840
8840
BE40
91F0
9450
9450
BE50
84D0
8494
9E94
B49C
8580
8500
8000
FFF8
ENDCHAR
STARTCHAR 532A
ENCODING 21290
SWIDTH 855 0
DWIDTH 19 0
BBX 13 18 3 -2
BITMAP
FFF8
8000
8000
8280
8280
BAB8
8280
8280
BAB8
8280
8280
8280
BAB8
8280
8280
8280
8000
FFF8
ENDCHAR
STARTCHAR 532E
ENCODING 21294
SWIDTH 855 0
DWIDTH 19 0
BBX 13 17 3 -2
BITMAP
FFF8
8100
8FE0
8920
8920
8FE0
8100
BFF8
8000
8FE0
8820
8920
8A20
8640
8838
8000
FFF8
ENDCHAR
STARTCHAR 5339
ENCODING 21305
SWIDTH 855 0
DWIDTH 19 0
BBX 13 18 3 -2
BITMAP
FFF8
8000
8000
8000
8400
8480
8480
8480
8C80
8880
8880
88F8
9000
9000
8000
8000
8000
FFF8
ENDCHAR
STARTCHAR 533A
ENCODING 21306
SWIDTH 855 0
DWIDTH 19 0
BBX 13 17 3 -2
BITMAP
FFF8
8000
8000
8000
8040
8840
8C80
8680
8180
83C0
8220
8410
8800
9800
8000
8000
FFF8
ENDCHAR
STARTCHAR 533B
ENCODING 21307
SWIDTH 855 0
DWIDTH 19 0
BBX 13 17 3 -2
BITMAP
FFF8
8000
8000
8400
85E0
8800
8800
8100
8100
9FF8
8300
8200
8660
8418
8800
8000
FFF8
ENDCHAR
STARTCHAR 533E
ENCODING 21310
SWIDTH 900 0
DWIDTH 20 0
BBX 14 17 3 0
BITMAP
FFFC
8000
8080
8BF0
8810
8810
8BF0
8800
8800
95F8
94A8
95E8
94A8
8408
8418
8000
FFFC
ENDCHAR
STARTCHAR 533F
ENCODING 21311
SWIDTH 900 0
DWIDTH 20 0
BBX 14 17 3 -1
BITMAP
FFFC
8000
8440
9FF8
8440
8440
8540
8300
9FF8
8600
8FF0
9A10
9210
8210
83F0
8000
FFFC
ENDCHAR
STARTCHAR 5341
ENCODING 21313
SWIDTH 900 0
DWIDTH 20 0
BBX 14 19 3 -1
BITMAP
0100
0100
0100
0100
0100
0100
0100
0100
FFFC
0100
0100
0100
0100
0100
0100
0100
0100
0100
0100
ENDCHAR
STARTCHAR 5343
ENCODING 21315
SWIDTH 900 0
DWIDTH 20 0
BBX 14 18 3 0
BITMAP
01E0
3F80
0000
0100
0100
0100
0100
0100
FFFC
0100
0100
0100
0100
0100
0100
0100
0100
0100
ENDCHAR
STARTCHAR 5345
ENCODING 21317
SWIDTH 855 0
DWIDTH 19 0
BBX 15 18 2 -2
BITMAP
1008
1008
1108
1108
1108
1108
1108
1108
FFFE
1108
1108
1108
1108
3108
2108
2108
2008
6008
ENDCHAR
STARTCHAR 5347
ENCODING 21319
SWIDTH 855 0
DWIDTH 19 0
BBX 15 19 2 -1
BITMAP
0020
0220
7E20
0020
0820
0820
0820
0820
0820
FFFE
1020
1020
1020
1020
3020
2020
2020
0020
0020
ENDCHAR
STARTCHAR 5348
ENCODING 21320
SWIDTH 855 0
DWIDTH 19 0
BBX 15 19 2 -1
BITMAP
1000
1000
33F8
2000
6000
4080
0080
0080
0080
FFFE
0080
0080
0080
0080
0080
0080
0080
0080
0080
ENDCHAR
STARTCHAR 5349
ENCODING 21321
SWIDTH 855 0
DWIDTH 19 0
BBX 15 19 2 -2
BITMAP
0100
0100
0100
0100
7FF8
0100
0100
0100
0900
0820
0820
FFFE
1020
1020
1020
3020
2020
2020
6020
ENDCHAR
STARTCHAR 534A
ENCODING 21322
SWIDTH 855 0
DWIDTH 19 0
BBX 15 20 2 -2
BITMAP
0100
0100
0100
2118
3110
0100
0100
3FF0
0100
0100
0100
0100
0100
FFFE
0100
0100
0100
0100
0100
0100
ENDCHAR
STARTCHAR 534D
ENCODING 21325
SWIDTH 855 0
DWIDTH 19 0
BBX 15 18 2 0
BITMAP
0004
FF04
0104
0104
0104
0104
0104
0104
7FFC
4100
4100
4100
4100
4100
4100
4100
41FE
4000
ENDCHAR
STARTCHAR 534E
ENCODING 21326
SWIDTH 855 0
DWIDTH 19 0
BBX 15 19 2 -2
BITMAP
1840
3040
6040
C05C
0070
13C0
1040
1044
107C
1000
0100
0100
0100
FFFE
0100
0100
0100
0100
0100
ENDCHAR
STARTCHAR 534F
ENCODING 21327
SWIDTH 855 0
DWIDTH 19 0
BBX 17 19 1 -3
BITMAP
004000
004000
104000
104000
104000
104000
13FC00
FC4400
104400
104400
134580
12C400
108400
108400
108400
119C00
010000
010000
020000
ENDCHAR
STARTCHAR 5351
ENCODING 21329
SWIDTH 855 0
DWIDTH 19 0
BBX 15 20 2 -2
BITMAP
0200
0600
0000
3FF0
2010
2110
2110
2FD0
2210
2610
3FF0
0800
1880
2080
0080
FFFE
0080
0080
0080
0080
ENDCHAR
STARTCHAR 5352
ENCODING 21330
SWIDTH 855 0
DWIDTH 19 0
BBX 15 20 2 -2
BITMAP
0100
0100
0000
7FFC
0000
0820
0820
1020
1440
3650
2088
4000
0100
0100
FFFE
0100
0100
0100
0100
0100
ENDCHAR
STARTCHAR 5353
ENCODING 21331
SWIDTH 855 0
DWIDTH 19 0
BBX 15 20 2 -3
BITMAP
0100
0100
0178
0100
0100
1FF0
1010
1010
1790
1010
1010
1FF0
0000
0100
0100
FFFE
0100
0100
0100
0100
ENDCHAR
STARTCHAR 5355
ENCODING 21333
SWIDTH 855 0
DWIDTH 19 0
BBX 15 19 2 -1
BITMAP
0820
0C20
0000
1FF0
1010
1110
1110
17D0
1110
1110
1FF0
0100
0100
FFFE
0100
0100
0100
0100
0100
ENDCHAR
STARTCHAR 5356
ENCODING 21334
SWIDTH 900 0
DWIDTH 20 0
BBX 14 19 3 -2
BITMAP
0100
0100
3FF0
0100
0100
0000
FFFC
0004
0104
0900
0500
4100
2100
FFFC
0200
0600
0460
0838
1000
ENDCHAR
STARTCHAR 5357
ENCODING 21335
SWIDTH 855 0
DWIDTH 19 0
BBX 15 19 2 -1
BITMAP
0100
0100
0100
FFFE
0100
0000
5FFC
4004
4044
4484
4004
4FE4
4104
5FE4
4104
4104
4104
411C
4000
ENDCHAR
STARTCHAR 535A
ENCODING 21338
SWIDTH 900 0
DWIDTH 20 0
BBX 18 18 1 -2
BITMAP
000900
000800
11FFC0
100800
100800
10BF80
108880
FCBE80
108880
10BE80
108880
100200
100200
11FFC0
100200
103200
001200
000600
ENDCHAR
STARTCHAR 535C
ENCODING 21340
SWIDTH 855 0
DWIDTH 19 0
BBX 7 18 6 -1
BITMAP
80
80
80
80
80
80
90
8C
82
80
80
80
80
80
80
80
80
80
ENDCHAR
STARTCHAR 535E
ENCODING 21342
SWIDTH 855 0
DWIDTH 19 0
BBX 15 19 2 0
BITMAP
0100
0100
0000
FFFE
0000
0100
0100
0100
0100
0130
0118
0100
0100
0100
0100
0100
0100
0100
0100
ENDCHAR
STARTCHAR 535F
ENCODING 21343
SWIDTH 855 0
DWIDTH 19 0
BBX 15 19 2 -1
BITMAP
0040
0040
0040
0040
0040
FC40
8440
8440
845C
8446
8440
8440
FC40
0040
0040
0040
0040
0040
0040
ENDCHAR
STARTCHAR 5360
ENCODING 21344
SWIDTH 900 0
DWIDTH 20 0
BBX 12 18 4 -2
BITMAP
0400
0400
0400
05F0
0400
0400
0400
0400
0000
FFC0
8040
8040
8040
8040
8040
8040
8040
FFC0
ENDCHAR
STARTCHAR 5361
ENCODING 21345
SWIDTH 855 0
DWIDTH 19 0
BBX 15 19 2 -1
BITMAP
0200
0200
0200
02F8
0200
0200
0200
0000
FFFE
0000
0100
0100
0130
011C
0100
0100
0100
0100
0100
ENDCHAR
STARTCHAR 5362
ENCODING 21346
SWIDTH 855 0
DWIDTH 19 0
BBX 15 20 2 -2
BITMAP
0100
0100
013E
0100
0100
0000
27FC
2004
2004
2004
2004
27FC
6000
6000
6000
4000
4000
C000
8000
8000
ENDCHAR
STARTCHAR 5363
ENCODING 21347
SWIDTH 855 0
DWIDTH 19 0
BBX 13 19 3 -3
BITMAP
0400
0400
04F8
0400
0400
0400
0000
FFF8
8008
8008
9F88
8088
8088
8088
9F88
8008
8008
8008
FFF8
ENDCHAR
STARTCHAR 5364
ENCODING 21348
SWIDTH 855 0
DWIDTH 19 0
BBX 13 19 3 -2
BITMAP
0400
0400
0400
04F8
0400
0400
0000
FFF8
8008
8088
8088
8908
8708
8708
8C88
9808
8008
8008
FFF8
ENDCHAR
STARTCHAR 5366
ENCODING 21350
SWIDTH 855 0
DWIDTH 19 0
BBX 17 18 1 -1
BITMAP
081000
081000
7E1000
081000
081000
081000
FF1000
001600
001380
081080
081000
7E1000
081000
081000
081000
0E1000
F01000
001000
ENDCHAR
STARTCHAR 5367
ENCODING 21351
SWIDTH 855 0
DWIDTH 19 0
BBX 17 19 1 -1
BITMAP
001000
001000
001000
FF1000
001000
881000
881000
881000
BF1000
811700
811080
BF1000
841000
841000
841000
841000
801000
FF9000
001000
ENDCHAR
STARTCHAR 5369
ENCODING 21353
SWIDTH 855 0
DWIDTH 19 0
BBX 6 15 12 0
BITMAP
FC
04
04
84
84
84
84
84
84
8C
80
80
80
80
80
ENDCHAR
STARTCHAR 536B
ENCODING 21355
SWIDTH 900 0
DWIDTH 20 0
BBX 16 17 2 -3
BITMAP
7FF8
0008
0008
0108
0108
0108
0108
0108
0108
0118
0100
0100
0100
0100
0000
0000
FFFF
ENDCHAR
STARTCHAR 536E
ENCODING 21358
SWIDTH 855 0
DWIDTH 19 0
BBX 15 19 2 -1
BITMAP
007C
07F8
0000
2000
2000
2FFE
2000
2000
2000
65F0
6410
4410
4410
4410
4430
8400
8400
8402
07FE
ENDCHAR
STARTCHAR 536F
ENCODING 21359
SWIDTH 900 0
DWIDTH 20 0
BBX 15 15 3 0
BITMAP
FC7E
0002
8002
8442
8442
8442
8C42
8842
C842
084E
1040
1040
2040
2040
0040
ENDCHAR
STARTCHAR 5370
ENCODING 21360
SWIDTH 900 0
DWIDTH 20 0
BBX 14 15 3 0
BITMAP
F8FC
0004
8004
8084
8084
BC84
8084
8084
8084
809C
E08C
0080
0080
0080
0080
ENDCHAR
STARTCHAR 5371
ENCODING 21361
SWIDTH 855 0
DWIDTH 19 0
BBX 15 19 2 -1
BITMAP
1000
1000
33F8
2010
4030
0000
2FFC
2000
2000
2000
65F8
6408
4408
4408
4438
C400
8402
8402
07FE
ENDCHAR
STARTCHAR 5373
ENCODING 21363
SWIDTH 900 0
DWIDTH 20 0
BBX 14 16 3 -1
BITMAP
9EFC
8204
8204
BA44
8244
8244
BE44
8044
8044
804C
8C44
8640
F040
C040
0040
0040
ENDCHAR
STARTCHAR 5374
ENCODING 21364
SWIDTH 855 0
DWIDTH 19 0
BBX 17 17 1 0
BITMAP
080000
080000
081F80
7F0080
080080
081080
081080
001080
001080
FF9080
001080
001180
301000
221000
211000
6D9000
701000
ENDCHAR
STARTCHAR 5375
ENCODING 21365
SWIDTH 900 0
DWIDTH 20 0
BBX 14 18 3 -2
BITMAP
1000
3000
80BC
8084
8484
8484
A4A4
94B4
8484
8C84
8C84
E884
089C
0880
1880
1080
1080
2080
ENDCHAR
STARTCHAR 5377
ENCODING 21367
SWIDTH 900 0
DWIDTH 20 0
BBX 14 20 3 -2
BITMAP
0008
1118
1910
0100
3FF0
0200
0400
FFFC
0800
1018
3004
6000
4BE0
0820
0820
08E0
0820
0808
0808
0FF8
ENDCHAR
STARTCHAR 5378
ENCODING 21368
SWIDTH 855 0
DWIDTH 19 0
BBX 17 17 1 -1
BITMAP
300000
200000
6F9F80
400080
040080
041080
041080
FF9080
041080
041080
259080
241380
241000
241000
001000
079000
7C1000
ENDCHAR
STARTCHAR 537A
ENCODING 21370
SWIDTH 900 0
DWIDTH 20 0
BBX 14 19 3 -2
BITMAP
3FC0
00C0
0080
F1B0
1100
2120
6138
8700
0000
FFFC
0000
17C0
1040
1040
1040
10C0
1008
1008
1FFC
ENDCHAR
STARTCHAR 537F
ENCODING 21375
SWIDTH 900 0
DWIDTH 20 0
BBX 18 16 1 -1
BITMAP
3AE7C0
422040
822040
82E440
8A2440
8A2440
9AE440
920440
D20440
1205C0
320400
224400
223400
438400
400400
800000
ENDCHAR
STARTCHAR 5382
ENCODING 21378
SWIDTH 855 0
DWIDTH 19 0
BBX 14 18 2 -2
BITMAP
3FFC
0000
2000
2000
2000
2000
2000
2000
2000
2000
2000
6000
6000
4000
4000
4000
4000
8000
ENDCHAR
STARTCHAR 5384
ENCODING 21380
SWIDTH 855 0
DWIDTH 19 0
BBX 15 17 2 -2
BITMAP
3FFE
0000
2000
2000
2000
22F8
2208
2208
2208
2208
6218
4200
4200
4200
8200
8202
03FE
ENDCHAR
STARTCHAR 5385
ENCODING 21381
SWIDTH 900 0
DWIDTH 20 0
BBX 15 16 3 -2
BITMAP
3FFE
0000
2000
2000
27FC
2000
2020
2020
2020
4020
4020
4020
4020
C020
8020
80E0
ENDCHAR
STARTCHAR 5386
ENCODING 21382
SWIDTH 900 0
DWIDTH 20 0
BBX 14 16 3 -2
BITMAP
7FFC
0000
2080
2080
2080
2080
27FC
2184
2104
4104
4104
4304
C204
821C
8400
0400
ENDCHAR
STARTCHAR 5389
ENCODING 21385
SWIDTH 855 0
DWIDTH 19 0
BBX 15 18 2 -2
BITMAP
3FFE
0000
1000
1000
17FE
1000
1180
1180
1180
11FC
3104
2304
2304
6304
4204
461C
C400
0400
ENDCHAR
STARTCHAR 538B
ENCODING 21387
SWIDTH 900 0
DWIDTH 20 0
BBX 14 16 3 -1
BITMAP
7FF8
0000
2000
2080
2080
2080
2080
27F8
2080
4080
4090
4098
C080
8000
8000
8FFC
ENDCHAR
STARTCHAR 538C
ENCODING 21388
SWIDTH 855 0
DWIDTH 19 0
BBX 15 19 2 -2
BITMAP
3FFE
0000
0000
2000
2040
2048
2048
2040
2040
2FFE
2080
6080
4080
4100
411C
8306
8200
0400
0400
ENDCHAR
STARTCHAR 538D
ENCODING 21389
SWIDTH 855 0
DWIDTH 19 0
BBX 15 19 2 -2
BITMAP
3FFE
0000
1040
1040
10C0
17FE
1080
3180
3110
3110
23FC
2010
2010
6010
67FE
4010
4010
8010
0010
ENDCHAR
STARTCHAR 5395
ENCODING 21397
SWIDTH 900 0
DWIDTH 20 0
BBX 16 17 2 -2
BITMAP
3FFF
0000
2001
27E1
2421
2429
2529
2529
2529
6529
4529
4201
4241
C271
8401
8407
0800
ENDCHAR
STARTCHAR 5398
ENCODING 21400
SWIDTH 900 0
DWIDTH 20 0
BBX 16 18 2 -2
BITMAP
3FFF
0000
1000
13FC
1204
1224
12FC
3224
3224
3224
23FC
2020
6020
67FC
4020
4020
8020
0FFF
ENDCHAR
STARTCHAR 539A
ENCODING 21402
SWIDTH 855 0
DWIDTH 19 0
BBX 15 17 2 -2
BITMAP
3FFE
0000
23F8
2208
2208
22E8
2208
23F8
2000
2000
63F8
4018
4030
4FFE
8040
8040
00C0
ENDCHAR
STARTCHAR 539D
ENCODING 21405
SWIDTH 900 0
DWIDTH 20 0
BBX 16 19 2 -2
BITMAP
7FFE
0000
0000
2110
2110
27FC
2110
2110
2110
6FFF
6000
43F8
4208
4208
C208
82E8
8208
8208
03F8
ENDCHAR
STARTCHAR 539F
ENCODING 21407
SWIDTH 855 0
DWIDTH 19 0
BBX 16 18 2 -2
BITMAP
3FFE
0040
20C0
2100
23FC
2204
2204
22E4
2204
2204
63FC
4000
4040
4246
CC43
8040
01C0
0040
ENDCHAR
STARTCHAR 53A2
ENCODING 21410
SWIDTH 900 0
DWIDTH 20 0
BBX 17 17 1 -1
BITMAP
3FFF80
000000
200000
200000
211F00
211100
211100
211100
271700
211100
21D100
6D1700
491100
411100
411100
411100
811F00
ENDCHAR
STARTCHAR 53A3
ENCODING 21411
SWIDTH 900 0
DWIDTH 20 0
BBX 16 19 2 -2
BITMAP
3FFF
0000
2024
2060
27FE
2080
210C
2606
2000
23FC
4204
4224
42FC
4224
C3FC
8020
8020
0020
0020
ENDCHAR
STARTCHAR 53A5
ENCODING 21413
SWIDTH 855 0
DWIDTH 19 0
BBX 16 19 1 -2
BITMAP
3FFF
0000
2648
22C8
2018
2FD0
2007
2101
2101
2540
4548
4548
47C8
4208
4210
4212
8411
0420
0800
ENDCHAR
STARTCHAR 53A6
ENCODING 21414
SWIDTH 900 0
DWIDTH 20 0
BBX 16 19 2 -2
BITMAP
3FFF
0000
27FE
2020
2040
23FC
2204
2274
2204
2274
6204
43FC
4200
46F8
CC0C
81D8
8078
0786
0C00
ENDCHAR
STARTCHAR 53A8
ENCODING 21416
SWIDTH 900 0
DWIDTH 20 0
BBX 16 17 2 -1
BITMAP
3FFF
0000
0000
2FC2
2002
2002
2782
24BF
2482
2482
6792
400A
4082
4502
C402
8382
8E0E
ENDCHAR
STARTCHAR 53A9
ENCODING 21417
SWIDTH 855 0
DWIDTH 19 0
BBX 17 18 1 -2
BITMAP
3FFF00
000000
200000
2BDF00
284000
284000
2B5400
285400
685400
6BD400
481F00
480C00
488A00
48CA00
884A00
8E1280
801380
002000
ENDCHAR
STARTCHAR 53AE
ENCODING 21422
SWIDTH 855 0
DWIDTH 19 0
BBX 16 18 2 -3
BITMAP
7FFF
2000
2481
248F
3FC0
2490
2490
6690
6497
6490
4690
4492
4032
DFE2
8022
8522
8CC2
1802
ENDCHAR
STARTCHAR 53B6
ENCODING 21430
SWIDTH 900 0
DWIDTH 20 0
BBX 14 14 3 2
BITMAP
0C00
0800
0800
1800
1000
3000
2000
2040
6060
4030
C010
C018
9F0C
F804
ENDCHAR
STARTCHAR 53BB
ENCODING 21435
SWIDTH 855 0
DWIDTH 19 0
BBX 15 18 2 0
BITMAP
0100
0100
0100
0100
3FF8
0100
0100
0100
0000
FFFE
0000
0000
0C00
0830
0810
1008
17CC
1E00
ENDCHAR
STARTCHAR 53BF
ENCODING 21439
SWIDTH 855 0
DWIDTH 19 0
BBX 15 19 2 -1
BITMAP
0FE0
0820
0820
0820
0BA0
0820
0820
0820
0BA0
0820
0820
0000
FFFE
0000
0400
0C20
0830
1FD8
1F88
ENDCHAR
STARTCHAR 53C1
ENCODING 21441
SWIDTH 855 0
DWIDTH 19 0
BBX 15 18 2 -1
BITMAP
0C00
0820
1830
3798
3E00
0000
0400
0C00
FFFE
1800
3010
279C
4000
0000
1FE0
0000
0000
FFFE
ENDCHAR
STARTCHAR 53C2
ENCODING 21442
SWIDTH 855 0
DWIDTH 19 0
BBX 15 19 2 -1
BITMAP
0600
0420
0830
1FC8
1F00
0000
0200
0600
FFFE
0800
1098
238C
C000
00E0
1F80
0000
0078
1FE0
F800
ENDCHAR
STARTCHAR 53C8
ENCODING 21448
SWIDTH 855 0
DWIDTH 19 0
BBX 14 15 2 -1
BITMAP
3FF8
0018
0018
0010
0030
0860
0640
03C0
0180
0360
0630
0C18
1804
2000
C000
ENDCHAR
STARTCHAR 53C9
ENCODING 21449
SWIDTH 900 0
DWIDTH 20 0
BBX 14 15 3 -1
BITMAP
3FF8
0008
0018
0310
0030
0860
0C40
03C0
0180
03C0
0660
0C18
180C
2000
C000
ENDCHAR
STARTCHAR 53CA
ENCODING 21450
SWIDTH 855 0
DWIDTH 19 0
BBX 14 17 2 -2
BITMAP
7FC0
00C0
0080
1080
1180
11F0
3010
2030
2020
2360
21C0
20E0
4198
410C
4200
8400
0800
ENDCHAR
STARTCHAR 53CB
ENCODING 21451
SWIDTH 945 0
DWIDTH 21 0
BBX 15 19 3 -2
BITMAP
0400
0400
0400
0800
FFFE
0800
0800
1800
1000
17F0
3010
2030
6120
41E0
80F0
818C
0600
0C00
1000
ENDCHAR
STARTCHAR 53CC
ENCODING 21452
SWIDTH 855 0
DWIDTH 19 0
BBX 15 16 2 -2
BITMAP
FEFC
0204
0604
040C
0408
0C08
0C98
F870
1E30
1038
102C
3022
2040
6040
4080
8000
ENDCHAR
STARTCHAR 53CD
ENCODING 21453
SWIDTH 945 0
DWIDTH 21 0
BBX 15 18 3 -2
BITMAP
0018
01F8
0F80
2000
2000
2000
2000
23F0
6010
6010
4030
41E0
4070
409C
8186
8600
0C00
1800
ENDCHAR
STARTCHAR 53D1
ENCODING 21457
SWIDTH 855 0
DWIDTH 19 0
BBX 13 19 3 -3
BITMAP
0800
4840
C840
8800
8800
FFF8
1800
1000
1000
17E0
3060
2040
20C0
4380
41E0
8318
8600
0C00
1000
ENDCHAR
STARTCHAR 53D4
ENCODING 21460
SWIDTH 855 0
DWIDTH 19 0
BBX 17 18 1 -1
BITMAP
080000
080000
080000
0B8000
080000
080000
003F00
FF8300
000200
000200
081E00
080C00
498F00
C81880
083000
086000
384000
180000
ENDCHAR
STARTCHAR 53D6
ENCODING 21462
SWIDTH 900 0
DWIDTH 20 0
BBX 16 15 2 0
BITMAP
FF00
0000
427E
5A06
4206
4204
5A3C
4218
420C
421E
0F13
7A30
8260
0240
0280
ENDCHAR
STARTCHAR 53D7
ENCODING 21463
SWIDTH 900 0
DWIDTH 20 0
BBX 14 19 3 -3
BITMAP
00E0
3FE0
0000
0210
2120
0000
BFFC
8004
8004
1FE0
0060
0040
00C0
0F80
03C0
0670
0C00
3000
6000
ENDCHAR
STARTCHAR 53D8
ENCODING 21464
SWIDTH 900 0
DWIDTH 20 0
BBX 15 19 3 -2
BITMAP
0100
0100
0000
FFFC
0000
0440
4444
8446
0440
0000
1FE0
0020
0040
00C0
0780
03C0
0638
1800
6000
ENDCHAR
STARTCHAR 53D9
ENCODING 21465
SWIDTH 855 0
DWIDTH 19 0
BBX 17 17 1 0
BITMAP
040000
0C0000
180000
130000
218000
403F00
0E0200
040200
041600
7F9C00
040E00
040B00
259880
643000
C42000
1C4000
040000
ENDCHAR
STARTCHAR 53DB
ENCODING 21467
SWIDTH 900 0
DWIDTH 20 0
BBX 18 18 1 -2
BITMAP
000700
105E00
904000
D24000
104000
104000
FC4000
105F00
104300
30C200
FE8200
208A00
208600
418700
410D80
8018C0
001000
002000
ENDCHAR
STARTCHAR 53DF
ENCODING 21471
SWIDTH 855 0
DWIDTH 19 0
BBX 15 19 2 -2
BITMAP
0100
1D7C
4104
4104
4104
5D74
4104
4104
7FFC
0100
0100
3FF8
0018
0030
04E0
03C0
07F8
1C06
F000
ENDCHAR
STARTCHAR 53E0
ENCODING 21472
SWIDTH 900 0
DWIDTH 20 0
BBX 16 19 2 -3
BITMAP
1FE0
0060
0780
3E78
3EFC
0608
1C38
63C4
4000
5FFE
4002
0FE0
0820
0BA0
0820
0BA0
0820
0000
FFFF
ENDCHAR
STARTCHAR 53E3
ENCODING 21475
SWIDTH 900 0
DWIDTH 20 0
BBX 12 14 4 0
BITMAP
FFF0
8010
8010
8010
8010
8010
8010
8010
8010
8010
8010
8010
8010
FFF0
ENDCHAR
STARTCHAR 53E4
ENCODING 21476
SWIDTH 855 0
DWIDTH 19 0
BBX 15 17 2 0
BITMAP
0100
0100
0100
FFFE
0100
0100
0100
0100
0000
1FF0
1010
1010
1010
1010
1010
1010
1FF0
ENDCHAR
STARTCHAR 53E5
ENCODING 21477
SWIDTH 855 0
DWIDTH 19 0
BBX 13 18 3 -2
BITMAP
1000
1000
2000
67F8
4008
8008
0008
0008
3F08
2108
2108
2108
2108
3F08
0008
0008
0008
0038
ENDCHAR
STARTCHAR 53E6
ENCODING 21478
SWIDTH 900 0
DWIDTH 20 0
BBX 12 19 4 -3
BITMAP
7FE0
4020
4020
4020
4020
4020
7FE0
0000
0000
0800
0800
FFF0
1810
1010
3010
2010
4070
C010
8000
ENDCHAR
STARTCHAR 53E8
ENCODING 21480
SWIDTH 900 0
DWIDTH 20 0
BBX 16 16 2 -2
BITMAP
01FF
0001
F801
8801
8841
8841
8841
8841
8881
F881
0081
0081
0181
0107
0100
0200
ENDCHAR
STARTCHAR 53E9
ENCODING 21481
SWIDTH 855 0
DWIDTH 19 0
BBX 15 15 2 0
BITMAP
00FE
0002
F802
8842
8842
8842
8842
8842
8842
F846
0040
0040
0040
0040
0040
ENDCHAR
STARTCHAR 53EA
ENCODING 21482
SWIDTH 900 0
DWIDTH 20 0
BBX 13 17 4 -3
BITMAP
7FF0
4010
4010
4010
4010
4010
4010
7FF0
0000
0000
0000
0040
2060
6030
4008
C000
8000
ENDCHAR
STARTCHAR 53EB
ENCODING 21483
SWIDTH 855 0
DWIDTH 19 0
BBX 14 17 3 0
BITMAP
0004
0004
0004
0004
F884
8884
8884
8884
8884
8884
8884
F8E4
0004
0004
0004
0004
0004
ENDCHAR
STARTCHAR 53EC
ENCODING 21484
SWIDTH 900 0
DWIDTH 20 0
BBX 12 18 4 -2
BITMAP
FFF0
0010
0810
1810
1010
1010
2010
6070
4000
0000
3FE0
2020
2020
2020
2020
2020
2020
3FE0
ENDCHAR
STARTCHAR 53ED
ENCODING 21485
SWIDTH 900 0
DWIDTH 20 0
BBX 16 17 2 0
BITMAP
0010
0018
0008
0088
F888
8888
8988
8908
890C
8904
8904
F904
0204
0202
0202
0202
0001
ENDCHAR
STARTCHAR 53EE
ENCODING 21486
SWIDTH 855 0
DWIDTH 19 0
BBX 15 16 2 -1
BITMAP
01FE
0000
0010
F810
8810
8810
8810
8810
8810
8810
F810
0010
0010
0010
0070
0010
ENDCHAR
STARTCHAR 53EF
ENCODING 21487
SWIDTH 900 0
DWIDTH 20 0
BBX 14 16 3 -2
BITMAP
FFFC
0000
0010
0010
0010
3E10
2210
2210
2210
3E10
0010
0010
0010
0010
0010
0070
ENDCHAR
STARTCHAR 53F0
ENCODING 21488
SWIDTH 900 0
DWIDTH 20 0
BBX 12 18 4 -1
BITMAP
3000
2000
6000
4180
40C0
C260
BC30
E000
0000
0000
7FC0
4040
4040
4040
4040
4040
4040
7FC0
ENDCHAR
STARTCHAR 53F1
ENCODING 21489
SWIDTH 900 0
DWIDTH 20 0
BBX 17 15 1 -1
BITMAP
002000
002000
002000
F82000
882100
882600
883800
88E000
8B2000
882000
F82000
002000
002000
002080
003F80
ENDCHAR
STARTCHAR 53F2
ENCODING 21490
SWIDTH 900 0
DWIDTH 20 0
BBX 12 20 4 -3
BITMAP
0400
0400
0400
0400
FFE0
8C20
8C20
8820
8820
FFE0
0800
1800
1000
D000
7800
2F00
61C0
4030
8000
8000
ENDCHAR
STARTCHAR 53F3
ENCODING 21491
SWIDTH 900 0
DWIDTH 20 0
BBX 14 19 3 -2
BITMAP
0200
0600
0400
0400
FFFC
0800
1800
1000
3000
2000
6000
4FF0
8810
0810
0810
0810
0810
0810
0FF0
ENDCHAR
STARTCHAR 53F5
ENCODING 21493
SWIDTH 855 0
DWIDTH 19 0
BBX 13 17 3 0
BITMAP
FFF8
8000
8000
8000
8000
8FE0
8820
8820
8820
8820
8820
8FE0
8000
8000
8000
8000
FFF8
ENDCHAR
STARTCHAR 53F6
ENCODING 21494
SWIDTH 900 0
DWIDTH 20 0
BBX 16 17 2 0
BITMAP
0010
0010
0010
0010
F810
8810
8810
8810
8BFF
8810
8810
F810
0010
0010
0010
0010
0010
ENDCHAR
STARTCHAR 53F7
ENCODING 21495
SWIDTH 900 0
DWIDTH 20 0
BBX 14 18 3 -2
BITMAP
1FE0
1020
1020
1020
1020
1FE0
0000
0000
FFFC
0000
0800
0800
0FE0
0020
0020
0020
0020
0060
ENDCHAR
STARTCHAR 53F8
ENCODING 21496
SWIDTH 855 0
DWIDTH 19 0
BBX 13 18 3 -2
BITMAP
7FF8
0008
0008
0008
FF88
0008
0008
0008
3F08
2108
2108
2108
2108
3F08
0008
0008
0008
0038
ENDCHAR
STARTCHAR 53F9
ENCODING 21497
SWIDTH 900 0
DWIDTH 20 0
BBX 16 14 2 1
BITMAP
01FC
0004
F804
8804
880C
8888
88D8
8830
883C
F866
0041
0080
0300
0200
ENDCHAR
STARTCHAR 53FB
ENCODING 21499
SWIDTH 855 0
DWIDTH 19 0
BBX 15 19 2 -3
BITMAP
0040
0040
0040
0040
0040
F840
89FE
8842
8842
8842
8842
8882
F882
0082
0082
008E
0100
0100
0300
ENDCHAR
STARTCHAR 53FC
ENCODING 21500
SWIDTH 855 0
DWIDTH 19 0
BBX 15 14 2 0
BITMAP
03FE
0002
0002
F802
8802
8802
8822
8862
88C2
8982
F802
0002
0002
000E
ENDCHAR
STARTCHAR 53FD
ENCODING 21501
SWIDTH 900 0
DWIDTH 20 0
BBX 16 16 2 -2
BITMAP
0178
0108
F908
8908
8908
8908
8908
8908
8908
FB08
0208
0208
0209
020F
0400
0400
ENDCHAR
STARTCHAR 5401
ENCODING 21505
SWIDTH 900 0
DWIDTH 20 0
BBX 16 15 2 -1
BITMAP
01FE
0000
F810
8810
8810
8810
89FF
8810
8810
F810
0010
0010
0010
0010
0070
ENDCHAR
STARTCHAR 5403
ENCODING 21507
SWIDTH 900 0
DWIDTH 20 0
BBX 17 18 2 0
BITMAP
004000
00C000
008000
018000
013F00
F90000
880000
880000
880000
89FC00
880400
880800
F81800
003000
006000
00C000
008100
00FF80
ENDCHAR
STARTCHAR 5404
ENCODING 21508
SWIDTH 900 0
DWIDTH 20 0
BBX 13 19 4 -2
BITMAP
1000
3000
2000
67F0
4020
0060
10C0
0F80
07C0
1878
E000
0000
1FE0
1020
1020
1020
1020
1020
1FE0
ENDCHAR
STARTCHAR 5406
ENCODING 21510
SWIDTH 900 0
DWIDTH 20 0
BBX 16 15 2 0
BITMAP
0020
0060
0040
F8C0
8880
8984
89EC
8808
8810
8830
F860
0040
0082
019D
01F1
ENDCHAR
STARTCHAR 5408
ENCODING 21512
SWIDTH 855 0
DWIDTH 19 0
BBX 12 16 3 1
BITMAP
0600
0C00
0800
3080
6070
C000
0000
1FC0
0000
1FC0
1040
1040
1040
1040
1040
1FC0
ENDCHAR
STARTCHAR 5409
ENCODING 21513
SWIDTH 900 0
DWIDTH 20 0
BBX 14 19 3 -2
BITMAP
0100
0100
0100
FFFC
0100
0100
0100
0000
3FE0
0000
0000
1FE0
1020
1020
1020
1020
1020
1020
1FE0
ENDCHAR
STARTCHAR 540A
ENCODING 21514
SWIDTH 900 0
DWIDTH 20 0
BBX 12 19 4 -2
BITMAP
3FC0
2040
2040
2040
2040
3FC0
0000
0000
0200
0200
BFF0
8210
8210
8210
8210
8230
0200
0200
0200
ENDCHAR
STARTCHAR 540B
ENCODING 21515
SWIDTH 900 0
DWIDTH 20 0
BBX 16 15 2 -1
BITMAP
0008
0008
0008
F808
89FF
8808
8808
8808
88C8
8828
F808
0008
0008
0008
0038
ENDCHAR
STARTCHAR 540C
ENCODING 21516
SWIDTH 900 0
DWIDTH 20 0
BBX 13 17 4 -2
BITMAP
BFF8
8008
8008
9F88
8008
8008
8008
8F88
8888
8888
8888
8888
8F88
8008
8008
8008
8038
ENDCHAR
STARTCHAR 540D
ENCODING 21517
SWIDTH 855 0
DWIDTH 19 0
BBX 12 19 4 -2
BITMAP
1000
3000
3000
63F0
4030
1060
18C0
0180
0300
0E00
1800
E000
0FF0
0810
0810
0810
0810
0810
0FF0
ENDCHAR
STARTCHAR 540E
ENCODING 21518
SWIDTH 900 0
DWIDTH 20 0
BBX 14 17 3 1
BITMAP
0078
03E0
2400
2000
2000
2000
2FFC
2000
6000
4000
43F8
4208
4208
4208
8208
8208
03F8
ENDCHAR
STARTCHAR 540F
ENCODING 21519
SWIDTH 900 0
DWIDTH 20 0
BBX 15 19 2 -2
BITMAP
0100
0100
FFFE
0100
0100
3FF0
2110
2310
2310
2210
3FF0
0200
0600
3C00
0F80
09F0
101E
3000
4000
ENDCHAR
STARTCHAR 5410
ENCODING 21520
SWIDTH 900 0
DWIDTH 20 0
BBX 16 14 2 0
BITMAP
0020
0020
0020
F820
8820
89FC
8820
8820
8820
8820
F820
0020
0000
03FF
ENDCHAR
STARTCHAR 5411
ENCODING 21521
SWIDTH 855 0
DWIDTH 19 0
BBX 13 19 3 -2
BITMAP
0800
1800
0000
0000
BFF8
8008
8008
8008
8008
8F88
8888
8888
8888
8F88
8008
8008
8008
8008
8038
ENDCHAR
STARTCHAR 5412
ENCODING 21522
SWIDTH 900 0
DWIDTH 20 0
BBX 17 16 1 1
BITMAP
001E00
01F000
000000
F82000
882000
882000
882000
883F80
8BF000
882000
882000
F82000
002000
002000
002080
003F80
ENDCHAR
STARTCHAR 5413
ENCODING 21523
SWIDTH 855 0
DWIDTH 19 0
BBX 15 17 2 -2
BITMAP
07FE
0000
0000
F840
8840
8840
8848
884E
8840
8840
F840
0040
0040
0040
0040
0040
0040
ENDCHAR
STARTCHAR 5415
ENCODING 21525
SWIDTH 900 0
DWIDTH 20 0
BBX 13 18 4 -2
BITMAP
1FE0
1020
1020
1020
1020
1020
1FE0
0000
0000
0000
FFF8
8008
8008
8008
8008
8008
8008
FFF8
ENDCHAR
STARTCHAR 5416
ENCODING 21526
SWIDTH 855 0
DWIDTH 19 0
BBX 15 17 2 -1
BITMAP
0106
0084
0008
F800
8800
8820
8820
8820
8820
8820
F820
0020
0020
0020
0020
0020
0020
ENDCHAR
STARTCHAR 5417
ENCODING 21527
SWIDTH 855 0
DWIDTH 19 0
BBX 15 16 2 -1
BITMAP
03FC
0004
0004
F904
8904
8900
8900
89FE
8802
8802
F802
07F2
0002
0002
0002
000E
ENDCHAR
STARTCHAR 541B
ENCODING 21531
SWIDTH 855 0
DWIDTH 19 0
BBX 15 17 2 -2
BITMAP
1FF0
0010
0610
FFFE
0410
0410
0C10
3FF0
0800
1800
1000
17F8
2408
6408
4408
0408
07F8
ENDCHAR
STARTCHAR 541D
ENCODING 21533
SWIDTH 855 0
DWIDTH 19 0
BBX 14 19 2 -2
BITMAP
0100
0100
0000
FFFC
0000
0020
0060
1E80
03C0
0E70
3808
C000
1FE0
1020
1020
1020
1020
1020
1FE0
ENDCHAR
STARTCHAR 541E
ENCODING 21534
SWIDTH 855 0
DWIDTH 19 0
BBX 15 18 2 -2
BITMAP
1FF8
0000
0080
0180
0100
FFFE
0600
0C00
1838
200E
4000
0FF0
0810
0810
0810
0810
0810
0FF0
ENDCHAR
STARTCHAR 541F
ENCODING 21535
SWIDTH 900 0
DWIDTH 20 0
BBX 16 16 2 0
BITMAP
0010
0020
0020
0068
F846
8883
8900
8810
8810
8800
88FE
F806
0004
0008
0018
0030
ENDCHAR
STARTCHAR 5420
ENCODING 21536
SWIDTH 900 0
DWIDTH 20 0
BBX 16 15 2 1
BITMAP
0020
0022
0022
F822
8840
8BFF
8840
8840
8840
88C0
F88C
0083
0080
0100
0100
ENDCHAR
STARTCHAR 5421
ENCODING 21537
SWIDTH 855 0
DWIDTH 19 0
BBX 17 17 1 0
BITMAP
010800
010800
010800
010800
F90800
890800
890900
89EB00
890800
890800
890800
F90800
010800
010800
010800
01E880
018F80
ENDCHAR
STARTCHAR 5423
ENCODING 21539
SWIDTH 900 0
DWIDTH 20 0
BBX 17 14 2 2
BITMAP
001000
001000
F80000
882000
882000
882100
892100
892100
8B2080
FA2000
022000
002000
002200
003E00
ENDCHAR
STARTCHAR 5426
ENCODING 21542
SWIDTH 900 0
DWIDTH 20 0
BBX 14 18 3 -2
BITMAP
FFFC
0000
0100
0120
1138
310C
4100
0100
0100
0000
1FF0
1010
1010
1010
1010
1010
1010
1FF0
ENDCHAR
STARTCHAR 5427
ENCODING 21543
SWIDTH 900 0
DWIDTH 20 0
BBX 17 15 2 0
BITMAP
017E00
010200
011200
F91200
891200
891200
897E00
890000
890000
890000
F90000
010000
010100
010100
01FF80
ENDCHAR
STARTCHAR 5428
ENCODING 21544
SWIDTH 900 0
DWIDTH 20 0
BBX 16 16 2 1
BITMAP
0020
0020
0020
01FF
F820
8820
8922
8922
8922
89FE
8820
F820
0020
0020
0022
003E
ENDCHAR
STARTCHAR 5429
ENCODING 21545
SWIDTH 900 0
DWIDTH 20 0
BBX 17 18 2 0
BITMAP
001000
001800
000C00
000400
00C200
F98100
890180
8A0000
880000
89FE00
880200
880200
F84200
004200
008200
008200
010E00
010000
ENDCHAR
STARTCHAR 542B
ENCODING 21547
SWIDTH 855 0
DWIDTH 19 0
BBX 13 19 3 -1
BITMAP
0400
0C00
1800
30E0
6218
C200
0000
1FE0
0060
00C0
0180
0300
0000
1FE0
1020
1020
1020
1020
1FE0
ENDCHAR
STARTCHAR 542C
ENCODING 21548
SWIDTH 900 0
DWIDTH 20 0
BBX 16 15 2 0
BITMAP
00FE
0080
F880
8880
8880
8880
89FF
8980
8904
F904
0104
0304
0204
0204
0004
ENDCHAR
STARTCHAR 542D
ENCODING 21549
SWIDTH 900 0
DWIDTH 20 0
BBX 16 16 2 1
BITMAP
0020
0020
0000
03FE
F800
8800
8880
88F8
8888
8888
8888
F988
0109
0109
020F
0200
ENDCHAR
STARTCHAR 542E
ENCODING 21550
SWIDTH 900 0
DWIDTH 20 0
BBX 16 16 2 0
BITMAP
0040
00C0
0080
F884
8984
89F2
89E0
8800
8808
8888
F888
0088
0109
010F
0200
0200
ENDCHAR
STARTCHAR 542F
ENCODING 21551
SWIDTH 900 0
DWIDTH 20 0
BBX 14 18 3 0
BITMAP
0080
0080
0000
27FC
2004
2004
2004
27FC
2000
2000
2000
63FC
6204
4204
4204
4204
8204
83FC
ENDCHAR
STARTCHAR 5431
ENCODING 21553
SWIDTH 855 0
DWIDTH 19 0
BBX 15 17 2 0
BITMAP
0020
0020
0020
03FE
F820
8820
8820
8800
88FC
880C
8808
F858
0030
006C
00C2
0180
0200
ENDCHAR
STARTCHAR 5432
ENCODING 21554
SWIDTH 900 0
DWIDTH 20 0
BBX 16 17 2 0
BITMAP
0001
0001
07E1
0021
F821
89E1
8901
8901
8901
89E1
8821
F821
0021
0021
0021
0061
0001
ENDCHAR
STARTCHAR 5434
ENCODING 21556
SWIDTH 855 0
DWIDTH 19 0
BBX 15 19 2 -2
BITMAP
1FE0
1020
1020
1020
1020
1FE0
0000
0000
3FF0
0000
0200
0200
FFFE
0C00
0800
1870
1038
2000
4000
ENDCHAR
STARTCHAR 5435
ENCODING 21557
SWIDTH 900 0
DWIDTH 20 0
BBX 16 17 2 0
BITMAP
0010
0010
0010
0010
F817
8911
8910
8912
8802
8806
8804
F804
0008
0018
0030
0060
0080
ENDCHAR
STARTCHAR 5438
ENCODING 21560
SWIDTH 855 0
DWIDTH 19 0
BBX 16 17 1 0
BITMAP
03F8
0008
0008
F918
8910
891E
8906
8904
8904
8A48
FA38
021C
0236
0421
0440
00C0
0080
ENDCHAR
STARTCHAR 5439
ENCODING 21561
SWIDTH 855 0
DWIDTH 19 0
BBX 15 17 2 -1
BITMAP
0080
0080
0080
0100
F93E
8804
8804
8800
8840
8840
8840
F880
0080
0080
010C
0102
0200
ENDCHAR
STARTCHAR 543B
ENCODING 21563
SWIDTH 855 0
DWIDTH 19 0
BBX 15 15 2 1
BITMAP
0100
0100
0300
02FE
F802
8802
8802
88C2
8882
89B2
8922
FA62
0042
0042
008E
ENDCHAR
STARTCHAR 543C
ENCODING 21564
SWIDTH 855 0
DWIDTH 19 0
BBX 17 15 1 0
BITMAP
03C400
004400
004400
F8C400
888400
888400
888400
88E400
8F8400
888400
F88400
008400
008400
008480
018780
ENDCHAR
STARTCHAR 543E
ENCODING 21566
SWIDTH 855 0
DWIDTH 19 0
BBX 15 19 2 -2
BITMAP
7FF8
0000
0600
0400
3FE0
0C20
0C20
0820
0820
0000
FFFE
0000
0000
1FE0
1020
1020
1020
1020
1FE0
ENDCHAR
STARTCHAR 5440
ENCODING 21568
SWIDTH 900 0
DWIDTH 20 0
BBX 16 17 2 0
BITMAP
03FE
0000
0000
0004
F804
8904
8904
8904
89FF
8804
8884
F884
0184
0104
0304
021C
0400
ENDCHAR
STARTCHAR 5443
ENCODING 21571
SWIDTH 855 0
DWIDTH 19 0
BBX 17 16 1 0
BITMAP
03FF00
000000
010000
F90000
897E00
890200
890200
892200
892200
8B2600
FA2000
022000
022000
042100
042100
003F80
ENDCHAR
STARTCHAR 5446
ENCODING 21574
SWIDTH 945 0
DWIDTH 21 0
BBX 15 19 3 -2
BITMAP
1FE0
1020
1020
1020
1020
1FE0
0000
0000
0100
0100
FFFE
0100
0100
0100
2118
C106
0100
0100
0100
ENDCHAR
STARTCHAR 5448
ENCODING 21576
SWIDTH 900 0
DWIDTH 20 0
BBX 14 18 3 0
BITMAP
1FE0
1020
1020
1020
1020
1020
1FE0
0000
0000
0000
3FF8
0100
0100
1FE0
0100
0100
0000
FFFC
ENDCHAR
STARTCHAR 544A
ENCODING 21578
SWIDTH 855 0
DWIDTH 19 0
BBX 15 19 2 -2
BITMAP
0100
0100
2100
2100
6FF0
4100
0100
0100
0000
FFFE
0000
0000
0000
1FF0
1010
1010
1010
1010
1FF0
ENDCHAR
STARTCHAR 544B
ENCODING 21579
SWIDTH 855 0
DWIDTH 19 0
BBX 16 17 2 -1
BITMAP
0020
0020
0020
F9FE
8820
8820
8820
8860
8BFE
8840
F840
0080
008C
0183
0100
0300
0200
ENDCHAR
STARTCHAR 544E
ENCODING 21582
SWIDTH 900 0
DWIDTH 20 0
BBX 17 16 2 -1
BITMAP
017E00
010200
010200
F90200
890200
897E00
890000
8B0000
8B1000
8A1800
FA0C00
020200
020180
020000
040000
040000
ENDCHAR
STARTCHAR 5450
ENCODING 21584
SWIDTH 900 0
DWIDTH 20 0
BBX 16 16 2 -1
BITMAP
0010
0010
0010
00FF
F931
8931
8921
8929
896D
8941
8941
F901
0101
0101
0101
0103
ENDCHAR
STARTCHAR 5452
ENCODING 21586
SWIDTH 855 0
DWIDTH 19 0
BBX 17 17 1 -2
BITMAP
00FE00
000000
000000
F82000
882000
882000
8BFF00
884000
884800
884800
F84800
008800
008900
008900
010F80
010000
010000
ENDCHAR
STARTCHAR 5453
ENCODING 21587
SWIDTH 855 0
DWIDTH 19 0
BBX 16 18 2 0
BITMAP
0088
0088
0088
07FE
0088
F888
8800
8800
89FC
8804
880C
8818
F810
0020
0040
00C0
0081
00FF
ENDCHAR
STARTCHAR 5454
ENCODING 21588
SWIDTH 855 0
DWIDTH 19 0
BBX 16 16 1 1
BITMAP
0020
0020
0020
F860
8840
8BFF
8840
8840
8840
888C
F887
0080
0090
0118
0100
0100
ENDCHAR
STARTCHAR 5455
ENCODING 21589
SWIDTH 900 0
DWIDTH 20 0
BBX 16 15 2 0
BITMAP
01FF
0000
F900
8904
8904
8924
891C
890C
890A
8910
F930
0120
0100
0100
01FF
ENDCHAR
STARTCHAR 5456
ENCODING 21590
SWIDTH 900 0
DWIDTH 20 0
BBX 16 16 2 -2
BITMAP
01FF
0100
F900
8910
8910
8910
897F
8931
8B21
FB21
0221
0221
0221
0647
0440
0040
ENDCHAR
STARTCHAR 5457
ENCODING 21591
SWIDTH 900 0
DWIDTH 20 0
BBX 15 17 2 -1
BITMAP
01FE
0102
0102
F902
8912
8912
8912
8912
8932
8820
F820
0060
004C
00C6
0180
0300
0200
ENDCHAR
STARTCHAR 5458
ENCODING 21592
SWIDTH 855 0
DWIDTH 19 0
BBX 13 19 3 -3
BITMAP
1FC0
1040
1040
1040
1040
1FC0
0000
0000
7FF0
4010
4210
4210
4610
4410
0C00
18C0
3078
6000
8000
ENDCHAR
STARTCHAR 5459
ENCODING 21593
SWIDTH 855 0
DWIDTH 19 0
BBX 13 19 3 -3
BITMAP
3FE0
2020
2020
2020
2020
3FE0
0000
0200
0200
BFF8
8608
8408
8D08
88E8
9008
A008
8008
8008
8018
ENDCHAR
STARTCHAR 545B
ENCODING 21595
SWIDTH 855 0
DWIDTH 19 0
BBX 17 18 1 -1
BITMAP
001000
002000
006000
00C800
018600
FB0180
880000
880000
88FC00
880400
880400
888400
F88400
008C00
008000
008000
008100
00FF80
ENDCHAR
STARTCHAR 545C
ENCODING 21596
SWIDTH 900 0
DWIDTH 20 0
BBX 16 19 2 -1
BITMAP
0010
0030
0000
0000
00FC
0084
F884
8884
888C
888C
8880
88FF
8801
F801
0001
07F1
0001
0001
0007
ENDCHAR
STARTCHAR 5462
ENCODING 21602
SWIDTH 900 0
DWIDTH 20 0
BBX 17 17 2 -1
BITMAP
02FE00
020200
020200
020200
FAFE00
8A0000
8A0000
8A2000
8A2000
8A2200
8A2E00
FC3800
042000
042000
042000
042100
003F80
ENDCHAR
STARTCHAR 5464
ENCODING 21604
SWIDTH 900 0
DWIDTH 20 0
BBX 17 17 2 -1
BITMAP
001000
003000
006000
004000
F8C400
898300
8A0180
881000
881000
880000
89FE00
F80600
000400
000C00
000000
006000
001800
ENDCHAR
STARTCHAR 5466
ENCODING 21606
SWIDTH 855 0
DWIDTH 19 0
BBX 17 18 1 -2
BITMAP
000400
010400
010400
020400
020400
F64400
945F80
968480
908C80
910C80
910880
934880
F26880
06B880
071380
001000
003000
002000
ENDCHAR
STARTCHAR 5468
ENCODING 21608
SWIDTH 900 0
DWIDTH 20 0
BBX 15 19 2 -2
BITMAP
0FFE
2002
2002
2082
2082
27E2
2082
2082
2FF2
2002
23E2
6222
4222
4222
43E2
4002
400E
8000
8000
ENDCHAR
STARTCHAR 546F
ENCODING 21615
SWIDTH 900 0
DWIDTH 20 0
BBX 16 15 2 0
BITMAP
01FE
0010
F812
8812
8990
8810
8BFF
8810
8810
F810
0010
0010
0010
0010
0010
ENDCHAR
STARTCHAR 5471
ENCODING 21617
SWIDTH 855 0
DWIDTH 19 0
BBX 17 16 1 0
BITMAP
000E00
01F800
000000
010000
F90000
891000
893200
893200
892300
8B2100
8A2100
FA2100
026080
024C80
047480
046000
ENDCHAR
STARTCHAR 5472
ENCODING 21618
SWIDTH 900 0
DWIDTH 20 0
BBX 17 17 1 0
BITMAP
000400
004400
004400
004400
004400
F04400
924480
927500
924400
924400
924400
924400
F24400
003400
01C480
038480
040780
ENDCHAR
STARTCHAR 5473
ENCODING 21619
SWIDTH 855 0
DWIDTH 19 0
BBX 15 19 2 -1
BITMAP
0020
0020
0020
0020
00FE
F820
8820
8820
8820
8BFE
8820
8820
F820
0126
0122
0220
0020
0020
0020
ENDCHAR
STARTCHAR 5475
ENCODING 21621
SWIDTH 900 0
DWIDTH 20 0
BBX 16 15 2 -1
BITMAP
03FF
0000
F802
8802
89E2
8922
8922
8922
8922
F9E2
0002
0002
0002
0002
000E
ENDCHAR
STARTCHAR 5476
ENCODING 21622
SWIDTH 855 0
DWIDTH 19 0
BBX 17 16 1 1
BITMAP
010000
010000
031E00
030300
F7C300
926200
924200
964200
965E00
96C700
938580
F1CC00
016800
031000
063000
042000
ENDCHAR
STARTCHAR 5477
ENCODING 21623
SWIDTH 855 0
DWIDTH 19 0
BBX 15 17 2 0
BITMAP
03FE
0202
0222
FAFA
8A22
8A22
8A22
8A22
8BFE
8820
8820
F820
0020
0020
0020
0020
0020
ENDCHAR
STARTCHAR 5478
ENCODING 21624
SWIDTH 900 0
DWIDTH 20 0
BBX 17 15 2 -1
BITMAP
01FF00
000000
001000
F82000
886000
884000
889400
891380
881000
881000
F81000
001000
000000
000000
01FE00
ENDCHAR
STARTCHAR 547B
ENCODING 21627
SWIDTH 900 0
DWIDTH 20 0
BBX 16 18 2 -1
BITMAP
0010
0010
0010
0010
F9FF
8911
8911
8911
897D
8911
8911
F911
01FF
0010
0010
0010
0010
0010
ENDCHAR
STARTCHAR 547C
ENCODING 21628
SWIDTH 900 0
DWIDTH 20 0
BBX 16 16 2 1
BITMAP
007C
0080
0010
F810
8993
8812
8810
8810
8BFF
8810
F810
0010
0010
0010
0070
0010
ENDCHAR
STARTCHAR 547D
ENCODING 21629
SWIDTH 900 0
DWIDTH 20 0
BBX 14 19 3 -1
BITMAP
0100
0300
0600
0CC0
303C
6000
8F80
0000
0000
7CF8
4488
4488
4488
4488
7C98
0080
0080
0080
0080
ENDCHAR
STARTCHAR 5480
ENCODING 21632
SWIDTH 855 0
DWIDTH 19 0
BBX 17 15 1 0
BITMAP
00FC00
008400
F88400
888400
88F400
888400
888400
888400
88F400
F88400
008400
008400
008400
008400
03FF80
ENDCHAR
STARTCHAR 5482
ENCODING 21634
SWIDTH 900 0
DWIDTH 20 0
BBX 16 17 2 0
BITMAP
03FE
0000
0000
0208
FA08
8A08
8A7F
8A49
8A49
8A49
8A49
FA4B
0208
0208
0208
0200
03FF
ENDCHAR
STARTCHAR 5484
ENCODING 21636
SWIDTH 900 0
DWIDTH 20 0
BBX 16 18 2 0
BITMAP
0010
0010
0010
0111
F911
8911
8911
89FF
8810
8810
8810
8810
FA11
0211
0211
0201
0201
03FF
ENDCHAR
STARTCHAR 5486
ENCODING 21638
SWIDTH 900 0
DWIDTH 20 0
BBX 18 18 1 1
BITMAP
008000
018000
010000
027F00
F80100
880100
890100
897100
891100
891100
891100
897100
F90700
010300
010000
010080
010080
01FFC0
ENDCHAR
STARTCHAR 548B
ENCODING 21643
SWIDTH 900 0
DWIDTH 20 0
BBX 16 17 2 0
BITMAP
0080
0180
0100
017F
FA00
8A00
8840
8840
884F
8840
8840
F84F
0040
0040
0040
0040
0040
ENDCHAR
STARTCHAR 548C
ENCODING 21644
SWIDTH 855 0
DWIDTH 19 0
BBX 16 16 2 0
BITMAP
0E00
7C00
0000
083F
0821
0821
FF21
0821
0821
0B21
4921
C821
8821
083F
0800
0800
ENDCHAR
STARTCHAR 548E
ENCODING 21646
SWIDTH 900 0
DWIDTH 20 0
BBX 16 19 2 -2
BITMAP
1010
3010
2010
4F14
0113
0311
1610
1C10
0E00
13FF
6000
C000
0FF8
0808
0808
0808
0808
0808
0FF8
ENDCHAR
STARTCHAR 548F
ENCODING 21647
SWIDTH 855 0
DWIDTH 19 0
BBX 17 18 1 -1
BITMAP
001000
001000
001000
000000
01F000
F81000
881000
881000
881100
8B9300
889000
889000
F99780
011000
021000
001000
001000
003000
ENDCHAR
STARTCHAR 5490
ENCODING 21648
SWIDTH 855 0
DWIDTH 19 0
BBX 16 15 2 -1
BITMAP
0082
0302
0202
FC02
887F
8802
8902
8902
8932
8902
F902
0102
0102
0102
010E
ENDCHAR
STARTCHAR 5492
ENCODING 21650
SWIDTH 855 0
DWIDTH 19 0
BBX 13 19 3 -2
BITMAP
F800
89F0
8910
8910
8910
F9F0
0000
0000
1780
1080
1080
1080
2080
2080
2088
60F8
4000
C000
8000
ENDCHAR
STARTCHAR 5494
ENCODING 21652
SWIDTH 900 0
DWIDTH 20 0
BBX 16 19 2 -1
BITMAP
0040
0040
0040
005E
0040
F840
8840
8800
8BFF
8800
8840
8840
F84E
0043
0040
0040
0040
0040
0040
ENDCHAR
STARTCHAR 5495
ENCODING 21653
SWIDTH 900 0
DWIDTH 20 0
BBX 16 16 2 0
BITMAP
0020
0020
0020
01FF
F820
8820
8820
8820
8800
88FC
8884
F884
0084
0084
0084
00FC
ENDCHAR
STARTCHAR 5496
ENCODING 21654
SWIDTH 855 0
DWIDTH 19 0
BBX 17 17 1 -1
BITMAP
010000
010000
010000
010000
010000
FFE000
892000
892780
892480
892480
8B2480
8A2480
FA2480
022780
02E000
040000
040000
ENDCHAR
STARTCHAR 5499
ENCODING 21657
SWIDTH 900 0
DWIDTH 20 0
BBX 17 17 2 0
BITMAP
004000
004000
004600
004000
F8C000
8BFF00
88C000
888000
888800
888800
889C00
F93800
010900
010900
010F80
020000
020000
ENDCHAR
STARTCHAR 549A
ENCODING 21658
SWIDTH 900 0
DWIDTH 20 0
BBX 16 17 2 -1
BITMAP
0040
00C0
0080
01BC
F904
880C
8878
883C
8867
8980
8A00
F830
0008
0000
0000
0060
0018
ENDCHAR
STARTCHAR 549B
ENCODING 21659
SWIDTH 900 0
DWIDTH 20 0
BBX 17 19 2 -2
BITMAP
001000
001000
000000
02FF80
020080
FA0080
8A0080
880000
88FE00
880000
880000
880800
F80800
000800
000800
000800
000800
000800
003800
ENDCHAR
STARTCHAR 549D
ENCODING 21661
SWIDTH 900 0
DWIDTH 20 0
BBX 17 16 2 1
BITMAP
004100
00C300
008200
018600
F90400
8BCC00
882E80
886180
88C300
888200
898600
FBEC00
000F80
000000
000000
07FF80
ENDCHAR
STARTCHAR 54A3
ENCODING 21667
SWIDTH 900 0
DWIDTH 20 0
BBX 17 17 2 -1
BITMAP
002000
002000
002200
002600
F92000
882000
882000
880000
8BFF00
880000
888800
F88800
008800
008800
010900
010900
020F80
ENDCHAR
STARTCHAR 54A4
ENCODING 21668
SWIDTH 855 0
DWIDTH 19 0
BBX 17 17 1 0
BITMAP
001000
001000
017F80
010080
F90080
881C00
88F800
880000
882000
882000
887F80
F9A000
002000
002000
002000
002080
003F80
ENDCHAR
STARTCHAR 54A6
ENCODING 21670
SWIDTH 855 0
DWIDTH 19 0
BBX 15 18 2 -1
BITMAP
0010
0010
01FE
0010
0010
FBFE
8812
8832
89FE
8920
8920
89FE
F822
0046
0040
004C
0086
0080
ENDCHAR
STARTCHAR 54A7
ENCODING 21671
SWIDTH 855 0
DWIDTH 19 0
BBX 17 18 1 -1
BITMAP
000080
000080
000080
03F080
000080
F90480
8B0480
8AE480
882480
882480
882480
8B2480
F86080
004080
004080
008080
008080
010380
ENDCHAR
STARTCHAR 54A8
ENCODING 21672
SWIDTH 855 0
DWIDTH 19 0
BBX 13 19 3 -2
BITMAP
0300
0200
0678
6C08
0810
0080
0100
4300
C270
0418
0800
0000
3FE0
2020
2020
2020
2020
2020
3FE0
ENDCHAR
STARTCHAR 54A9
ENCODING 21673
SWIDTH 900 0
DWIDTH 20 0
BBX 16 17 2 1
BITMAP
00CC
0048
0000
01FF
F800
8810
8810
8810
88FC
8810
8810
FBFF
0010
0010
0010
0010
0010
ENDCHAR
STARTCHAR 54AA
ENCODING 21674
SWIDTH 900 0
DWIDTH 20 0
BBX 16 19 2 -1
BITMAP
0010
0010
0010
0010
0112
F816
8810
8810
8BFF
8810
8810
8816
F893
0111
0010
0010
0010
0010
0010
ENDCHAR
STARTCHAR 54AB
ENCODING 21675
SWIDTH 900 0
DWIDTH 20 0
BBX 17 18 1 -1
BITMAP
2F0000
213F00
212100
212100
212100
212100
2F3F00
200000
200000
280300
686180
6C4080
440000
420000
418000
40FF80
800000
800000
ENDCHAR
STARTCHAR 54AC
ENCODING 21676
SWIDTH 900 0
DWIDTH 20 0
BBX 16 19 2 -1
BITMAP
0010
0010
0000
0000
01FF
F800
8840
88C0
8883
8800
8804
884C
F838
0018
003C
0022
0040
0180
0200
ENDCHAR
STARTCHAR 54AD
ENCODING 21677
SWIDTH 945 0
DWIDTH 21 0
BBX 17 17 2 0
BITMAP
001000
001000
001000
03FF80
F81000
881000
880000
89FC00
880000
880000
880000
F8FE00
008200
008200
008200
008200
00FE00
ENDCHAR
STARTCHAR 54AF
ENCODING 21679
SWIDTH 855 0
DWIDTH 19 0
BBX 17 17 1 1
BITMAP
008000
018000
013E00
000400
F80C00
887800
883800
88CE00
898180
880000
880000
F8FE00
008200
008200
008200
008200
00FE00
ENDCHAR
STARTCHAR 54B1
ENCODING 21681
SWIDTH 855 0
DWIDTH 19 0
BBX 15 17 2 0
BITMAP
0030
0020
0000
0000
01FE
F902
8902
8902
897A
8902
8902
8902
F97A
0102
0102
0102
01FE
ENDCHAR
STARTCHAR 54B3
ENCODING 21683
SWIDTH 900 0
DWIDTH 20 0
BBX 16 18 2 -1
BITMAP
0020
0020
03FF
0000
F880
8888
8918
8913
8BF2
8826
8864
F8CC
0118
0030
0064
00C7
0180
0200
ENDCHAR
STARTCHAR 54B4
ENCODING 21684
SWIDTH 900 0
DWIDTH 20 0
BBX 16 18 2 -2
BITMAP
0080
0080
0080
0080
03FF
F900
8900
8908
8908
8908
8A1B
8A90
FA10
0410
0024
0027
0040
00C0
ENDCHAR
STARTCHAR 54B8
ENCODING 21688
SWIDTH 900 0
DWIDTH 20 0
BBX 16 20 2 -3
BITMAP
0010
0012
0012
0010
3FFE
0010
1010
1010
1FD0
1010
3018
301A
27CE
2458
244C
644C
47C4
4006
8003
0003
ENDCHAR
STARTCHAR 54BB
ENCODING 21691
SWIDTH 900 0
DWIDTH 20 0
BBX 18 15 1 0
BITMAP
000400
00C400
018400
FB0400
8C3FC0
880400
890400
890400
8914C0
892400
F90400
010400
010400
010400
010400
ENDCHAR
STARTCHAR 54BD
ENCODING 21693
SWIDTH 900 0
DWIDTH 20 0
BBX 17 15 2 0
BITMAP
03FF80
020080
FA1080
8A1080
8A3080
8AFC80
8A2080
8A2080
8A6080
8A4E80
FA4080
028080
020080
020080
03FF80
ENDCHAR
STARTCHAR 54BF
ENCODING 21695
SWIDTH 900 0
DWIDTH 20 0
BBX 18 17 1 -2
BITMAP
00BF00
030100
060900
F00900
907FC0
900900
921900
921900
927F00
921000
F21000
023000
022000
022000
024000
004000
004000
ENDCHAR
STARTCHAR 54C0
ENCODING 21696
SWIDTH 900 0
DWIDTH 20 0
BBX 15 20 2 -2
BITMAP
0100
0100
0000
0000
FFFE
0000
0FE0
0820
0820
0820
0FE0
0000
0000
1818
3010
6000
8840
0830
080E
0E00
ENDCHAR
STARTCHAR 54C1
ENCODING 21697
SWIDTH 900 0
DWIDTH 20 0
BBX 14 17 3 0
BITMAP
1FC0
1040
1040
1040
1040
1040
1FC0
0000
0000
FC00
84FC
8484
8484
8484
8484
8484
FCFC
ENDCHAR
STARTCHAR 54C2
ENCODING 21698
SWIDTH 900 0
DWIDTH 20 0
BBX 16 16 2 0
BITMAP
03FF
0020
0020
0028
F828
89FF
8929
8929
8949
8949
894D
F941
0101
0101
0101
01FF
ENDCHAR
STARTCHAR 54C4
ENCODING 21700
SWIDTH 855 0
DWIDTH 19 0
BBX 17 16 1 -1
BITMAP
000400
004400
004400
004400
FBFF00
884400
884400
884400
880000
8BFF80
880000
F80000
000000
000400
00C700
018000
ENDCHAR
STARTCHAR 54C6
ENCODING 21702
SWIDTH 855 0
DWIDTH 19 0
BBX 15 18 2 0
BITMAP
00C0
0080
013C
000C
F888
88D0
8830
8860
8880
8840
88DE
F986
0106
006C
0018
0010
0060
00C0
ENDCHAR
STARTCHAR 54C7
ENCODING 21703
SWIDTH 855 0
DWIDTH 19 0
BBX 15 17 2 0
BITMAP
0020
0020
0020
01FC
F820
8820
8800
8BFE
8800
8820
8820
F9FC
0020
0020
0020
0000
03FE
ENDCHAR
STARTCHAR 54C8
ENCODING 21704
SWIDTH 855 0
DWIDTH 19 0
BBX 16 17 2 1
BITMAP
0020
0020
0040
0088
F987
8B00
8800
887C
8800
8800
88FC
F884
0084
0084
0084
0084
00FC
ENDCHAR
STARTCHAR 54C9
ENCODING 21705
SWIDTH 900 0
DWIDTH 20 0
BBX 16 19 2 -2
BITMAP
0420
0420
3FA4
0424
0424
0420
0020
FFFF
0020
0020
0030
3F1C
2118
2130
2150
2110
3F08
000A
0006
ENDCHAR
STARTCHAR 54CC
ENCODING 21708
SWIDTH 855 0
DWIDTH 19 0
BBX 17 16 1 1
BITMAP
003E00
00F000
020000
020400
FA1C00
8A7000
8A0000
8A2000
8A2100
8A2000
8A2800
FA2C00
062300
042080
043000
040000
ENDCHAR
STARTCHAR 54CD
ENCODING 21709
SWIDTH 900 0
DWIDTH 20 0
BBX 17 18 2 -1
BITMAP
001000
002000
000000
000000
017F80
017F80
F90080
890080
897C80
894480
894480
894480
897C80
F90080
010080
010080
010080
010380
ENDCHAR
STARTCHAR 54CE
ENCODING 21710
SWIDTH 900 0
DWIDTH 20 0
BBX 16 17 2 0
BITMAP
0088
0088
03FF
0088
F888
8888
8800
880C
8808
8898
8870
F830
002C
0042
0080
0100
0200
ENDCHAR
STARTCHAR 54CF
ENCODING 21711
SWIDTH 855 0
DWIDTH 19 0
BBX 16 16 1 -1
BITMAP
017E
0102
0102
F93A
8902
8902
8902
897E
8900
8900
8906
F90C
0100
010C
0103
01C0
ENDCHAR
STARTCHAR 54D0
ENCODING 21712
SWIDTH 900 0
DWIDTH 20 0
BBX 17 16 2 0
BITMAP
01FF00
000000
010000
F90000
897F00
890000
890800
893F00
890800
890800
890800
F97F80
010000
010000
010000
01FF80
ENDCHAR
STARTCHAR 54D1
ENCODING 21713
SWIDTH 855 0
DWIDTH 19 0
BBX 17 14 1 0
BITMAP
01FF00
000000
000000
F84800
884800
884800
8B4800
884900
884A00
884800
F84800
004800
004800
07FF80
ENDCHAR
STARTCHAR 54D2
ENCODING 21714
SWIDTH 855 0
DWIDTH 19 0
BBX 17 17 1 -1
BITMAP
010000
010400
010400
000400
000400
F80400
8F3F80
890800
890800
891E00
891180
F91000
012000
010000
034000
026000
061F80
ENDCHAR
STARTCHAR 54D3
ENCODING 21715
SWIDTH 855 0
DWIDTH 19 0
BBX 16 19 1 -1
BITMAP
0040
0060
003F
03F0
0016
F81C
887C
88C7
8803
8800
8BFF
8800
F800
0084
0084
0084
0105
0107
0200
ENDCHAR
STARTCHAR 54D4
ENCODING 21716
SWIDTH 900 0
DWIDTH 20 0
BBX 16 19 2 0
BITMAP
0008
0108
010B
010A
01E8
F908
8908
8989
890F
8800
8820
8820
FBFF
0020
0020
0020
0020
0020
0020
ENDCHAR
STARTCHAR 54D5
ENCODING 21717
SWIDTH 900 0
DWIDTH 20 0
BBX 16 19 2 -1
BITMAP
0010
0211
0211
0211
03FF
F800
8800
88C0
8980
8B3F
8A03
8C02
F866
0024
0008
0018
0030
0040
0180
ENDCHAR
STARTCHAR 54D7
ENCODING 21719
SWIDTH 900 0
DWIDTH 20 0
BBX 16 18 2 0
BITMAP
0088
0188
020E
013C
0138
F908
8909
890F
8900
8820
8820
8820
FBFF
0020
0020
0020
0020
0020
ENDCHAR
STARTCHAR 54D9
ENCODING 21721
SWIDTH 900 0
DWIDTH 20 0
BBX 17 18 2 0
BITMAP
001000
003000
002000
006000
00C600
F98180
8B0000
887C00
880000
880000
89FF00
880000
F80000
006000
004600
00C200
00F900
00E000
ENDCHAR
STARTCHAR 54DA
ENCODING 21722
SWIDTH 855 0
DWIDTH 19 0
BBX 17 18 1 -2
BITMAP
007E00
000200
008200
008200
F88200
888380
890000
891000
881000
881000
89FF80
F81000
001000
001200
009180
011000
001000
001000
ENDCHAR
STARTCHAR 54DC
ENCODING 21724
SWIDTH 900 0
DWIDTH 20 0
BBX 16 19 2 -1
BITMAP
0010
0010
0000
03FF
0000
F804
8868
8838
883C
8862
8980
8804
F804
0084
0084
0084
0184
0104
0204
ENDCHAR
STARTCHAR 54DD
ENCODING 21725
SWIDTH 900 0
DWIDTH 20 0
BBX 17 17 2 0
BITMAP
001000
001000
001000
011000
017F00
F92100
892100
884000
884000
888180
888300
8B4800
F84400
004300
004180
004000
007000
ENDCHAR
STARTCHAR 54DE
ENCODING 21726
SWIDTH 900 0
DWIDTH 20 0
BBX 17 19 2 -1
BITMAP
004000
00C000
008400
018200
01F100
F9C000
880000
888800
888800
88FE00
890800
880800
F80800
01FF80
000800
000800
000800
000800
000800
ENDCHAR
STARTCHAR 54DF
ENCODING 21727
SWIDTH 855 0
DWIDTH 19 0
BBX 17 16 1 0
BITMAP
004800
008800
019800
011000
FB2780
8B8080
884080
88C080
888080
898C80
8B0080
FBC080
000080
000080
00C380
038000
ENDCHAR
STARTCHAR 54E5
ENCODING 21733
SWIDTH 900 0
DWIDTH 20 0
BBX 15 18 2 -2
BITMAP
FFFC
0000
0010
1F10
1110
1110
1F10
0000
FFFE
0000
0010
1F10
1110
1110
1110
1F10
0010
0070
ENDCHAR
STARTCHAR 54E6
ENCODING 21734
SWIDTH 900 0
DWIDTH 20 0
BBX 16 17 2 -1
BITMAP
01E8
0209
0009
0088
F888
8BFF
8888
8888
8888
88E9
898F
FA8C
0094
0084
0386
0003
0001
ENDCHAR
STARTCHAR 54E7
ENCODING 21735
SWIDTH 900 0
DWIDTH 20 0
BBX 17 20 1 -2
BITMAP
001000
001000
001000
01FE00
001000
001000
F80000
8BFF80
880000
880800
884800
884800
884800
FE4B80
04C800
008800
018800
011800
010000
020000
ENDCHAR
STARTCHAR 54E8
ENCODING 21736
SWIDTH 900 0
DWIDTH 20 0
BBX 16 19 2 -2
BITMAP
0010
0010
0011
0312
0010
F800
897F
8901
8901
893D
8901
8901
F901
013D
0101
0101
0101
0101
0103
ENDCHAR
STARTCHAR 54E9
ENCODING 21737
SWIDTH 900 0
DWIDTH 20 0
BBX 17 16 2 0
BITMAP
01FF00
011100
011100
F97D00
891100
891100
89FF00
881000
881000
881000
89FF00
F81000
001000
001000
000000
03FF80
ENDCHAR
STARTCHAR 54EA
ENCODING 21738
SWIDTH 855 0
DWIDTH 19 0
BBX 17 17 1 -2
BITMAP
03E000
002800
012B80
F12980
912900
97A900
912900
912B80
932880
97A880
F22880
022880
022980
06E800
040800
040800
0C0800
ENDCHAR
STARTCHAR 54ED
ENCODING 21741
SWIDTH 855 0
DWIDTH 19 0
BBX 15 18 2 -3
BITMAP
3E7C
2244
2244
2244
3E7C
0000
0000
0110
0110
0200
FFFE
0600
0400
0C60
083C
1000
3000
6000
ENDCHAR
STARTCHAR 54EE
ENCODING 21742
SWIDTH 900 0
DWIDTH 20 0
BBX 17 18 2 -2
BITMAP
002000
002000
01FC00
002000
002400
F80C00
8BFF80
883000
886000
88C000
89BE00
880600
F80800
000800
03FF80
000800
000800
003800
ENDCHAR
STARTCHAR 54F2
ENCODING 21746
SWIDTH 900 0
DWIDTH 20 0
BBX 14 18 3 -1
BITMAP
2138
2100
F900
2100
3B7C
E210
A210
2210
6410
0410
0000
3FF0
2010
2010
2010
2010
2010
3FF0
ENDCHAR
STARTCHAR 54F3
ENCODING 21747
SWIDTH 900 0
DWIDTH 20 0
BBX 18 17 1 0
BITMAP
010000
010080
010F80
010800
FFC800
890800
890800
890800
891FC0
89D800
8F1100
F91100
013100
012100
012100
034100
000100
ENDCHAR
STARTCHAR 54FA
ENCODING 21754
SWIDTH 900 0
DWIDTH 20 0
BBX 17 18 2 -1
BITMAP
001000
001180
001000
001000
03FF80
F81000
881000
89FF00
891100
891100
897D00
891100
F91100
017D00
011100
011100
011100
011300
ENDCHAR
STARTCHAR 54FC
ENCODING 21756
SWIDTH 900 0
DWIDTH 20 0
BBX 16 19 2 -2
BITMAP
0020
0020
0000
03FF
0000
0000
F8FC
8884
8884
88FC
8800
8800
89FC
F80C
0018
0010
0010
0010
0070
ENDCHAR
STARTCHAR 54FD
ENCODING 21757
SWIDTH 900 0
DWIDTH 20 0
BBX 16 18 2 -2
BITMAP
03FF
0000
0010
0010
F9FE
8912
897A
8932
8932
89FE
8820
F860
0060
01E0
00B8
0087
0100
0200
ENDCHAR
STARTCHAR 54FF
ENCODING 21759
SWIDTH 855 0
DWIDTH 19 0
BBX 15 19 2 -1
BITMAP
1000
1000
7E7C
2244
2244
2244
467C
4000
0000
FFFE
0000
0010
3F10
2110
2110
2110
3F10
0010
0070
ENDCHAR
STARTCHAR 5501
ENCODING 21761
SWIDTH 900 0
DWIDTH 20 0
BBX 16 18 2 1
BITMAP
0010
0010
0000
03FF
0000
F800
88FF
8800
8800
89FE
8800
8800
F8FE
0082
0082
0082
0082
00FE
ENDCHAR
STARTCHAR 5506
ENCODING 21766
SWIDTH 855 0
DWIDTH 19 0
BBX 17 19 1 -1
BITMAP
004000
00C000
008400
018600
01F200
F80000
880000
884400
888600
880200
880000
888000
F93C00
010400
002C00
003800
003E00
00C180
010000
ENDCHAR
STARTCHAR 5507
ENCODING 21767
SWIDTH 855 0
DWIDTH 19 0
BBX 14 18 2 -2
BITMAP
3FFC
0000
2000
23F0
2000
2FFC
2000
210C
2110
21D8
4184
4000
41F8
4108
4108
8108
8108
01F8
ENDCHAR
STARTCHAR 5509
ENCODING 21769
SWIDTH 900 0
DWIDTH 20 0
BBX 16 19 2 -2
BITMAP
0040
00C0
00C4
0186
01F1
F800
8800
8880
89BE
8900
8810
8810
FBFF
0020
0020
0044
00C3
0180
0200
ENDCHAR
STARTCHAR 550F
ENCODING 21775
SWIDTH 855 0
DWIDTH 19 0
BBX 17 19 1 -1
BITMAP
000600
004C00
003800
006C00
00C200
FB2000
884000
8BFF80
884000
88C000
898800
890800
FA7F00
004900
004900
004900
004B00
000800
000800
ENDCHAR
STARTCHAR 5510
ENCODING 21776
SWIDTH 900 0
DWIDTH 20 0
BBX 16 20 2 -3
BITMAP
0080
0080
0000
3FFE
0000
2040
23F8
2048
2048
2FFF
2048
2048
43F8
4040
4000
43F8
8208
8208
8208
03F8
ENDCHAR
STARTCHAR 5511
ENCODING 21777
SWIDTH 855 0
DWIDTH 19 0
BBX 17 16 1 0
BITMAP
001000
001000
011200
011200
F91600
8A9500
8A5400
881000
881000
89FE00
881000
F81000
001000
001000
000000
03FF80
ENDCHAR
STARTCHAR 5514
ENCODING 21780
SWIDTH 855 0
DWIDTH 19 0
BBX 16 18 2 -2
BITMAP
01FF
0000
0020
0060
F9FE
8842
8842
8882
8800
8BFF
8800
F800
00FE
0082
0082
0082
0082
00FE
ENDCHAR
STARTCHAR 551B
ENCODING 21787
SWIDTH 900 0
DWIDTH 20 0
BBX 17 20 2 -4
BITMAP
002000
002000
01FE00
002000
002000
00F800
F82000
880000
8BFF00
880000
888000
89B800
890C00
F80800
009800
00F000
003C00
006380
008000
030000
ENDCHAR
STARTCHAR 5520
ENCODING 21792
SWIDTH 900 0
DWIDTH 20 0
BBX 17 18 2 -3
BITMAP
004400
03FF00
004400
004400
F80000
897F80
890080
890080
892080
882000
886000
F9FF00
004100
004100
00C100
008700
008000
010000
ENDCHAR
STARTCHAR 5522
ENCODING 21794
SWIDTH 855 0
DWIDTH 19 0
BBX 17 19 1 -1
BITMAP
001000
001000
001100
011300
001200
F81000
89FF00
890100
890100
891100
891100
891100
F93100
002000
002000
004000
00C700
018180
030000
ENDCHAR
STARTCHAR 5523
ENCODING 21795
SWIDTH 855 0
DWIDTH 19 0
BBX 17 18 1 0
BITMAP
003000
002000
000000
01FE00
010200
F97A00
890200
890200
890200
89FE00
884000
884000
F87F00
03C000
004000
004000
004100
007F80
ENDCHAR
STARTCHAR 5524
ENCODING 21796
SWIDTH 855 0
DWIDTH 19 0
BBX 17 19 1 -2
BITMAP
018000
010000
031C00
020C00
000800
F80000
89FF00
890100
890100
891100
891100
881000
FBFF80
002000
006000
004600
00C380
018000
010000
ENDCHAR
STARTCHAR 5527
ENCODING 21799
SWIDTH 900 0
DWIDTH 20 0
BBX 18 16 1 0
BITMAP
03E000
0227C0
022040
FA2040
8BA440
8A2440
8A2440
8BE440
8A0440
8A0440
FA04C0
024400
026400
023400
038400
030400
ENDCHAR
STARTCHAR 552A
ENCODING 21802
SWIDTH 855 0
DWIDTH 19 0
BBX 17 19 1 -1
BITMAP
001000
001000
01FF00
002000
002000
F9FC00
884000
884000
8BFF00
888000
889380
891080
F8FC00
001000
001000
03FF00
001000
001000
001000
ENDCHAR
STARTCHAR 552C
ENCODING 21804
SWIDTH 900 0
DWIDTH 20 0
BBX 17 19 2 -2
BITMAP
002000
002700
002000
002000
03FF00
F80100
8A0100
8A1400
8A7C00
8A1200
8A1F00
8A0000
FA0000
023C00
020400
042500
042500
044780
004000
ENDCHAR
STARTCHAR 552E
ENCODING 21806
SWIDTH 855 0
DWIDTH 19 0
BBX 14 20 3 -3
BITMAP
0040
3040
6000
87FC
0040
23F8
2040
2040
23F8
2040
27FC
2000
0000
1FF0
1010
1010
1010
1010
1010
1FF0
ENDCHAR
ENDFONT
